<?xml version="1.0" standalone="no"?>
<!DOCTYPE svg PUBLIC "-//W3C//DTD SVG 20010904//EN"
 "http://www.w3.org/TR/2001/REC-SVG-20010904/DTD/svg10.dtd">
<svg version="1.0" xmlns="http://www.w3.org/2000/svg"
 width="768.000000pt" height="768.000000pt" viewBox="0 0 768.000000 768.000000"
 preserveAspectRatio="xMidYMid meet">
<metadata>
Created by potrace 1.14, written by Peter Selinger 2001-2017
</metadata>
<g transform="translate(0.000000,768.000000) scale(0.100000,-0.100000)"
fill="#000000" stroke="none">
<path d="M1070 7673 c-310 -49 -519 -151 -715 -348 -172 -172 -279 -370 -332
-615 -17 -81 -18 -215 -18 -2870 0 -2655 1 -2789 18 -2870 53 -245 160 -443
332 -615 172 -172 370 -279 615 -332 81 -17 215 -18 2870 -18 2655 0 2789 1
2870 18 245 53 443 160 615 332 172 172 279 370 332 615 17 81 18 215 18 2870
0 2655 -1 2789 -18 2870 -53 245 -160 443 -332 615 -168 169 -357 272 -605
331 -71 18 -216 19 -2850 20 -1526 1 -2786 0 -2800 -3z m3130 -1543 c107 -6
251 -19 320 -30 652 -99 1150 -393 1349 -795 76 -152 86 -200 85 -400 0 -156
-3 -178 -27 -260 -197 -649 -988 -1180 -2137 -1435 -53 -11 -111 -30 -129 -41
-72 -43 -74 -95 -31 -584 44 -494 52 -634 40 -728 -28 -225 -157 -317 -426
-304 -127 6 -196 25 -256 70 -74 56 -81 82 -90 322 -20 553 -136 2147 -193
2660 -29 254 -71 406 -127 464 -40 41 -65 51 -130 51 -77 0 -116 -24 -146 -88
-22 -50 -25 -72 -32 -251 -10 -251 -26 -307 -111 -392 -70 -70 -135 -96 -267
-109 -157 -15 -247 13 -326 100 -55 62 -84 123 -102 217 -35 183 -1 398 91
583 125 249 415 496 764 650 389 171 912 278 1461 299 113 4 210 9 215 9 6 1
98 -3 205 -8z"/>
<path d="M3652 5440 c-155 -16 -234 -60 -248 -138 -9 -47 7 -252 57 -727 63
-606 80 -702 124 -719 27 -10 94 -7 190 9 308 50 767 256 1061 476 127 95 264
241 306 326 70 142 36 277 -103 408 -85 80 -150 122 -283 186 -170 80 -356
133 -581 164 -128 18 -416 26 -523 15z"/>
</g>
</svg>
