<?xml version="1.0" standalone="no"?>
<!DOCTYPE svg PUBLIC "-//W3C//DTD SVG 20010904//EN"
 "http://www.w3.org/TR/2001/REC-SVG-20010904/DTD/svg10.dtd">
<svg version="1.0" xmlns="http://www.w3.org/2000/svg"
 width="1024.000000pt" height="1024.000000pt" viewBox="0 0 1024.000000 1024.000000"
 preserveAspectRatio="xMidYMid meet">
<metadata>
Created by potrace 1.14, written by Peter Selinger 2001-2017
</metadata>
<g transform="translate(0.000000,1024.000000) scale(0.100000,-0.100000)"
fill="#000000" stroke="none">
<path d="M1955 10224 c-384 -52 -726 -188 -1030 -409 -442 -322 -762 -807
-874 -1325 -54 -250 -51 -84 -51 -3370 0 -3286 -3 -3120 51 -3370 180 -830
869 -1519 1699 -1699 250 -54 84 -51 3370 -51 3286 0 3120 -3 3370 51 830 180
1519 869 1699 1699 54 250 51 84 51 3370 0 3286 3 3120 -51 3370 -180 830
-869 1519 -1699 1699 -251 54 -82 51 -3383 50 -2511 -1 -3070 -3 -3152 -15z
m3605 -2628 c493 -74 859 -246 1160 -546 252 -251 410 -551 474 -898 58 -311
33 -699 -64 -993 -175 -532 -616 -930 -1214 -1094 -282 -77 -491 -95 -1098
-95 l-408 0 0 -675 0 -675 -700 0 -700 0 0 2501 0 2500 1218 -4 c1087 -3 1229
-5 1332 -21z"/>
<path d="M4410 5795 l0 -675 408 0 c451 0 505 6 632 69 161 80 243 172 298
336 25 76 26 90 26 275 0 185 -1 199 -27 276 -53 159 -137 252 -292 325 -137
64 -181 69 -640 69 l-405 0 0 -675z"/>
</g>
</svg>
