<?xml version="1.0" encoding="UTF-8" standalone="no"?>
<!DOCTYPE svg PUBLIC "-//W3C//DTD SVG 1.1//EN" "http://www.w3.org/Graphics/SVG/1.1/DTD/svg11.dtd">

<!-- Created with Vectornator (http://vectornator.io/) -->
<svg height="100%" stroke-miterlimit="10" style="fill-rule:nonzero;clip-rule:evenodd;stroke-linecap:round;stroke-linejoin:round;" version="1.1" viewBox="0 0 2394 454" width="100%" xml:space="preserve" xmlns="http://www.w3.org/2000/svg" xmlns:vectornator="http://vectornator.io" xmlns:xlink="http://www.w3.org/1999/xlink">
<metadata>
<vectornator:setting key="IsTimeLapseWatermarkDisabled" value="false"/>
<vectornator:setting key="UndoHistoryDisabled" value="true"/>
<vectornator:setting key="VNDimensionsVisible" value="true"/>
<vectornator:setting key="VNSnapToGuides" value="true"/>
<vectornator:setting key="WDCMYKEnabledKey" value="false"/>
<vectornator:setting key="WDDisplayWhiteBackground" value="false"/>
<vectornator:setting key="WDDynamicGuides" value="false"/>
<vectornator:setting key="WDGuidesVisible" value="true"/>
<vectornator:setting key="WDIsolateActiveLayer" value="false"/>
<vectornator:setting key="WDOutlineMode" value="false"/>
<vectornator:setting key="WDRulersVisible" value="true"/>
<vectornator:setting key="WDSnapToEdges" value="false"/>
<vectornator:setting key="WDSnapToGrid" value="false"/>
<vectornator:setting key="WDSnapToPoints" value="false"/>
<vectornator:setting key="WDUnits" value="Points"/>
</metadata>
<defs>
<clipPath id="TextBounds">
<rect height="454" width="2394" x="0" y="1.13687e-13"/>
</clipPath>
<linearGradient gradientTransform="matrix(1 0 0 1 -117.583 -469.884)" gradientUnits="userSpaceOnUse" id="LinearGradient" x1="117.583" x2="2511.58" y1="696.884" y2="696.884">
<stop offset="0" stop-color="#843ff9"/>
<stop offset="0.987124" stop-color="#ff780e"/>
</linearGradient>
</defs>
<clipPath id="ArtboardFrame">
<rect height="454" width="2394" x="0" y="0"/>
</clipPath>
<g clip-path="url(#ArtboardFrame)" id="Layer-1" vectornator:layerName="Layer 1">
<g fill="url(#LinearGradient)" opacity="1" stroke="none">
<path clip-path="url(#TextBounds)" d="M70.6875 317.563C70.6875 313.437 70.5313 308.063 70.2188 301.438C69.9062 294.812 69.5 287.5 69 279.5C68.5 271.5 67.9375 263 67.3125 254C66.6875 245 66 236.063 65.25 227.188C64.5 218.312 63.7813 209.719 63.0938 201.406C62.4062 193.094 61.75 185.563 61.125 178.813C60.125 169.187 58.75 162.125 57 157.625C55.25 153.125 52.375 150.875 48.375 150.875C44.625 150.875 42.1563 151.937 40.9688 154.063C39.7812 156.188 39.0938 158.812 38.9062 161.938C38.7187 165.063 38.6562 168.469 38.7188 172.156C38.7813 175.844 38.2188 179.25 37.0312 182.375C35.8437 185.5 33.625 188.125 30.375 190.25C27.125 192.375 22.125 193.438 15.375 193.438C10.625 193.438 6.5625 191.469 3.1875 187.531C-0.1875 183.594-1.875 177.875-1.875 170.375C-1.875 159.875 1.21875 150.344 7.40625 141.781C13.5938 133.219 22.3125 125.906 33.5625 119.844C44.8125 113.781 58.375 109.063 74.25 105.688C90.125 102.312 107.75 100.625 127.125 100.625C141 100.625 153.812 102.156 165.562 105.219C177.313 108.281 187.469 112.531 196.031 117.969C204.594 123.406 211.312 129.844 216.188 137.281C221.063 144.719 223.5 152.812 223.5 161.563C223.5 171.438 220.625 180.875 214.875 189.875C209.125 198.875 201.219 207.125 191.156 214.625C181.094 222.125 169.25 228.656 155.625 234.219C142 239.781 127.375 244.125 111.75 247.25C107.375 248 105.188 250.687 105.188 255.313C105.188 258.438 105.406 262.344 105.844 267.031C106.281 271.719 106.719 276.625 107.156 281.75C107.594 286.875 108.031 291.937 108.469 296.938C108.906 301.938 109.125 306.375 109.125 310.25C109.125 317.25 107.5 322.25 104.25 325.25C101 328.25 96.1875 329.75 89.8125 329.75C83.8125 329.75 79.125 328.719 75.75 326.656C72.375 324.594 70.6875 321.563 70.6875 317.563ZM184.688 167C184.688 162.75 182.875 158.688 179.25 154.813C175.625 150.937 170.75 147.5 164.625 144.5C158.5 141.5 151.406 139.125 143.344 137.375C135.281 135.625 126.813 134.75 117.938 134.75C113.562 134.75 109.906 134.906 106.969 135.219C104.031 135.531 101.688 136.062 99.9375 136.813C98.1875 137.563 96.9688 138.531 96.2812 139.719C95.5937 140.906 95.25 142.437 95.25 144.313C95.25 145.563 95.4375 148.469 95.8125 153.031C96.1875 157.594 96.6875 162.875 97.3125 168.875C97.9375 174.875 98.5937 181.156 99.2812 187.719C99.9688 194.281 100.687 200.187 101.438 205.438C101.813 209.313 102.344 211.875 103.031 213.125C103.719 214.375 104.812 215 106.312 215C110.563 215 115.437 214.281 120.938 212.844C126.438 211.406 132.094 209.469 137.906 207.031C143.719 204.594 149.406 201.781 154.969 198.594C160.531 195.406 165.531 192.031 169.969 188.469C174.406 184.906 177.969 181.281 180.656 177.594C183.344 173.906 184.688 170.375 184.688 167Z" fill-rule="evenodd"/>
<path clip-path="url(#TextBounds)" d="M250.312 82.4375C250.312 75.9375 252.187 71.3125 255.938 68.5625C259.688 65.8125 265.875 64.4375 274.5 64.4375C277.5 64.4375 280.125 64.75 282.375 65.375C284.625 66 286.5 67.0312 288 68.4688C289.5 69.9063 290.719 71.8437 291.656 74.2813C292.594 76.7188 293.375 79.8125 294 83.5625C295.625 94.6875 297.281 106.344 298.969 118.531C300.656 130.719 302.281 142.844 303.844 154.906C305.406 166.969 306.875 178.719 308.25 190.156C309.625 201.594 310.844 212.219 311.906 222.031C312.969 231.844 313.781 240.531 314.344 248.094C314.906 255.656 315.188 261.625 315.188 266C315.188 270.5 314.781 274.312 313.969 277.438C313.156 280.563 311.781 283.062 309.844 284.938C307.906 286.813 305.406 288.156 302.344 288.969C299.281 289.781 295.5 290.188 291 290.188C286.625 290.188 283.156 289.063 280.594 286.813C278.031 284.562 276.75 281.125 276.75 276.5C276.75 271.75 276.375 265.406 275.625 257.469C274.875 249.531 273.875 240.688 272.625 230.938C271.375 221.187 269.969 210.813 268.406 199.813C266.844 188.812 265.219 177.938 263.531 167.188C261.844 156.437 260.219 146.094 258.656 136.156C257.094 126.219 255.688 117.406 254.438 109.719C253.187 102.031 252.188 95.7188 251.438 90.7813C250.687 85.8437 250.312 83.0625 250.312 82.4375Z" fill-rule="evenodd"/>
<path clip-path="url(#TextBounds)" d="M468.562 132.125C475.438 132.125 482.062 133.187 488.438 135.313C494.813 137.438 500.437 140.375 505.312 144.125C510.188 147.875 514.094 152.375 517.031 157.625C519.969 162.875 521.438 168.687 521.438 175.063C521.438 177.688 520.844 180.219 519.656 182.656C518.469 185.094 516.875 187.219 514.875 189.031C512.875 190.844 510.594 192.281 508.031 193.344C505.469 194.406 502.813 194.938 500.062 194.938C499.812 194.938 499.594 194.969 499.406 195.031C499.219 195.094 499 195.125 498.75 195.125C498.5 195.25 498.25 195.313 498 195.313L498.75 210.313C499.25 228.188 501.781 241.25 506.344 249.5C510.906 257.75 516.875 261.875 524.25 261.875C526.875 261.875 529.219 261.625 531.281 261.125C533.344 260.625 535.281 260.031 537.094 259.344C538.906 258.656 540.625 258.063 542.25 257.563C543.875 257.062 545.5 256.813 547.125 256.813C550 256.813 552.531 258.062 554.719 260.563C556.906 263.063 558 266.062 558 269.563C558 273.063 556.656 276.562 553.969 280.063C551.281 283.563 547.75 286.719 543.375 289.531C539 292.344 534.063 294.625 528.562 296.375C523.062 298.125 517.5 299 511.875 299C502.125 299 493.563 294.969 486.188 286.906C478.812 278.844 473.563 267 470.438 251.375C469.687 248.875 468.688 247.625 467.438 247.625C465.937 247.625 464.625 248.375 463.5 249.875C451.125 265.5 437.938 277.219 423.938 285.031C409.937 292.844 396.125 296.75 382.5 296.75C376.125 296.75 370.375 295.813 365.25 293.938C360.125 292.062 355.781 289.406 352.219 285.969C348.656 282.531 345.906 278.344 343.969 273.406C342.031 268.469 341.062 262.938 341.062 256.813C341.062 248.187 342.969 239.125 346.781 229.625C350.594 220.125 355.75 210.75 362.25 201.5C368.75 192.25 376.281 183.438 384.844 175.063C393.406 166.687 402.406 159.313 411.844 152.938C421.281 146.562 430.875 141.5 440.625 137.75C450.375 134 459.687 132.125 468.562 132.125ZM462.375 197C464.625 192.75 466.687 189.656 468.562 187.719C470.438 185.781 473.125 184.5 476.625 183.875C479.375 183.5 480.75 182.625 480.75 181.25C480.75 180.25 480.375 179.188 479.625 178.063C477.25 174.812 474.75 171.969 472.125 169.531C469.5 167.094 466 165.875 461.625 165.875C456.875 165.875 451.563 167.25 445.688 170C439.812 172.75 433.844 176.406 427.781 180.969C421.719 185.531 415.781 190.719 409.969 196.531C404.156 202.344 399 208.312 394.5 214.438C390 220.563 386.375 226.625 383.625 232.625C380.875 238.625 379.5 244 379.5 248.75C379.5 253 380.656 256.312 382.969 258.688C385.281 261.063 388.437 262.25 392.438 262.25C402.688 262.25 413.875 256.813 426 245.938C438.125 235.062 450.25 218.75 462.375 197Z" fill-rule="evenodd"/>
<path clip-path="url(#TextBounds)" d="M577.688 304.063C576.812 287.437 575.406 272.094 573.469 258.031C571.531 243.969 569.531 231.688 567.469 221.188C565.406 210.687 563.594 202.188 562.031 195.688C560.469 189.187 559.688 185.125 559.688 183.5C559.688 181.125 560.594 178.813 562.406 176.563C564.219 174.312 566.5 172.344 569.25 170.656C572 168.969 574.969 167.625 578.156 166.625C581.344 165.625 584.25 165.125 586.875 165.125C589 165.125 590.844 165.5 592.406 166.25C593.969 167 595.062 168.25 595.688 170C596.313 172.125 596.906 174.344 597.469 176.656C598.031 178.969 598.625 181.75 599.25 185C600 189.625 601 191.938 602.25 191.938C603.625 191.938 605.187 189.875 606.938 185.75C609.438 180 612.125 175.25 615 171.5C617.875 167.75 620.969 164.781 624.281 162.594C627.594 160.406 631.031 158.875 634.594 158C638.156 157.125 641.875 156.688 645.75 156.688C657.5 156.688 667.469 161.312 675.656 170.563C683.844 179.813 690.25 193.187 694.875 210.688C695.5 212.688 696.062 213.969 696.562 214.531C697.063 215.094 697.625 215.375 698.25 215.375C698.875 215.375 699.531 215.094 700.219 214.531C700.906 213.969 701.562 212.813 702.188 211.063C705.188 202.937 708.687 196.031 712.688 190.344C716.688 184.656 720.844 180.031 725.156 176.469C729.469 172.906 733.875 170.313 738.375 168.688C742.875 167.062 747.187 166.25 751.312 166.25C758.938 166.25 765.844 169.031 772.031 174.594C778.219 180.156 783.719 188.719 788.531 200.281C793.344 211.844 797.531 226.469 801.094 244.156C804.656 261.844 807.625 282.812 810 307.063C810 313.813 807.938 318.531 803.812 321.219C799.687 323.906 794.063 325.25 786.938 325.25C782.312 325.25 778.688 324.25 776.062 322.25C773.437 320.25 771.938 317.625 771.562 314.375C769.937 297 768.156 281.531 766.219 267.969C764.281 254.406 762.188 242.969 759.938 233.656C757.687 224.344 755.219 217.25 752.531 212.375C749.844 207.5 746.875 205.063 743.625 205.063C742 205.063 739.969 206.25 737.531 208.625C735.094 211 732.5 215.344 729.75 221.656C727 227.969 724.125 236.594 721.125 247.531C718.125 258.469 715.25 272.437 712.5 289.438C711.75 294.188 709.469 297.812 705.656 300.313C701.844 302.813 697.188 304.063 691.688 304.063C685.312 304.063 680.906 303.063 678.469 301.063C676.031 299.062 674.688 295.688 674.438 290.938C673.937 282.687 673.094 274.469 671.906 266.281C670.719 258.094 669.25 250.281 667.5 242.844C665.75 235.406 663.813 228.531 661.688 222.219C659.562 215.906 657.313 210.406 654.938 205.719C652.562 201.031 650.125 197.375 647.625 194.75C645.125 192.125 642.688 190.813 640.312 190.813C637.187 190.813 634.156 193 631.219 197.375C628.281 201.75 625.656 207.937 623.344 215.938C621.031 223.938 619.188 233.562 617.812 244.813C616.437 256.063 615.75 268.625 615.75 282.5C615.75 284.875 615.812 287.219 615.938 289.531C616.063 291.844 616.125 294.25 616.125 296.75C616.125 300.5 615.531 303.562 614.344 305.938C613.156 308.313 611.469 310.187 609.281 311.563C607.094 312.938 604.563 313.875 601.688 314.375C598.812 314.875 595.688 315.125 592.312 315.125C589.187 315.125 586.688 314.906 584.812 314.469C582.937 314.031 581.5 313.375 580.5 312.5C579.5 311.625 578.813 310.469 578.438 309.031C578.062 307.594 577.813 305.938 577.688 304.063Z" fill-rule="evenodd"/>
<path clip-path="url(#TextBounds)" d="M959.438 254.938C963.063 251.812 966.625 250.25 970.125 250.25C972.125 250.25 973.937 250.75 975.562 251.75C977.188 252.75 979 254.312 981 256.438C982.875 259.313 984.219 261.656 985.031 263.469C985.844 265.281 986.25 267.062 986.25 268.813C986.25 272.563 984.375 276.125 980.625 279.5C974.625 284.5 968.125 288.969 961.125 292.906C954.125 296.844 946.813 300.187 939.188 302.938C931.562 305.688 923.688 307.781 915.562 309.219C907.437 310.656 899.375 311.375 891.375 311.375C881.25 311.375 871.75 310.094 862.875 307.531C854 304.969 846.094 301.313 839.156 296.563C832.219 291.812 826.375 286.094 821.625 279.406C816.875 272.719 813.5 265.188 811.5 256.813C810.375 253.312 809.344 251.031 808.406 249.969C807.469 248.906 805.938 248.375 803.812 248.375C799.187 248.375 795.625 247.25 793.125 245C790.625 242.75 789.375 239.5 789.375 235.25C789.375 233.5 789.5 232.375 789.75 231.875L790.125 228.125C790.75 223.625 791.969 220.375 793.781 218.375C795.594 216.375 798.437 215.375 802.312 215.375L805.125 215.375C810.375 215.375 814.062 212.938 816.188 208.063C820.063 199.437 825 191.563 831 184.438C837 177.312 843.75 171.219 851.25 166.156C858.75 161.094 866.781 157.156 875.344 154.344C883.906 151.531 892.625 150.125 901.5 150.125C910.75 150.125 919.406 151.469 927.469 154.156C935.531 156.844 942.562 160.562 948.562 165.313C954.563 170.063 959.281 175.625 962.719 182C966.156 188.375 967.875 195.25 967.875 202.625C967.875 207.75 966.875 212.437 964.875 216.688C962.875 220.938 960 224.656 956.25 227.844C952.5 231.031 947.969 233.625 942.656 235.625C937.344 237.625 931.313 238.937 924.562 239.563L859.5 246.125C857 246.125 854.969 246.75 853.406 248C851.844 249.25 851.062 250.937 851.062 253.063C851.062 256.313 852.281 259.437 854.719 262.438C857.156 265.438 860.406 268.094 864.469 270.406C868.531 272.719 873.219 274.562 878.531 275.938C883.844 277.313 889.312 278 894.938 278C900.313 278 905.844 277.469 911.531 276.406C917.219 275.344 922.844 273.813 928.406 271.813C933.969 269.812 939.375 267.406 944.625 264.594C949.875 261.781 954.812 258.563 959.438 254.938ZM917.625 206.563C919.5 206.187 921.125 205.281 922.5 203.844C923.875 202.406 924.562 200.625 924.562 198.5C924.562 196.625 923.875 194.875 922.5 193.25C921.125 191.625 919.25 190.156 916.875 188.844C914.5 187.531 911.75 186.5 908.625 185.75C905.5 185 902.188 184.625 898.688 184.625C893.562 184.625 888.313 185.375 882.938 186.875C877.562 188.375 872.688 190.344 868.312 192.781C863.937 195.219 860.375 197.906 857.625 200.844C854.875 203.781 853.5 206.687 853.5 209.563C853.5 212.438 855.25 213.875 858.75 213.875C860.875 213.875 864.312 213.625 869.062 213.125C873.813 212.625 879.062 212.031 884.812 211.344C890.563 210.656 896.375 209.875 902.25 209C908.125 208.125 913.25 207.313 917.625 206.563Z" fill-rule="evenodd"/>
<path clip-path="url(#TextBounds)" d="M970.125 144.688C970.125 142.812 970.937 140.969 972.562 139.156C974.188 137.344 976.312 135.719 978.938 134.281C981.563 132.844 984.531 131.656 987.844 130.719C991.156 129.781 994.5 129.313 997.875 129.313C999.75 129.313 1001.34 129.812 1002.66 130.813C1003.97 131.813 1005.12 133.719 1006.12 136.531C1007.13 139.344 1008.03 143.281 1008.84 148.344C1009.66 153.406 1010.44 160 1011.19 168.125C1011.69 170.625 1012.16 172.531 1012.59 173.844C1013.03 175.156 1013.62 175.813 1014.38 175.813C1015.5 175.813 1016.62 173.875 1017.75 170C1026.88 143.625 1040.06 130.438 1057.31 130.438C1065.31 130.438 1072.59 132.937 1079.16 137.938C1085.72 142.938 1091.84 151.094 1097.53 162.406C1103.22 173.719 1108.62 188.594 1113.75 207.031C1118.88 225.469 1124 248.187 1129.12 275.188C1129.38 276.563 1129.56 277.812 1129.69 278.938C1129.81 280.063 1129.88 281.125 1129.88 282.125C1129.88 285 1129.22 287.469 1127.91 289.531C1126.59 291.594 1124.88 293.281 1122.75 294.594C1120.62 295.906 1118.25 296.906 1115.62 297.594C1113 298.281 1110.38 298.625 1107.75 298.625C1102.5 298.625 1098.72 298.063 1096.41 296.938C1094.09 295.812 1092.63 293.688 1092 290.563C1088.37 271.562 1084.84 254.688 1081.41 239.938C1077.97 225.187 1074.59 212.781 1071.28 202.719C1067.97 192.656 1064.69 185 1061.44 179.75C1058.19 174.5 1054.94 171.875 1051.69 171.875C1048.44 171.875 1045.41 173.906 1042.59 177.969C1039.78 182.031 1037.06 188.375 1034.44 197C1031.81 205.625 1029.28 216.562 1026.84 229.813C1024.41 243.063 1022.06 258.875 1019.81 277.25C1019.19 282.25 1016.69 286.25 1012.31 289.25C1007.94 292.25 1002.38 293.75 995.625 293.75C991.125 293.75 987.688 292.813 985.312 290.938C982.937 289.062 981.625 286.5 981.375 283.25C980.25 257.25 979.031 235.844 977.719 219.031C976.406 202.219 975.188 188.719 974.062 178.531C972.937 168.344 972 160.75 971.25 155.75C970.5 150.75 970.125 147.063 970.125 144.688Z" fill-rule="evenodd"/>
<path clip-path="url(#TextBounds)" d="M1227.75 152.75C1226.12 153 1224.75 153.187 1223.62 153.313C1222.5 153.438 1221.56 153.5 1220.81 153.5C1216.56 153.25 1213.56 152.031 1211.81 149.844C1210.06 147.656 1209.19 144 1209.19 138.875C1209.19 128.75 1214.06 122.375 1223.81 119.75C1232.44 117.75 1241.69 116.281 1251.56 115.344C1261.44 114.406 1272.44 113.938 1284.56 113.938C1300.81 113.938 1316.97 115.5 1333.03 118.625C1349.09 121.75 1364.41 126.031 1378.97 131.469C1393.53 136.906 1407.06 143.344 1419.56 150.781C1432.06 158.219 1442.91 166.281 1452.09 174.969C1461.28 183.656 1468.47 192.781 1473.66 202.344C1478.84 211.906 1481.44 221.5 1481.44 231.125C1481.44 240.875 1478.16 250.156 1471.59 258.969C1465.03 267.781 1456.19 275.562 1445.06 282.313C1433.94 289.063 1421.06 294.437 1406.44 298.438C1391.81 302.438 1376.5 304.438 1360.5 304.438C1347.75 304.438 1334.44 303.25 1320.56 300.875C1306.69 298.5 1291.38 294.688 1274.62 289.438C1266.87 287.312 1263 282.563 1263 275.188C1263 273.562 1263.37 272.063 1264.12 270.688C1264.88 269.312 1265.66 268 1266.47 266.75C1267.28 265.5 1268.06 264.281 1268.81 263.094C1269.56 261.906 1269.94 260.688 1269.94 259.438C1269.94 252.312 1269.59 244.688 1268.91 236.563C1268.22 228.437 1267.28 220.313 1266.09 212.188C1264.91 204.062 1263.53 196.281 1261.97 188.844C1260.41 181.406 1258.81 174.813 1257.19 169.063C1255.56 163.312 1253.91 158.719 1252.22 155.281C1250.53 151.844 1249 150.125 1247.62 150.125C1245.5 150.125 1242.91 150.375 1239.84 150.875C1236.78 151.375 1232.75 152 1227.75 152.75ZM1299.94 149.75C1296.31 149.75 1294.5 151 1294.5 153.5C1294.5 154.125 1294.69 155.187 1295.06 156.688C1295.44 158.188 1296 160.562 1296.75 163.813C1297.88 169.063 1298.94 174.687 1299.94 180.688C1300.94 186.688 1301.94 193.406 1302.94 200.844C1303.94 208.281 1304.91 216.594 1305.84 225.781C1306.78 234.969 1307.75 245.312 1308.75 256.813C1308.88 258.688 1310.56 260.469 1313.81 262.156C1317.06 263.844 1321.37 265.344 1326.75 266.656C1332.13 267.969 1338.28 269.031 1345.22 269.844C1352.16 270.656 1359.31 271.063 1366.69 271.063C1376.44 271.063 1385.78 269.906 1394.72 267.594C1403.66 265.281 1411.53 262.188 1418.34 258.313C1425.16 254.437 1430.59 249.938 1434.66 244.813C1438.72 239.687 1440.75 234.375 1440.75 228.875C1440.75 219.75 1437.16 210.875 1429.97 202.25C1422.78 193.625 1412.88 185.781 1400.25 178.719C1387.62 171.656 1372.75 165.594 1355.62 160.531C1338.5 155.469 1319.94 151.875 1299.94 149.75Z" fill-rule="evenodd"/>
<path clip-path="url(#TextBounds)" d="M1525.12 233.75C1525.12 231.625 1525.37 229.25 1525.88 226.625C1526.38 224 1526.62 221.125 1526.62 218C1526.62 215.875 1525.72 214.25 1523.91 213.125C1522.09 212 1520.06 210.75 1517.81 209.375C1515.56 208 1513.53 206.25 1511.72 204.125C1509.91 202 1509 198.938 1509 194.938C1509 192.062 1509.78 189.188 1511.34 186.313C1512.91 183.437 1515.19 180.813 1518.19 178.438C1525.56 172.937 1533.22 168 1541.16 163.625C1549.09 159.25 1557.03 155.563 1564.97 152.563C1572.91 149.562 1580.75 147.25 1588.5 145.625C1596.25 144 1603.69 143.188 1610.81 143.188C1622.81 143.188 1634.09 145.406 1644.66 149.844C1655.22 154.281 1664.41 160.344 1672.22 168.031C1680.03 175.719 1686.22 184.719 1690.78 195.031C1695.34 205.344 1697.62 216.375 1697.62 228.125C1697.62 239.625 1695.22 250.531 1690.41 260.844C1685.59 271.156 1679.13 280.187 1671 287.938C1662.87 295.688 1653.34 301.844 1642.41 306.406C1631.47 310.969 1619.94 313.25 1607.81 313.25C1595.94 313.25 1584.94 311.25 1574.81 307.25C1564.69 303.25 1555.94 297.719 1548.56 290.656C1541.19 283.594 1535.44 275.219 1531.31 265.531C1527.19 255.844 1525.12 245.25 1525.12 233.75ZM1611.94 279.5C1617.19 279.5 1622.62 278.438 1628.25 276.313C1633.88 274.187 1639.03 271.094 1643.72 267.031C1648.41 262.969 1652.28 258 1655.34 252.125C1658.41 246.25 1659.94 239.625 1659.94 232.25C1659.94 224.75 1658.56 217.75 1655.81 211.25C1653.06 204.75 1649.28 199.094 1644.47 194.281C1639.66 189.469 1633.97 185.688 1627.41 182.938C1620.84 180.187 1613.75 178.813 1606.12 178.813C1592.25 178.813 1581.63 182.406 1574.25 189.594C1566.87 196.781 1563.19 207.812 1563.19 222.688C1563.19 230.813 1564.41 238.344 1566.84 245.281C1569.28 252.219 1572.69 258.219 1577.06 263.281C1581.44 268.344 1586.59 272.312 1592.53 275.188C1598.47 278.063 1604.94 279.5 1611.94 279.5Z" fill-rule="evenodd"/>
<path clip-path="url(#TextBounds)" d="M1716.38 252.688C1714 223.437 1711.28 194.375 1708.22 165.5C1705.16 136.625 1700.69 107.813 1694.81 79.0625C1694.56 78.0625 1694.44 77.1563 1694.44 76.3438C1694.44 75.5312 1694.44 74.75 1694.44 74C1694.44 71.125 1695.03 68.625 1696.22 66.5C1697.41 64.375 1699 62.5938 1701 61.1563C1703 59.7187 1705.28 58.625 1707.84 57.875C1710.41 57.125 1713.12 56.75 1716 56.75C1723.63 56.75 1728.87 60.3125 1731.75 67.4375C1733 71.0625 1734.28 76.25 1735.59 83C1736.91 89.75 1738.28 97.5625 1739.72 106.438C1741.16 115.313 1742.56 125.031 1743.94 135.594C1745.31 146.156 1746.62 157 1747.88 168.125C1748.25 171.25 1749.25 172.813 1750.88 172.813C1752.25 172.813 1753.69 171.875 1755.19 170C1773.44 146 1795.06 134 1820.06 134C1829.44 134 1838.19 136.062 1846.31 140.188C1854.44 144.313 1861.5 149.937 1867.5 157.063C1873.5 164.188 1878.22 172.625 1881.66 182.375C1885.09 192.125 1886.81 202.625 1886.81 213.875C1886.81 224.375 1885.16 234.125 1881.84 243.125C1878.53 252.125 1873.94 259.875 1868.06 266.375C1862.19 272.875 1855.22 277.969 1847.16 281.656C1839.09 285.344 1830.31 287.188 1820.81 287.188C1809.06 287.188 1797.56 284.906 1786.31 280.344C1775.06 275.781 1764.44 269.625 1754.44 261.875C1753.31 260.875 1752.13 260.375 1750.88 260.375C1749.25 260.375 1747.75 261.25 1746.38 263C1744.37 265.25 1742.25 266.719 1740 267.406C1737.75 268.094 1735 268.438 1731.75 268.438C1721.87 268.438 1716.75 263.188 1716.38 252.688ZM1813.5 168.875C1808.5 168.875 1803.53 170.031 1798.59 172.344C1793.66 174.656 1789 177.937 1784.62 182.188C1780.25 186.438 1776.22 191.531 1772.53 197.469C1768.84 203.406 1765.75 210 1763.25 217.25C1763 217.625 1762.81 218.187 1762.69 218.938C1762.56 219.688 1762.5 220.312 1762.5 220.813C1762.5 222.938 1763.25 224.562 1764.75 225.688C1769.25 229.563 1773.91 233.187 1778.72 236.563C1783.53 239.938 1788.31 242.875 1793.06 245.375C1797.81 247.875 1802.5 249.844 1807.12 251.281C1811.75 252.719 1816.06 253.438 1820.06 253.438C1829.06 253.438 1835.91 250.813 1840.59 245.563C1845.28 240.312 1847.62 232.688 1847.62 222.688C1847.62 214.937 1846.75 207.781 1845 201.219C1843.25 194.656 1840.88 188.969 1837.88 184.156C1834.87 179.344 1831.28 175.594 1827.09 172.906C1822.91 170.219 1818.38 168.875 1813.5 168.875Z" fill-rule="evenodd"/>
<path clip-path="url(#TextBounds)" d="M2006.62 155.75C2002 155.75 1997.94 156.969 1994.44 159.406C1990.94 161.844 1987.94 165.219 1985.44 169.531C1982.94 173.844 1980.88 178.906 1979.25 184.719C1977.62 190.531 1976.31 196.875 1975.31 203.75C1974.31 210.625 1973.63 217.812 1973.25 225.313C1972.87 232.813 1972.69 240.375 1972.69 248C1972.69 258 1973.09 267.844 1973.91 277.531C1974.72 287.219 1975.12 296.187 1975.12 304.438C1975.12 309.813 1973.13 314.031 1969.12 317.094C1965.12 320.156 1959.44 321.688 1952.06 321.688C1950.69 321.688 1949.13 321.563 1947.38 321.313C1945.62 321.062 1943.97 320.563 1942.41 319.813C1940.84 319.062 1939.47 318.031 1938.28 316.719C1937.09 315.406 1936.44 313.625 1936.31 311.375C1935.19 300.375 1933.56 289.125 1931.44 277.625C1929.31 266.125 1926.66 254.656 1923.47 243.219C1920.28 231.781 1916.47 220.438 1912.03 209.188C1907.59 197.937 1902.5 186.938 1896.75 176.188C1895.75 174.312 1894.91 172.563 1894.22 170.938C1893.53 169.312 1893.19 167.75 1893.19 166.25C1893.19 164.375 1894.03 162.344 1895.72 160.156C1897.41 157.969 1899.53 155.938 1902.09 154.063C1904.66 152.187 1907.47 150.656 1910.53 149.469C1913.59 148.281 1916.56 147.688 1919.44 147.688C1924.19 147.688 1928.37 150.969 1932 157.531C1935.63 164.094 1939 174.562 1942.12 188.938C1942.75 191.438 1943.25 193.187 1943.62 194.188C1944 195.188 1944.5 195.688 1945.12 195.688C1946.5 195.688 1947.37 193.563 1947.75 189.313C1949.25 177.437 1951.81 167.219 1955.44 158.656C1959.06 150.094 1963.59 143.031 1969.03 137.469C1974.47 131.906 1980.72 127.813 1987.78 125.188C1994.84 122.562 2002.62 121.25 2011.12 121.25C2016 121.25 2020.94 121.687 2025.94 122.563C2030.94 123.438 2035.44 124.75 2039.44 126.5C2043.44 128.25 2046.69 130.375 2049.19 132.875C2051.69 135.375 2052.94 138.187 2052.94 141.313C2052.94 143.563 2052.47 146.219 2051.53 149.281C2050.59 152.344 2049.38 155.281 2047.88 158.094C2046.37 160.906 2044.66 163.281 2042.72 165.219C2040.78 167.156 2038.81 168.125 2036.81 168.125C2034.56 168.125 2032.38 167.469 2030.25 166.156C2028.12 164.844 2025.84 163.438 2023.41 161.938C2020.97 160.437 2018.41 159.031 2015.72 157.719C2013.03 156.406 2010 155.75 2006.62 155.75Z" fill-rule="evenodd"/>
<path clip-path="url(#TextBounds)" d="M2204.44 254.938C2208.06 251.812 2211.62 250.25 2215.12 250.25C2217.13 250.25 2218.94 250.75 2220.56 251.75C2222.19 252.75 2224 254.312 2226 256.438C2227.88 259.313 2229.22 261.656 2230.03 263.469C2230.84 265.281 2231.25 267.062 2231.25 268.813C2231.25 272.563 2229.38 276.125 2225.62 279.5C2219.62 284.5 2213.13 288.969 2206.12 292.906C2199.12 296.844 2191.81 300.187 2184.19 302.938C2176.56 305.688 2168.69 307.781 2160.56 309.219C2152.44 310.656 2144.38 311.375 2136.38 311.375C2126.25 311.375 2116.75 310.094 2107.88 307.531C2099 304.969 2091.09 301.313 2084.16 296.563C2077.22 291.812 2071.38 286.094 2066.62 279.406C2061.87 272.719 2058.5 265.188 2056.5 256.813C2055.37 253.312 2054.34 251.031 2053.41 249.969C2052.47 248.906 2050.94 248.375 2048.81 248.375C2044.19 248.375 2040.63 247.25 2038.12 245C2035.62 242.75 2034.38 239.5 2034.38 235.25C2034.38 233.5 2034.5 232.375 2034.75 231.875L2035.12 228.125C2035.75 223.625 2036.97 220.375 2038.78 218.375C2040.59 216.375 2043.44 215.375 2047.31 215.375L2050.12 215.375C2055.38 215.375 2059.06 212.938 2061.19 208.063C2065.06 199.437 2070 191.563 2076 184.438C2082 177.312 2088.75 171.219 2096.25 166.156C2103.75 161.094 2111.78 157.156 2120.34 154.344C2128.91 151.531 2137.62 150.125 2146.5 150.125C2155.75 150.125 2164.41 151.469 2172.47 154.156C2180.53 156.844 2187.56 160.562 2193.56 165.313C2199.56 170.063 2204.28 175.625 2207.72 182C2211.16 188.375 2212.88 195.25 2212.88 202.625C2212.88 207.75 2211.88 212.437 2209.88 216.688C2207.87 220.938 2205 224.656 2201.25 227.844C2197.5 231.031 2192.97 233.625 2187.66 235.625C2182.34 237.625 2176.31 238.937 2169.56 239.563L2104.5 246.125C2102 246.125 2099.97 246.75 2098.41 248C2096.84 249.25 2096.06 250.937 2096.06 253.063C2096.06 256.313 2097.28 259.437 2099.72 262.438C2102.16 265.438 2105.41 268.094 2109.47 270.406C2113.53 272.719 2118.22 274.562 2123.53 275.938C2128.84 277.313 2134.31 278 2139.94 278C2145.31 278 2150.84 277.469 2156.53 276.406C2162.22 275.344 2167.84 273.813 2173.41 271.813C2178.97 269.812 2184.37 267.406 2189.62 264.594C2194.88 261.781 2199.81 258.563 2204.44 254.938ZM2162.62 206.563C2164.5 206.187 2166.12 205.281 2167.5 203.844C2168.88 202.406 2169.56 200.625 2169.56 198.5C2169.56 196.625 2168.88 194.875 2167.5 193.25C2166.12 191.625 2164.25 190.156 2161.88 188.844C2159.5 187.531 2156.75 186.5 2153.62 185.75C2150.5 185 2147.19 184.625 2143.69 184.625C2138.56 184.625 2133.31 185.375 2127.94 186.875C2122.56 188.375 2117.69 190.344 2113.31 192.781C2108.94 195.219 2105.38 197.906 2102.62 200.844C2099.87 203.781 2098.5 206.687 2098.5 209.563C2098.5 212.438 2100.25 213.875 2103.75 213.875C2105.88 213.875 2109.31 213.625 2114.06 213.125C2118.81 212.625 2124.06 212.031 2129.81 211.344C2135.56 210.656 2141.37 209.875 2147.25 209C2153.13 208.125 2158.25 207.313 2162.62 206.563Z" fill-rule="evenodd"/>
<path clip-path="url(#TextBounds)" d="M2332.12 151.25C2332.5 147.75 2332.97 144.844 2333.53 142.531C2334.09 140.219 2334.97 138.344 2336.16 136.906C2337.34 135.469 2338.87 134.438 2340.75 133.813C2342.63 133.187 2345 132.875 2347.88 132.875C2357 132.875 2363.72 134.219 2368.03 136.906C2372.34 139.594 2374.5 143.875 2374.5 149.75C2374.5 150.875 2374.28 153.344 2373.84 157.156C2373.41 160.969 2372.81 165.656 2372.06 171.219C2371.31 176.781 2370.47 182.906 2369.53 189.594C2368.59 196.281 2367.69 203.062 2366.81 209.938C2364.56 225.938 2362 243.875 2359.12 263.75C2357.37 275.5 2353.91 283.937 2348.72 289.063C2343.53 294.188 2335.88 296.75 2325.75 296.75C2318.12 296.75 2310.25 294.813 2302.12 290.938C2294 287.062 2286.13 281.813 2278.5 275.188C2270.87 268.562 2263.66 260.844 2256.84 252.031C2250.03 243.219 2244.06 233.844 2238.94 223.906C2233.81 213.969 2229.78 203.813 2226.84 193.438C2223.91 183.062 2222.44 172.938 2222.44 163.063C2222.44 151.937 2224.03 143.594 2227.22 138.031C2230.41 132.469 2235.94 129.688 2243.81 129.688C2249.31 129.688 2253.87 130.031 2257.5 130.719C2261.13 131.406 2264.03 132.594 2266.22 134.281C2268.41 135.969 2269.97 138.187 2270.91 140.938C2271.84 143.688 2272.31 147.125 2272.31 151.25C2272.31 154 2272.19 156.75 2271.94 159.5C2271.69 162.25 2271.56 165 2271.56 167.75C2271.56 174.125 2272.22 180.781 2273.53 187.719C2274.84 194.656 2276.62 201.437 2278.88 208.063C2281.13 214.688 2283.75 220.969 2286.75 226.906C2289.75 232.844 2292.94 238.062 2296.31 242.563C2299.69 247.063 2303.09 250.625 2306.53 253.25C2309.97 255.875 2313.31 257.188 2316.56 257.188C2318.81 257.188 2320.53 256.438 2321.72 254.938C2322.91 253.437 2323.69 250.875 2324.06 247.25L2332.12 151.25Z" fill-rule="evenodd"/>
</g>
</g>
</svg>
