<?xml version="1.0" encoding="UTF-8" standalone="no"?>
<!DOCTYPE svg PUBLIC "-//W3C//DTD SVG 1.1//EN" "http://www.w3.org/Graphics/SVG/1.1/DTD/svg11.dtd">
<!-- Created with Vectornator (http://vectornator.io/) -->
<svg height="100%" stroke-miterlimit="10" style="fill-rule:nonzero;clip-rule:evenodd;stroke-linecap:round;stroke-linejoin:round;" version="1.1" viewBox="0 0 3436.7 866.5" width="100%" xml:space="preserve" xmlns="http://www.w3.org/2000/svg" xmlns:vectornator="http://vectornator.io" xmlns:xlink="http://www.w3.org/1999/xlink">
<defs/>
<clipPath id="ArtboardFrame">
<rect height="866.5" width="3436.7" x="0" y="0"/>
</clipPath>
<g clip-path="url(#ArtboardFrame)" id="Layer-1" vectornator:layerName="Layer 1">
<g opacity="1">
<path d="M263.672 423.651C251.953 430.812 240.234 437.648 228.516 444.158C218.75 449.367 208.496 454.901 197.754 460.76C187.012 466.619 178.06 471.177 170.898 474.432C169.596 542.14 168.131 594.223 166.504 630.682C164.876 667.14 163.737 693.833 163.086 710.76C161.784 730.942 160.482 742.335 159.18 744.94C157.878 744.94 153.971 742.173 147.461 736.639C140.95 731.105 133.952 724.432 126.465 716.619C118.978 708.807 112.142 700.994 105.957 693.182C99.7721 685.369 96.0286 679.51 94.7265 675.604C94.0755 667.14 92.4479 642.726 89.8437 602.362C88.5416 584.783 87.2396 562.973 85.9375 536.932C84.6354 510.89 83.0078 479.315 81.0547 442.205C79.1015 405.096 76.9857 361.476 74.707 311.346C72.4284 261.216 69.987 203.598 67.3828 138.494C55.664 137.843 46.0612 137.518 38.5742 137.518C31.0872 137.518 25.3906 137.681 21.4844 138.006C17.5781 138.332 14.6484 138.332 12.6953 138.006C10.7422 137.681 9.11458 136.216 7.8125 133.612C5.20833 128.403 3.25521 119.451 1.95312 106.756C0.651041 94.0607 9.23706e-14 81.8537 9.23706e-14 70.1349C9.23706e-14 57.1141 1.79036 44.0933 5.37109 31.0724C8.95182 18.0516 13.3464 9.91359 18.5547 6.65838C20.5078 5.3563 25.5534 5.03078 33.6914 5.68182C41.8294 6.33286 51.4323 7.63494 62.5 9.58807C73.5677 11.5412 85.612 13.8198 98.6328 16.424C111.654 19.0282 124.023 21.6323 135.742 24.2365C147.461 26.8407 157.715 29.2821 166.504 31.5607C175.293 33.8394 181.641 35.3042 185.547 35.9553C192.057 37.2573 204.102 41.0008 221.68 47.1857C239.258 53.3706 257.975 60.8576 277.832 69.6467C297.689 78.4357 316.569 87.8758 334.473 97.967C352.376 108.058 365.56 117.987 374.023 127.752C377.279 131.658 380.371 142.726 383.301 160.955C386.23 179.184 388.509 198.878 390.137 220.037C391.764 241.196 392.415 261.378 392.09 280.584C391.764 299.79 389.974 312.322 386.719 318.182C384.114 322.088 379.232 328.273 372.07 336.737C364.909 345.2 355.957 354.477 345.215 364.569C334.473 374.66 322.266 384.914 308.594 395.33C294.922 405.747 279.948 415.187 263.672 423.651ZM173.828 403.143C179.687 399.888 187.012 393.54 195.801 384.1C204.59 374.66 213.867 363.917 223.633 351.873C233.398 339.829 243.164 327.134 252.93 313.787C262.695 300.441 271.647 287.908 279.785 276.19C287.923 264.471 294.434 254.217 299.316 245.428C304.199 236.639 306.641 230.942 306.641 228.338C306.641 224.432 303.711 219.386 297.851 213.201C291.992 207.016 283.691 200.669 272.949 194.158C262.207 187.648 249.186 181.3 233.887 175.115C218.587 168.931 201.823 163.559 183.594 159.002L173.828 403.143Z" fill="#ab47bc" fill-rule="nonzero" opacity="1" stroke="none"/>
<path d="M506.836 743.963C502.279 745.265 497.07 743.638 491.211 739.08C485.351 734.523 479.655 728.826 474.121 721.99C468.587 715.154 463.867 707.83 459.961 700.018C456.055 692.205 453.45 685.695 452.148 680.487C447.591 623.195 443.848 571.925 440.918 526.678C437.988 481.431 435.547 441.229 433.594 406.072C431.641 370.916 430.176 340.48 429.199 314.764C428.223 289.048 427.734 267.075 427.734 248.846C427.083 206.528 427.734 177.231 429.687 160.955C431.641 149.237 437.012 137.518 445.801 125.799C454.59 114.08 464.03 103.989 474.121 95.5256C484.212 87.062 493.652 80.5516 502.441 75.9943C511.23 71.437 516.927 70.1349 519.531 72.0881C522.135 74.0412 524.088 84.9461 525.39 104.803C526.693 124.66 527.669 150.539 528.32 182.44C528.971 214.341 529.134 250.148 528.808 289.862C528.483 329.575 527.832 370.265 526.855 411.932C525.879 453.598 524.739 494.289 523.437 534.002C522.135 573.716 520.508 609.035 518.555 639.959C516.601 670.884 514.648 695.786 512.695 714.666C510.742 733.546 508.789 743.312 506.836 743.963Z" fill="#c62828" fill-rule="nonzero" opacity="1" stroke="none"/>
<path d="M856.445 236.151C860.351 240.708 863.932 245.428 867.187 250.311C870.442 255.194 873.372 261.704 875.976 269.842C878.58 277.98 880.696 288.559 882.324 301.58C883.952 314.601 884.765 331.528 884.765 352.362C884.765 385.565 883.952 418.931 882.324 452.459C880.696 485.988 879.232 515.447 877.929 540.838C877.278 563.625 876.627 584.783 875.976 604.315C875.325 623.846 874.674 640.936 874.023 655.584C873.372 670.233 872.558 681.789 871.582 690.252C870.605 698.716 869.791 703.273 869.14 703.924C866.536 705.877 862.467 705.063 856.933 701.483C851.399 697.902 845.54 693.182 839.355 687.322C833.17 681.463 827.474 675.278 822.265 668.768C817.057 662.257 813.802 657.049 812.5 653.143C812.5 649.888 811.523 640.447 809.57 624.822C793.945 633.937 776.692 640.285 757.812 643.865C738.932 647.446 720.215 648.748 701.66 647.772C683.105 646.795 666.015 643.377 650.39 637.518C634.765 631.658 623.047 623.846 615.234 614.08C611.979 610.174 609.212 604.315 606.933 596.502C604.655 588.69 602.702 579.738 601.074 569.647C599.446 559.556 597.982 548.813 596.68 537.42C595.377 526.027 594.401 515.447 593.75 505.682C592.448 480.291 595.703 458.319 603.515 439.764C611.328 421.209 625.651 407.375 646.484 398.26C655.599 394.354 667.806 392.238 683.105 391.912C698.405 391.587 713.704 392.238 729.004 393.865C744.303 395.493 758.138 397.446 770.508 399.725C782.877 402.003 790.69 403.794 793.945 405.096C791.341 371.893 789.388 343.084 788.086 318.67C786.784 294.256 784.179 278.468 780.273 271.307C777.018 266.75 773.112 262.192 768.554 257.635C764.648 254.38 759.44 250.799 752.929 246.893C746.419 242.987 738.607 240.057 729.492 238.104C722.331 236.802 715.82 239.731 709.961 246.893C704.752 253.403 700.032 264.959 695.801 281.561C691.569 298.162 689.127 323.39 688.476 357.244C665.69 357.895 648.275 357.733 636.23 356.756C624.186 355.779 615.234 354.64 609.375 353.338C602.213 352.036 597.982 350.408 596.68 348.455C595.377 345.851 596.028 336.248 598.633 319.647C601.237 303.045 604.98 284.979 609.863 265.447C614.746 245.916 620.605 227.362 627.441 209.783C634.277 192.205 641.601 181.138 649.414 176.58C665.039 167.466 683.756 164.21 705.566 166.815C727.376 169.419 748.698 174.953 769.531 183.416C790.364 191.88 808.919 201.32 825.195 211.737C841.471 222.153 851.888 230.291 856.445 236.151ZM795.898 521.307C795.898 518.052 796.224 513.657 796.875 508.123C797.526 502.589 797.851 496.893 797.851 491.033C797.851 485.174 797.689 479.64 797.363 474.432C797.038 469.223 796.224 465.317 794.922 462.713C792.969 458.807 787.272 455.552 777.832 452.947C768.392 450.343 757.812 448.553 746.094 447.576C734.375 446.6 723.307 446.274 712.89 446.6C702.474 446.925 695.312 448.39 691.406 450.994C686.198 454.25 682.454 458.807 680.176 464.666C677.897 470.526 676.432 479.64 675.781 492.01C675.781 497.869 676.107 504.054 676.758 510.565C677.409 517.075 678.222 523.423 679.199 529.608C680.176 535.792 681.478 541.164 683.105 545.721C684.733 550.278 686.523 553.208 688.476 554.51C693.034 557.765 701.009 560.532 712.402 562.811C723.795 565.089 735.351 565.74 747.07 564.764C758.789 563.787 769.531 560.044 779.297 553.533C789.062 547.023 794.596 536.281 795.898 521.307Z" fill="#3f51b5" fill-rule="nonzero" opacity="1" stroke="none"/>
<path d="M1170.9 202.947C1172.85 204.25 1174.48 212.713 1175.78 228.338C1177.08 243.963 1178.22 264.308 1179.2 289.373C1180.18 314.438 1180.66 342.921 1180.66 374.822C1180.66 406.723 1180.66 439.601 1180.66 473.455C1180.66 507.309 1180.5 540.675 1180.18 573.553C1179.85 606.431 1179.2 636.378 1178.22 663.397C1177.25 690.415 1176.27 713.364 1175.29 732.244C1174.32 751.125 1173.18 763.169 1171.87 768.377C1170.57 772.283 1166.83 778.306 1160.64 786.444C1154.46 794.582 1147.14 802.882 1138.67 811.346C1130.21 819.809 1121.58 827.459 1112.79 834.295C1104 841.131 1096.68 845.526 1090.82 847.479C1079.1 851.385 1066.08 850.734 1051.76 845.526C1037.43 840.317 1023.93 833.481 1011.23 825.018C998.535 816.554 987.467 807.602 978.027 798.162C968.587 788.722 962.89 782.049 960.937 778.143C958.984 774.237 957.194 768.54 955.566 761.053C953.939 753.566 952.799 746.079 952.148 738.592C951.497 731.105 951.66 724.595 952.636 719.061C953.613 713.527 955.729 710.76 958.984 710.76C961.588 710.76 968.587 713.69 979.98 719.549C991.373 725.408 1003.58 731.431 1016.6 737.615C1029.62 743.8 1041.67 748.846 1052.73 752.752C1063.8 756.658 1070.64 756.333 1073.24 751.776C1075.85 746.567 1078.45 732.407 1081.05 709.295C1083.66 686.183 1086.26 658.026 1088.87 624.822C1066.08 632.635 1045.41 637.681 1026.86 639.959C1008.3 642.238 992.838 639.145 980.468 630.682C974.609 626.776 968.587 619.94 962.402 610.174C956.217 600.408 950.683 589.178 945.801 576.483C940.918 563.787 936.849 550.115 933.593 535.467C930.338 520.819 928.711 506.984 928.711 493.963C928.711 484.848 929.85 471.828 932.129 454.901C934.407 437.973 937.5 419.419 941.406 399.237C945.312 379.054 949.381 358.221 953.613 336.737C957.845 315.252 962.077 295.721 966.308 278.143C970.54 260.565 974.121 245.753 977.05 233.709C979.98 221.665 981.771 214.992 982.422 213.69C983.724 211.737 986.979 210.597 992.187 210.272C997.396 209.946 1002.93 210.272 1008.79 211.248C1014.65 212.225 1020.18 214.015 1025.39 216.619C1030.6 219.223 1033.85 222.153 1035.16 225.408C1035.81 228.013 1035.97 236.151 1035.64 249.822C1035.32 263.494 1034.34 279.77 1032.71 298.651C1031.09 317.531 1029.46 337.876 1027.83 359.686C1026.2 381.496 1024.58 402.003 1022.95 421.209C1021.32 440.415 1019.86 456.854 1018.55 470.526C1017.25 484.197 1016.6 492.335 1016.6 494.94C1016.6 505.356 1017.74 515.285 1020.02 524.725C1022.3 534.165 1025.23 542.303 1028.81 549.139C1032.39 555.975 1036.13 561.346 1040.04 565.252C1043.95 569.158 1047.53 570.46 1050.78 569.158C1061.85 567.205 1071.94 564.601 1081.05 561.346C1085.61 559.393 1089.84 557.44 1093.75 555.487C1095.7 523.585 1097.66 490.871 1099.61 457.342C1101.56 423.813 1103.19 393.052 1104.49 365.057C1105.79 337.062 1106.93 313.299 1107.91 293.768C1108.89 274.237 1109.37 261.867 1109.37 256.658C1109.37 250.799 1111.98 244.126 1117.19 236.639C1122.4 229.152 1128.25 222.479 1134.77 216.619C1141.28 210.76 1147.95 206.365 1154.78 203.436C1161.62 200.506 1166.99 200.343 1170.9 202.947Z" fill="#4caf50" fill-rule="nonzero" opacity="1" stroke="none"/>
<path d="M1495.12 781.072C1493.81 784.979 1489.91 791.164 1483.4 799.627C1476.89 808.091 1469.08 816.88 1459.96 825.994C1450.85 835.109 1441.73 843.247 1432.62 850.408C1423.5 857.57 1416.02 862.127 1410.16 864.08C1397.14 867.987 1383.3 867.173 1368.65 861.639C1354 856.105 1340.01 848.781 1326.66 839.666C1313.31 830.552 1301.76 821.274 1291.99 811.834C1282.23 802.394 1276.04 795.395 1273.44 790.838C1271.48 786.281 1269.69 780.096 1268.07 772.283C1266.44 764.471 1265.3 756.658 1264.65 748.846C1264 741.033 1264.16 734.36 1265.14 728.826C1266.11 723.292 1268.23 720.526 1271.48 720.526C1274.74 720.526 1282.39 723.618 1294.43 729.803C1306.48 735.988 1319.17 742.335 1332.52 748.846C1345.87 755.356 1358.4 760.565 1370.12 764.471C1381.84 768.377 1389 767.726 1391.6 762.518C1394.21 757.96 1396.65 745.102 1398.93 723.944C1401.2 702.785 1403.97 676.906 1407.23 646.307C1405.92 646.307 1404.78 646.47 1403.81 646.795C1402.83 647.121 1401.69 647.283 1400.39 647.283C1394.53 649.237 1386.39 650.213 1375.98 650.213C1365.56 650.213 1354.65 649.562 1343.26 648.26C1331.87 646.958 1320.8 644.516 1310.06 640.936C1299.32 637.355 1290.69 632.635 1284.18 626.776C1281.58 624.171 1278.81 620.102 1275.88 614.569C1272.95 609.035 1270.83 601.71 1269.53 592.596C1267.58 588.69 1264.32 577.459 1259.77 558.904C1255.21 540.35 1250.65 519.191 1246.09 495.428C1241.54 471.665 1237.47 447.739 1233.89 423.651C1230.31 399.562 1229.17 380.356 1230.47 366.033C1231.12 351.71 1233.72 336.899 1238.28 321.6C1242.84 306.3 1248.21 291.815 1254.39 278.143C1260.58 264.471 1267.25 252.589 1274.41 242.498C1281.58 232.407 1288.74 225.408 1295.9 221.502C1311.52 213.69 1331.05 212.062 1354.49 216.619C1377.93 221.177 1402.99 229.966 1429.69 242.987C1430.34 236.476 1433.27 229.315 1438.48 221.502C1443.68 213.69 1449.71 206.691 1456.54 200.506C1463.38 194.321 1470.38 189.764 1477.54 186.834C1484.7 183.904 1490.23 183.742 1494.14 186.346C1496.09 187.648 1497.72 196.6 1499.02 213.201C1500.33 229.803 1501.46 251.287 1502.44 277.654C1503.42 304.022 1504.07 333.97 1504.39 367.498C1504.72 401.027 1504.72 435.532 1504.39 471.014C1504.07 506.496 1503.74 541.489 1503.42 575.994C1503.09 610.5 1502.44 642.075 1501.46 670.721C1500.49 699.367 1499.51 723.455 1498.53 742.987C1497.56 762.518 1496.42 775.213 1495.12 781.072ZM1426.76 317.205C1422.85 314.601 1418.29 311.997 1413.09 309.393C1408.53 306.789 1403.32 304.184 1397.46 301.58C1391.6 298.976 1385.09 296.697 1377.93 294.744C1374.67 293.442 1370.28 294.744 1364.75 298.651C1359.21 302.557 1353.68 308.091 1348.14 315.252C1342.61 322.414 1337.89 331.04 1333.98 341.131C1330.08 351.222 1328.12 361.802 1328.12 372.869C1328.12 374.171 1328.45 380.356 1329.1 391.424C1329.75 402.492 1330.73 415.838 1332.03 431.463C1333.33 447.088 1334.64 464.015 1335.94 482.244C1337.24 500.473 1338.7 517.401 1340.33 533.026C1341.96 548.651 1343.42 561.834 1344.73 572.576C1346.03 583.319 1347 589.015 1347.66 589.666C1350.26 592.27 1354 593.572 1358.89 593.572C1363.77 593.572 1368.65 592.921 1373.53 591.619C1378.42 590.317 1382.81 588.69 1386.72 586.737C1390.62 584.783 1393.55 583.156 1395.51 581.854C1403.97 575.994 1409.18 564.601 1411.13 547.674C1412.43 546.372 1413.09 542.791 1413.09 536.932C1415.04 493.963 1416.99 455.063 1418.94 420.233C1420.9 385.402 1423.5 351.059 1426.76 317.205Z" fill="#ff9800" fill-rule="nonzero" opacity="1" stroke="none"/>
<path d="M1775.39 217.596C1780.6 220.851 1785.64 227.199 1790.53 236.639C1795.41 246.079 1799.97 256.821 1804.2 268.865C1808.43 280.91 1812.01 293.768 1814.94 307.44C1817.87 321.112 1820.47 333.807 1822.75 345.526C1825.03 357.244 1826.5 367.173 1827.15 375.311C1827.8 383.449 1827.8 388.494 1827.15 390.447C1825.85 393.052 1821.94 395.656 1815.43 398.26C1809.57 400.864 1800.78 403.794 1789.06 407.049C1777.34 410.304 1761.07 413.885 1740.23 417.791C1738.93 381.984 1736.33 354.803 1732.42 336.248C1728.52 317.694 1724.28 304.51 1719.73 296.697C1714.52 287.583 1708.98 283.026 1703.12 283.026C1697.27 285.63 1692.06 288.722 1687.5 292.303C1682.94 295.884 1679.04 299.627 1675.78 303.533C1671.87 308.091 1668.29 312.973 1665.04 318.182C1663.74 320.135 1662.43 324.692 1661.13 331.854C1659.83 339.015 1658.53 349.757 1657.23 364.08C1657.23 368.638 1657.06 378.078 1656.74 392.401C1656.41 406.723 1656.09 423.325 1655.76 442.205C1655.44 461.085 1655.11 480.942 1654.78 501.776C1654.46 522.609 1654.13 541.977 1653.81 559.881C1653.48 577.785 1653.16 592.921 1652.83 605.291C1652.51 617.661 1652.02 624.822 1651.37 626.776C1650.06 630.031 1646.81 634.588 1641.6 640.447C1636.39 646.307 1630.53 651.678 1624.02 656.561C1617.51 661.444 1611.33 665.35 1605.47 668.279C1599.61 671.209 1595.7 671.046 1593.75 667.791C1591.8 665.838 1589.84 657.375 1587.89 642.401C1585.94 627.427 1583.82 609.035 1581.54 587.225C1579.26 565.415 1576.82 541.489 1574.22 515.447C1571.61 489.406 1569.34 464.341 1567.38 440.252C1565.43 416.164 1563.8 394.516 1562.5 375.311C1561.2 356.105 1560.22 342.27 1559.57 333.807C1558.92 321.437 1558.27 307.765 1557.62 292.791C1556.97 277.817 1556.48 263.657 1556.15 250.311C1555.83 236.964 1555.83 225.246 1556.15 215.154C1556.48 205.063 1557.62 199.041 1559.57 197.088C1560.87 195.135 1565.27 194.647 1572.75 195.623C1580.24 196.6 1588.38 198.553 1597.17 201.483C1605.96 204.412 1614.26 208.156 1622.07 212.713C1629.88 217.27 1635.09 221.502 1637.69 225.408C1639.65 228.664 1641.6 233.546 1643.55 240.057C1655.92 233.546 1667.81 227.524 1679.2 221.99C1690.59 216.457 1701.66 212.388 1712.4 209.783C1723.14 207.179 1733.72 206.365 1744.14 207.342C1754.56 208.319 1764.97 211.737 1775.39 217.596Z" fill="#ab47bc" fill-rule="nonzero" opacity="1" stroke="none"/>
<path d="M2071.29 215.643C2075.85 219.549 2080.24 227.036 2084.47 238.104C2088.7 249.171 2092.45 262.518 2095.7 278.143C2098.96 293.768 2101.89 310.695 2104.49 328.924C2107.1 347.153 2109.37 365.057 2111.33 382.635C2113.28 400.213 2114.75 416.652 2115.72 431.951C2116.7 447.251 2117.51 459.783 2118.16 469.549C2118.81 481.268 2119.3 493.475 2119.63 506.17C2119.95 518.865 2119.95 530.91 2119.63 542.303C2119.3 553.696 2118.65 563.95 2117.68 573.065C2116.7 582.179 2115.23 589.015 2113.28 593.572C2109.37 603.338 2102.7 610.011 2093.26 613.592C2083.82 617.173 2073.24 619.614 2061.52 620.916C2055.66 621.567 2045.74 621.73 2031.74 621.404C2017.74 621.079 2002.77 620.428 1986.82 619.451C1970.87 618.475 1955.73 617.335 1941.41 616.033C1927.08 614.731 1916.34 613.429 1909.18 612.127C1894.86 608.872 1884.6 604.64 1878.42 599.432C1872.23 594.223 1866.21 586.737 1860.35 576.971C1858.4 573.065 1856.77 563.136 1855.47 547.186C1854.17 531.235 1853.35 512.029 1853.03 489.569C1852.7 467.108 1852.86 442.856 1853.52 416.815C1854.17 390.773 1855.31 366.033 1856.93 342.596C1858.56 319.158 1860.51 298.651 1862.79 281.072C1865.07 263.494 1868.16 251.776 1872.07 245.916C1878.58 236.802 1889.81 228.338 1905.76 220.526C1921.71 212.713 1936.2 206.528 1949.22 201.971C1955.73 200.018 1964.35 198.553 1975.1 197.576C1985.84 196.6 1997.23 196.6 2009.28 197.576C2021.32 198.553 2032.88 200.506 2043.94 203.436C2055.01 206.365 2064.13 210.434 2071.29 215.643ZM2016.6 518.377C2017.9 515.773 2019.37 507.798 2021 494.451C2022.62 481.105 2023.93 464.992 2024.9 446.112C2025.88 427.231 2026.53 407.049 2026.85 385.565C2027.18 364.08 2027.34 344.223 2027.34 325.994C2027.34 307.765 2026.69 292.303 2025.39 279.608C2024.09 266.912 2022.46 259.588 2020.51 257.635C2017.25 255.031 2012.53 253.891 2006.35 254.217C2000.16 254.542 1993.81 255.519 1987.3 257.147C1980.79 258.774 1974.93 260.727 1969.73 263.006C1964.52 265.285 1960.94 267.401 1958.98 269.354C1950.52 276.515 1945.96 288.234 1945.31 304.51C1945.31 309.067 1944.82 321.925 1943.85 343.084C1942.87 364.243 1942.38 387.029 1942.38 411.444C1942.38 435.858 1942.87 458.481 1943.85 479.315C1944.82 500.148 1946.94 512.843 1950.19 517.401C1953.45 521.958 1958.17 525.376 1964.35 527.654C1970.54 529.933 1977.05 531.072 1983.89 531.072C1990.72 531.072 1997.23 529.933 2003.42 527.654C2009.6 525.376 2014 522.283 2016.6 518.377Z" fill="#c62828" fill-rule="nonzero" opacity="1" stroke="none"/>
<path d="M2388.67 227.362C2389.97 229.315 2391.93 238.429 2394.53 254.705C2397.13 270.981 2399.9 291.164 2402.83 315.252C2405.76 339.341 2408.69 365.382 2411.62 393.377C2414.55 421.372 2417.48 448.065 2420.41 473.455C2423.34 498.846 2425.78 521.632 2427.73 541.815C2429.69 561.997 2431.31 575.669 2432.62 582.83C2434.57 594.549 2436.85 607.407 2439.45 621.404C2442.06 635.402 2444.34 648.748 2446.29 661.444C2448.24 674.139 2449.71 685.044 2450.68 694.158C2451.66 703.273 2451.17 708.807 2449.22 710.76C2447.92 712.713 2442.71 713.201 2433.59 712.225C2424.48 711.248 2414.55 709.295 2403.81 706.365C2393.07 703.436 2382.97 699.855 2373.53 695.623C2364.09 691.391 2358.07 687.322 2355.47 683.416C2352.86 680.161 2350.42 675.278 2348.14 668.768C2345.87 662.257 2343.1 650.864 2339.84 634.588C2332.68 644.354 2325.03 654.608 2316.89 665.35C2308.76 676.092 2300.78 685.858 2292.97 694.647C2285.16 703.436 2277.99 710.434 2271.48 715.643C2264.97 720.851 2260.09 723.455 2256.84 723.455C2251.63 723.455 2243.81 718.084 2233.4 707.342C2222.98 696.6 2212.56 684.393 2202.15 670.721C2191.73 657.049 2182.29 644.028 2173.83 631.658C2165.36 619.289 2160.81 611.151 2160.16 607.244C2158.85 603.338 2158.37 592.596 2158.69 575.018C2159.02 557.44 2159.67 537.746 2160.64 515.936C2161.62 494.126 2162.76 472.316 2164.06 450.506C2165.36 428.696 2166.67 411.281 2167.97 398.26C2169.27 385.239 2170.74 370.753 2172.36 354.803C2173.99 338.852 2175.78 323.878 2177.73 309.881C2179.69 295.884 2181.48 283.677 2183.1 273.26C2184.73 262.843 2186.2 256.658 2187.5 254.705C2188.8 252.752 2192.54 251.613 2198.73 251.287C2204.91 250.962 2211.43 251.287 2218.26 252.264C2225.1 253.24 2231.44 254.868 2237.3 257.147C2243.16 259.425 2247.07 262.192 2249.02 265.447C2250.32 268.052 2251.14 276.352 2251.46 290.35C2251.79 304.347 2251.95 321.274 2251.95 341.131C2251.95 360.988 2251.95 382.472 2251.95 405.584C2251.95 428.696 2251.79 450.181 2251.46 470.037C2251.14 489.894 2250.81 506.821 2250.49 520.819C2250.16 534.816 2250 543.117 2250 545.721C2250 550.929 2253.09 561.02 2259.28 575.994C2265.46 590.968 2271.81 605.291 2278.32 618.963L2329.1 558.416C2328.45 546.697 2327.96 531.723 2327.64 513.494C2327.31 495.265 2326.82 476.059 2326.17 455.877C2325.52 435.695 2324.87 415.187 2324.22 394.354C2323.57 373.52 2323.24 354.64 2323.24 337.713C2323.24 320.786 2323.24 306.789 2323.24 295.721C2323.24 284.653 2323.57 278.143 2324.22 276.19C2326.17 272.283 2330.08 267.075 2335.94 260.565C2341.8 254.054 2348.31 247.869 2355.47 242.01C2362.63 236.151 2369.3 231.593 2375.49 228.338C2381.67 225.083 2386.07 224.757 2388.67 227.362Z" fill="#3f51b5" fill-rule="nonzero" opacity="1" stroke="none"/>
<path d="M2766.6 340.643C2766.6 351.059 2765.46 366.033 2763.18 385.565C2760.9 405.096 2757.81 426.417 2753.91 449.529C2750 472.641 2745.93 496.404 2741.7 520.819C2737.47 545.233 2733.23 567.531 2729 587.713C2724.77 607.895 2721.19 624.822 2718.26 638.494C2715.33 652.166 2713.54 659.653 2712.89 660.955C2711.59 662.908 2708.17 664.048 2702.64 664.373C2697.1 664.699 2690.92 664.21 2684.08 662.908C2677.25 661.606 2671.06 659.653 2665.53 657.049C2659.99 654.445 2656.57 651.19 2655.27 647.283C2654.62 644.679 2654.46 635.565 2654.78 619.94C2655.11 604.315 2655.76 585.597 2656.74 563.787C2657.71 541.977 2658.85 518.54 2660.16 493.475C2661.46 468.41 2662.92 444.972 2664.55 423.162C2666.18 401.352 2667.48 382.635 2668.46 367.01C2669.43 351.385 2669.92 341.945 2669.92 338.69C2669.92 326.971 2668.78 315.74 2666.5 304.998C2664.22 294.256 2661.46 284.979 2658.2 277.166C2654.95 269.354 2651.2 263.332 2646.97 259.1C2642.74 254.868 2639 253.403 2635.74 254.705C2627.28 256.007 2620.12 258.123 2614.26 261.053C2608.4 263.983 2603.51 267.075 2599.61 270.33C2595.05 274.237 2591.47 278.794 2588.87 284.002C2588.22 285.304 2587.08 289.21 2585.45 295.721C2583.82 302.231 2583.01 309.718 2583.01 318.182C2583.01 320.786 2583.01 330.063 2583.01 346.014C2583.01 361.964 2582.84 381.007 2582.52 403.143C2582.19 425.278 2581.87 449.204 2581.54 474.92C2581.22 500.636 2580.89 524.399 2580.57 546.209C2580.24 568.019 2579.75 586.737 2579.1 602.362C2578.45 617.987 2577.8 626.776 2577.15 628.729C2575.85 632.635 2572.59 638.006 2567.38 644.842C2562.17 651.678 2556.31 658.026 2549.8 663.885C2543.29 669.744 2537.11 674.139 2531.25 677.069C2525.39 679.998 2521.48 679.51 2519.53 675.604C2517.58 673.651 2515.62 664.048 2513.67 646.795C2511.72 629.542 2509.6 608.384 2507.32 583.319C2505.04 558.253 2502.6 530.91 2500 501.287C2497.4 471.665 2495.12 443.182 2493.16 415.838C2491.21 388.494 2489.58 363.755 2488.28 341.619C2486.98 319.484 2486 303.533 2485.35 293.768C2484.7 280.096 2484.05 264.634 2483.4 247.381C2482.75 230.128 2482.26 213.852 2481.93 198.553C2481.61 183.253 2481.61 169.907 2481.93 158.514C2482.26 147.121 2483.4 140.122 2485.35 137.518C2486.65 134.914 2491.05 134.263 2498.53 135.565C2506.02 136.867 2514.16 139.308 2522.95 142.889C2531.74 146.47 2540.04 150.701 2547.85 155.584C2555.66 160.467 2560.87 165.187 2563.48 169.744C2564.78 173.651 2566.41 178.045 2568.36 182.928C2570.31 187.811 2571.94 195.786 2573.24 206.854C2584.31 200.343 2596.35 194.321 2609.37 188.787C2622.4 183.253 2635.25 179.022 2647.95 176.092C2660.64 173.162 2672.85 172.186 2684.57 173.162C2696.29 174.139 2706.7 177.557 2715.82 183.416C2721.68 187.973 2727.7 195.786 2733.89 206.854C2740.07 217.921 2745.6 230.942 2750.49 245.916C2755.37 260.89 2759.28 276.678 2762.21 293.279C2765.14 309.881 2766.6 325.669 2766.6 340.643Z" fill="#ab47bc" fill-rule="nonzero" opacity="1" stroke="none"/>
<path d="M3097.66 103.338C3099.61 118.963 3100.26 150.213 3099.61 197.088C3099.61 217.27 3099.12 241.684 3098.14 270.33C3097.17 298.976 3095.7 333.319 3093.75 373.358C3091.8 413.397 3089.35 459.621 3086.42 512.029C3083.5 564.438 3079.75 623.846 3075.19 690.252C3073.89 696.763 3071.13 703.924 3066.89 711.737C3062.66 719.549 3057.94 726.71 3052.73 733.221C3047.53 739.731 3041.99 745.102 3036.13 749.334C3030.27 753.566 3025.06 755.031 3020.51 753.729C3019.2 753.078 3017.74 747.869 3016.11 738.104C3014.48 728.338 3013.02 714.666 3011.72 697.088C2982.42 710.109 2954.75 718.898 2928.71 723.455C2902.67 728.013 2881.51 725.083 2865.23 714.666C2858.72 710.76 2852.38 703.761 2846.19 693.67C2840.01 683.579 2834.31 671.697 2829.1 658.026C2823.89 644.354 2819.66 629.868 2816.41 614.569C2813.15 599.269 2811.52 584.783 2811.52 571.112C2811.52 561.346 2812.17 548.325 2813.48 532.049C2814.78 515.773 2816.41 498.032 2818.36 478.826C2820.31 459.621 2822.59 440.089 2825.19 420.233C2827.8 400.376 2830.4 381.984 2833.01 365.057C2835.61 348.13 2837.89 333.807 2839.84 322.088C2841.8 310.369 2843.42 303.208 2844.73 300.604C2846.03 292.791 2848.47 286.281 2852.05 281.072C2855.63 275.864 2858.72 271.958 2861.33 269.354C2867.84 264.145 2877.44 260.239 2890.14 257.635C2902.83 255.031 2916.18 253.403 2930.17 252.752C2944.17 252.101 2957.36 252.264 2969.73 253.24C2982.1 254.217 2991.21 255.682 2997.07 257.635L2999.02 257.635C2997.72 176.906 2997.72 114.731 2999.02 71.1115C3000.32 27.4917 3002.93 4.05421 3006.84 0.799006C3009.44-1.15412 3015.3 0.473485 3024.41 5.68182C3033.53 10.8902 3043.13 18.3771 3053.22 28.1428C3063.31 37.9084 3072.75 49.4644 3081.54 62.8107C3090.33 76.1571 3095.7 89.6662 3097.66 103.338ZM2949.22 650.213C2958.33 648.26 2966.63 645.819 2974.12 642.889C2981.61 639.959 2987.95 637.192 2993.16 634.588C2999.02 631.984 3003.91 628.729 3007.81 624.822C3007.16 607.895 3006.51 588.852 3005.86 567.694C3005.21 546.535 3004.56 524.562 3003.91 501.776C3003.25 478.989 3002.6 455.714 3001.95 431.951C3001.3 408.188 3000.65 385.239 3000 363.104C3000 355.942 2998.86 349.757 2996.58 344.549C2994.3 339.341 2991.54 335.109 2988.28 331.854C2986.33 330.552 2982.42 328.761 2976.56 326.483C2970.7 324.204 2964.03 322.251 2956.54 320.623C2949.06 318.996 2941.89 318.182 2935.06 318.182C2928.22 318.182 2923.5 319.484 2920.9 322.088C2919.6 322.739 2918.46 329.087 2917.48 341.131C2916.5 353.175 2915.53 368.149 2914.55 386.053C2913.57 403.957 2912.6 423.325 2911.62 444.158C2910.64 464.992 2909.83 484.523 2909.18 502.752C2908.53 520.981 2907.88 536.606 2907.23 549.627C2906.57 562.648 2906.25 569.809 2906.25 571.112C2906.25 582.179 2907.71 592.596 2910.64 602.362C2913.57 612.127 2917.32 620.753 2921.87 628.24C2926.43 635.727 2931.31 641.587 2936.52 645.819C2941.73 650.05 2945.96 651.515 2949.22 650.213Z" fill="#ff9800" fill-rule="nonzero" opacity="1" stroke="none"/>
<path d="M3436.52 269.354C3437.17 276.515 3436.03 287.583 3433.1 302.557C3430.17 317.531 3425.94 332.505 3420.41 347.479C3414.88 362.453 3407.71 375.473 3398.92 386.541C3390.14 397.609 3380.21 403.143 3369.14 403.143C3361.33 403.143 3354.98 396.958 3350.1 384.588C3345.21 372.218 3341.63 357.733 3339.35 341.131C3337.08 324.529 3335.29 308.091 3333.98 291.815C3332.68 275.539 3331.38 264.145 3330.08 257.635C3328.12 254.38 3324.38 251.287 3318.85 248.358C3313.31 245.428 3307.94 243.963 3302.73 243.963C3297.53 243.963 3291.67 248.195 3285.16 256.658C3278.64 265.122 3272.3 274.888 3266.11 285.955C3259.93 297.023 3254.72 308.091 3250.49 319.158C3246.26 330.226 3244.47 338.364 3245.12 343.572C3245.12 347.479 3249.35 354.315 3257.81 364.08C3266.28 373.846 3276.85 385.402 3289.55 398.748C3302.25 412.095 3315.92 426.417 3330.57 441.717C3345.21 457.016 3358.72 472.316 3371.09 487.615C3383.46 502.915 3394.04 517.401 3402.83 531.072C3411.62 544.744 3416.34 556.463 3416.99 566.229C3417.64 577.947 3414.55 592.921 3407.71 611.151C3400.88 629.38 3392.25 646.958 3381.83 663.885C3371.42 680.812 3360.35 695.46 3348.63 707.83C3336.91 720.2 3326.5 726.71 3317.38 727.362C3308.27 728.013 3295.08 722.967 3277.83 712.225C3260.58 701.483 3243.33 688.787 3226.07 674.139C3208.82 659.49 3193.52 645.005 3180.17 630.682C3166.83 616.359 3159.18 605.942 3157.23 599.432C3155.27 593.572 3154.13 585.76 3153.81 575.994C3153.48 566.229 3153.81 556.463 3154.78 546.697C3155.76 536.932 3157.55 528.631 3160.16 521.795C3162.76 514.959 3166.01 511.541 3169.92 511.541C3173.83 511.541 3181.64 518.214 3193.36 531.561C3205.08 544.907 3217.77 559.881 3231.44 576.483C3245.12 593.084 3258.46 608.058 3271.48 621.404C3284.5 634.751 3293.94 641.424 3299.8 641.424C3303.06 641.424 3306.64 638.983 3310.55 634.1C3314.45 629.217 3318.03 623.52 3321.29 617.01C3324.54 610.5 3327.31 603.826 3329.59 596.99C3331.87 590.154 3333.01 584.783 3333.01 580.877C3332.36 575.018 3327.15 566.554 3317.38 555.487C3307.62 544.419 3295.25 532.049 3280.27 518.377C3265.3 504.705 3249.02 490.22 3231.44 474.92C3213.87 459.621 3197.59 445.135 3182.62 431.463C3167.64 417.791 3155.27 405.421 3145.51 394.354C3135.74 383.286 3130.53 374.822 3129.88 368.963C3129.23 363.104 3131.18 353.826 3135.74 341.131C3140.3 328.436 3146.16 314.438 3153.32 299.139C3160.48 283.839 3168.78 268.052 3178.22 251.776C3187.66 235.5 3197.26 220.526 3207.03 206.854C3216.8 193.182 3226.4 181.951 3235.84 173.162C3245.28 164.373 3253.58 159.979 3260.74 159.979C3275.06 159.979 3292.15 163.885 3312.01 171.697C3331.87 179.51 3350.91 189.113 3369.14 200.506C3387.37 211.899 3402.99 223.781 3416.01 236.151C3429.04 248.52 3435.87 259.588 3436.52 269.354Z" fill="#c62828" fill-rule="nonzero" opacity="1" stroke="none"/>
</g>
</g>
</svg>
