<?xml version="1.0" encoding="UTF-8" standalone="no"?>
<!DOCTYPE svg PUBLIC "-//W3C//DTD SVG 1.1//EN" "http://www.w3.org/Graphics/SVG/1.1/DTD/svg11.dtd">
<!-- Created with Vectornator (http://vectornator.io/) -->
<svg height="100%" stroke-miterlimit="10" style="fill-rule:nonzero;clip-rule:evenodd;stroke-linecap:round;stroke-linejoin:round;" version="1.1" viewBox="0 0 9083 1098.99" width="100%" xml:space="preserve" xmlns="http://www.w3.org/2000/svg" xmlns:vectornator="http://vectornator.io" xmlns:xlink="http://www.w3.org/1999/xlink">
<defs/>
<clipPath id="ArtboardFrame">
<rect height="1098.99" width="9083" x="0" y="0"/>
</clipPath>
<g clip-path="url(#ArtboardFrame)" id="Layer-1" vectornator:layerName="Layer 1">
<g opacity="1">
<path d="M646 723.998C648 702.998 650 682.999 650 662.999C650 652.999 644 640.999 644 630.999C644 623.999 653 610.999 660 610.999C662 611.999 664 612.999 666 612.999C668 612.999 669 610.999 669 606.999C668 601.999 667 596.999 667 592C667 561 690 532 690 494.001C690 481.001 685 469.001 685 455.001C685 440.001 691 410.002 691 395.002C691 383.002 679 359.002 679 340.002C679 335.002 681 331.002 681 326.002C681 318.003 679 311.003 679 304.003C679 282.003 694 279.003 694 245.003C694 232.004 693 214.004 681 214.004C660 214.004 638 236.003 638 254.003C638 274.003 641 295.003 641 314.003C641 334.002 634 359.002 634 373.002C634 378.002 638 384.002 638 390.002C638 394.002 636 400.002 635 405.002C640 413.002 641 421.001 641 430.001C641 437.001 640 445.001 640 452.001C640 458.001 641 464.001 641 469.001C641 481.001 631 491.001 631 502.001C630 515 626 526 626 539C626 543 627 546 627 550C627 556 624 563 624 569C624 573 627 577 627 581C627 583 623 586 619 586C618 586 617 585 616 585C604 585 606 593 606 599.999C606 634.999 590 668.999 590 706.998C590 721.998 589 737.998 574 745.998C550 758.998 541 831.997 528 836.997C515 854.997 494 902.996 474 902.996C447 902.996 429 840.997 428 839.997C412 816.997 416 786.997 401 762.998C396 754.998 386 725.998 386 727.998C386 724.998 387 720.998 387 717.998C387 701.998 383 685.998 381 669.999C373 597.999 380 433.001 330 433.001C260 433.001 222 524 197 565C173 603.999 150 643.999 136 688.998C132 699.998 122 721.998 112 721.998C94.0001 721.998 101 676.999 91.0001 668.999C81.0001 653.999 79.0001 582 79.0001 578C79.0001 569 76.0001 560 76.0001 551C76.0001 547 77.0001 543 77.0001 540C67.0001 532 66.0001 500.001 66.0001 497.001C66.0001 477.001 76.0001 456.001 76.0001 435.001C76.0001 430.001 76.0001 426.001 75.0001 421.001C76.0001 418.001 77.0001 415.001 77.0001 412.002C77.0001 406.002 75.0001 400.002 75.0001 394.002C75.0001 387.002 78.0001 380.002 78.0001 372.002C78.0001 365.002 77.0001 358.002 77.0001 351.002C82.0001 289.003 103 217.004 103 168.004C103 139.005 99.0001 119.005 58.0001 119.005C30.0001 119.005 31.0001 203.004 27.0001 226.004C26.0001 230.004 25.0001 233.004 25.0001 237.003C25.0001 240.003 26.0001 244.003 26.0001 247.003C26.0001 256.003 20.0001 264.003 20.0001 273.003C20.0001 344.002 0.0001 402.002 0.0001 446.001C0.0001 475.001 5.0001 502.001 5.0001 531C5.0001 546 4.0001 561 4.0001 576C4.0001 612.999 15.0001 653.999 23.0001 688.998C33.0001 696.998 33.0001 708.998 34.0001 718.998C34.0001 763.998 68.0001 802.997 96.0001 802.997C101 802.997 107 796.997 111 796.997C117 796.997 121 801.997 127 801.997C147 801.997 175 760.998 177 751.998C183 734.998 187 715.998 195 698.998C202 682.999 203 660.999 213 646.999C211 648.999 241 564 263 564C262 564 284 622.999 287 632.999C291 643.999 296 664.999 296 669.999C296 673.999 295 677.999 295 681.999C295 694.998 312 709.998 312 720.998C314 753.998 318 828.997 331 841.997C346 857.997 351 905.996 361 908.996C378 918.996 377 946.996 401 960.995C424 974.995 424 983.995 462 983.995C483 983.995 502 962.995 514 959.995C542 951.996 559 929.996 573 906.996C582 891.996 596 879.996 602 862.997C616 835.997 627 793.997 627 765.998C627 763.998 626 762.998 626 760.998C626 746.998 637 732.998 646 723.998ZM623 629.999C621 629.999 621 628.999 621 624.999C621 623.999 621 623.999 623 623.999L623 629.999ZM633 452.001C633 453.001 633 453.001 633 453.001C633 453.001 633 453.001 633 452.001C633 451.001 633 449.001 631 447.001C628 450.001 626 452.001 626 458.001C626 462.001 628 464.001 630 466.001C633 463.001 632 461.001 633 452.001ZM654 631.999C654 630.999 653 629.999 652 629.999C651 629.999 649 632.999 649 633.999C649 633.999 650 636.999 652 636.999C654 636.999 654 634.999 654 631.999Z" fill="#ffffff" fill-rule="nonzero" opacity="1" stroke="none"/>
<path d="M1292 460.001C1239 463.001 1191 484.001 1141 501.001C1138 502.001 1135 503.001 1132 503.001C1115 503.001 1112 482.001 1108 466.001C1097 429.001 1060 388.002 1032 378.002C1008 370.002 986 349.002 959 349.002C942 349.002 926 349.002 911 349.002C845 349.002 805 358.002 805 462.001C805 491.001 833 532 833 553C833 576 812 625.999 812 638.999C812 657.999 804 675.999 804 695.998C804 798.997 875 851.997 875 851.997C895 865.996 919 869.996 940 875.996C953 867.996 989 846.997 996 846.997C997 846.997 997 847.997 997 847.997C1068 776.997 1072 752.998 1086 734.998C1101 715.998 1084 684.998 1106 672.999C1110 668.999 1126 589 1126 583C1130 554 1137 548 1175 529C1204 515 1236 499.001 1270 496.001C1302 493.001 1312 484.001 1312 476.001C1312 467.001 1299 458.001 1294 458.001C1293 458.001 1292 459.001 1292 460.001ZM1071 607.999C1068 625.999 1070 653.999 1059 660.999C1041 672.999 1002 792.997 953 792.997C927 792.997 914 751.998 914 731.998C914 719.998 921 703.998 921 690.998C921 685.998 920 680.999 920 675.999C920 644.999 927 614.999 947 609.999C986 609.999 1022 594.999 1058 582C1073 582 1069 594.999 1071 607.999ZM926 383.002C995 383.002 1037 449.001 1062 503.001C1065 509 1065 515 1065 521C1065 544 1007 555 981 558C976 558 968 557 968 549C968 540 982 522 982 513C982 490.001 921 475.001 915 473.001C908 470.001 903 469.001 900 469.001C893 469.001 890 475.001 876 489.001C876 490.001 875 490.001 874 490.001C861 490.001 861 469.001 861 460.001C861 431.001 879 390.002 910 386.002C916 385.002 922 384.002 926 383.002Z" fill="#ffffff" fill-rule="nonzero" opacity="1" stroke="none"/>
<path d="M1251 631.999C1249 639.999 1245 652.999 1245 661.999C1245 666.999 1250 672.999 1250 678.999C1250 680.999 1249 681.999 1249 682.999C1236 698.998 1232 732.998 1232 751.998C1232 768.998 1236 782.997 1236 796.997C1236 806.997 1234 814.997 1234 823.997C1234 856.997 1243 890.996 1268 890.996C1306 890.996 1324 803.997 1323 805.997C1341 773.997 1340 736.998 1354 702.998C1383 633.999 1376 611.999 1393 587C1403 572 1408 555 1415 539C1434 492.001 1485 414.002 1525 390.002C1526 390.002 1526 389.002 1527 389.002C1542 389.002 1530 510 1572 510C1587 510 1582 480.001 1600 467.001C1629 446.001 1637 431.001 1637 393.002C1637 357.002 1622 303.003 1568 303.003C1534 303.003 1490 344.002 1486 360.002C1483 373.002 1455 398.002 1438 421.001C1439 412.002 1441 407.002 1441 401.002C1435 379.002 1432 343.002 1401 343.002C1390 343.002 1380 347.002 1369 347.002C1367 347.002 1364 346.002 1362 346.002C1354 346.002 1328 396.002 1323 408.002C1307 443.001 1281 482.001 1279 519C1279 530 1268 549 1268 566C1268 571 1268 575 1269 580C1261 588 1255 623.999 1243 625.999L1251 631.999ZM1379 548L1376 548L1378 545L1379 548Z" fill="#ffffff" fill-rule="nonzero" opacity="1" stroke="none"/>
<path d="M2020 312.003C2018 312.003 2015 309.003 2015 307.003C2015 300.003 2026 297.003 2031 297.003C2044 297.003 2052 298.003 2052 318.003C2052 348.002 2037 376.002 2037 406.002C2037 409.002 2038 410.002 2040 410.002C2041 410.002 2045 408.002 2047 408.002C2051 408.002 2051 417.001 2051 420.001C2051 435.001 2030 468.001 2027 471.001C2023 477.001 2022 480.001 2022 488.001C2022 494.001 2025 501.001 2025 507C2025 522 2015 541 2015 554C2015 560 2020 566 2020 573C2020 587 2007 604.999 2007 622.999C2007 625.999 2008 627.999 2011 627.999C2011 599.999 2033 606.999 2041 585L2041 555C2038 552 2030 550 2030 544C2030 540 2048 522 2050 522C2050 537 2048 568 2061 568C2085 568 2070 517 2080 509C2099 494.001 2099 402.002 2099 402.002C2110 391.002 2118 396.002 2118 385.002C2118 380.002 2113 371.002 2113 365.002C2113 361.002 2118 357.002 2118 353.002C2118 341.002 2104 348.002 2104 339.002C2104 329.002 2135 328.002 2135 302.003C2135 275.003 2137 236.003 2155 208.004C2162 197.004 2166 183.004 2171 170.004C2174 125.005 2204 83.0052 2204 33.0058C2204 16.0059 2181 0.006125 2163 0.006125C2126 0.006125 2094 30.0058 2091 58.0055C2088 79.0052 2072 89.0051 2073 110.005C2067 142.005 2028 169.004 2028 203.004C2028 219.004 1999 227.004 1999 256.003C1999 269.003 1994 281.003 1991 293.003C1991 294.003 1974 330.002 1968 332.002C1947 338.002 1943 386.002 1913 386.002C1898 386.002 1878 376.002 1863 376.002C1854 376.002 1823 384.002 1823 386.002C1816 412.002 1780 418.001 1778 428.001C1772 453.001 1752 486.001 1736 503.001C1718 522 1700 562 1694 576C1687 593 1678 602.999 1676 619.999C1676 636.999 1660 645.999 1660 660.999C1660 671.999 1657 682.999 1657 692.998C1657 711.998 1657 747.998 1673 766.998C1686 781.997 1668 793.997 1731 815.997C1735 816.997 1740 817.997 1745 817.997C1754 817.997 1764 813.997 1774 813.997C1780 813.997 1817 777.997 1822 765.998C1839 719.998 1866 684.998 1882 632.999C1884 625.999 1905 577 1905 570C1905 569 1905 569 1905 569C1926 564 1923 524 1926 502.001C1931 500.001 1940 484.001 1948 484.001C1961 484.001 1948 442.001 1963 437.001C1970 437.001 1969 458.001 1972 458.001C1985 458.001 1988 398.002 1988 393.002C1988 393.002 1988 393.002 1988 394.002C1988 393.002 1992 392.002 1994 391.002C1994 393.002 1996 399.002 1997 399.002C2004 399.002 2004 386.002 2004 380.002C2004 372.002 2002 364.002 2002 356.002C2002 340.002 2022 330.002 2022 320.003C2022 318.003 2021 315.003 2020 312.003ZM1904 430.001C1907 434.001 1909 437.001 1909 440.001C1909 449.001 1892 480.001 1881 487.001C1863 523 1840 556 1821 591C1800 629.999 1753 732.998 1742 732.998C1730 732.998 1729 697.998 1729 690.998C1729 669.999 1742 614.999 1760 585C1764 578 1767 571 1769 564C1796 494.001 1852 444.001 1904 430.001ZM1973 411.002C1973 408.002 1972 402.002 1972 398.002C1974 400.002 1974 402.002 1974 404.002C1974 407.002 1973 408.002 1973 411.002ZM2062 463.001C2067 466.001 2067 465.001 2067 469.001C2067 474.001 2065 475.001 2063 479.001C2062 477.001 2060 475.001 2060 473.001C2060 470.001 2061 467.001 2062 463.001ZM2077 466.001C2075 466.001 2074 462.001 2074 461.001C2074 458.001 2075 456.001 2077 455.001C2081 455.001 2080 461.001 2080 464.001C2080 465.001 2078 465.001 2077 466.001ZM2018 893.996C2018 896.996 2018 899.996 2018 902.996C2018 889.996 2031 891.996 2031 878.996C2030 876.996 2030 872.996 2030 869.996C2030 854.997 2028 825.997 2043 811.997C2046 810.997 2049 806.997 2049 803.997C2049 798.997 2041 796.997 2041 791.997C2041 787.997 2050 781.997 2050 775.997C2050 769.998 2043 764.998 2043 759.998C2043 752.998 2054 744.998 2054 729.998C2054 717.998 2056 705.998 2056 693.998C2056 684.998 2052 676.999 2052 667.999C2052 637.999 2073 631.999 2073 617.999C2073 611.999 2067 587 2057 587C2050 587 2054 612.999 2039 612.999C2037 612.999 2035 611.999 2033 611.999C2031 611.999 1994 671.999 1990 676.999C1985 687.998 1982 700.998 1980 711.998C1980 714.998 1984 717.998 1987 717.998C1994 717.998 2002 675.999 2011 675.999C2012 675.999 2013 677.999 2013 678.999C2013 691.998 2005 721.998 1990 735.998C1992 735.998 1996 735.998 1996 738.998C1996 739.998 1995 740.998 1994 740.998C1991 740.998 1992 736.998 1991 734.998C1985 738.998 1983 743.998 1983 748.998C1983 751.998 1984 754.998 1984 757.998C1984 771.998 1968 772.998 1968 786.997C1968 790.997 1969 793.997 1969 797.997C1969 809.997 1959 821.997 1959 831.997C1959 839.997 1966 844.997 1966 856.997C1966 875.996 1962 898.996 1959 918.996C1962 923.996 1965 927.996 1965 932.996C1965 938.996 1958 946.996 1958 955.995C1958 970.995 1974 1012.99 1990 1012.99C2021 1012.99 2028 958.995 2028 955.995C2028 939.996 2029 924.996 2037 908.996C2037 901.996 2025 899.996 2018 893.996ZM2037 645.999C2037 644.999 2036 637.999 2039 635.999C2041 635.999 2042 637.999 2042 639.999C2042 640.999 2035 661.999 2033 680.999C2030 673.999 2029 667.999 2029 661.999C2029 655.999 2029 649.999 2037 645.999ZM1981 878.996C1980 876.996 1977 874.996 1977 873.996C1977 871.996 1980 869.996 1981 867.996C1982 869.996 1985 871.996 1985 873.996C1985 874.996 1982 876.996 1981 878.996ZM2033 708.998L2033 711.998L2031 711.998L2033 708.998ZM1996 769.998C1995 767.998 1992 766.998 1992 765.998C1992 763.998 1994 761.998 1994 760.998C1997 762.998 1998 762.998 1998 764.998C1998 766.998 1997 768.998 1996 769.998ZM2020 313.003L2020 312.003C2021 313.003 2022 313.003 2024 313.003C2025 313.003 2026 313.003 2026 310.003C2024 311.003 2022 312.003 2020 313.003Z" fill="#ffffff" fill-rule="nonzero" opacity="1" stroke="none"/>
<path d="M2548 733.998C2548 738.998 2549 742.998 2549 747.998C2547 764.998 2548 773.997 2530 773.997C2532 769.998 2532 766.998 2537 766.998C2540 766.998 2543 769.998 2547 770.998C2543 763.998 2542 756.998 2542 748.998C2542 736.998 2549 729.998 2558 729.998C2561 729.998 2565 730.998 2569 730.998C2573 730.998 2575 729.998 2575 725.998C2575 722.998 2574 719.998 2574 716.998C2574 699.998 2603 675.999 2613 675.999C2616 675.999 2620 676.999 2623 676.999C2628 676.999 2632 674.999 2634 670.999C2646 640.999 2713 627.999 2734 627.999C2739 627.999 2744 629.999 2750 629.999C2762 629.999 2782 615.999 2782 601.999C2782 584 2748 584 2734 580C2716 587 2697 581 2679 590C2673 593 2667 594 2660 594C2632 594 2645 574 2628 571C2626 561 2626 536 2618 536C2615 536 2609 541 2605 544C2594 533 2600 518 2595 505C2574 484.001 2558 474.001 2520 474.001C2443 474.001 2374 498.001 2325 511C2323 512 2321 512 2319 512C2313 512 2310 509 2310 505C2310 497.001 2324 481.001 2328 472.001C2335 448.001 2362 440.001 2366 425.001C2379 377.002 2414 373.002 2432 352.002C2446 331.002 2471 306.003 2499 302.003C2503 301.003 2506 294.003 2506 289.003C2502 254.003 2444 253.003 2423 249.003C2405 267.003 2388 276.003 2373 300.003C2362 318.003 2334 325.003 2330 337.002C2321 364.002 2290 354.002 2283 381.002C2283 382.002 2250 417.001 2240 427.001C2226 440.001 2213 456.001 2212 478.001C2212 489.001 2204 499.001 2204 509C2204 516 2207 522 2207 529C2207 532 2205 535 2205 538C2205 567 2229 584 2261 595.999C2268 599.999 2269 613.999 2275 613.999C2316 613.999 2348 586 2348 586C2352 586 2357 590 2364 593C2385 579 2390 574 2412 567C2443 558 2463 540 2476 540C2483 540 2489 545 2495 545C2499 545 2504 543 2509 543C2524 543 2533 558 2533 571C2525 621.999 2529 662.999 2489 672.999C2463 678.999 2457 713.998 2435 713.998C2415 713.998 2414 734.998 2394 737.998C2384 737.998 2371 772.998 2341 780.997C2318 786.997 2316 807.997 2299 817.997C2249 847.997 2231 929.996 2230 937.996C2225 952.996 2213 973.995 2213 976.995C2213 994.995 2243 1046.99 2268 1046.99C2280 1046.99 2281 1028.99 2303 1028.99C2327 1028.99 2341 1027.99 2365 1008.99C2371 1003.99 2377 999.995 2384 997.995C2394 994.995 2396 975.995 2409 975.995C2435 975.995 2420 946.996 2439 938.996C2452 933.996 2447 911.996 2459 909.996C2477 903.996 2476 882.996 2476 861.997C2472 860.997 2468 859.997 2465 858.997L2466 861.997L2464 859.997C2468 860.997 2471 861.997 2475 861.997C2500 847.997 2518 831.997 2518 815.997C2518 811.997 2514 809.997 2511 809.997C2505 809.997 2502 810.997 2499 810.997C2492 810.997 2498 785.997 2483 785.997C2480 785.997 2462 817.997 2459 817.997C2459 817.997 2459 817.997 2459 816.997C2459 835.997 2432 868.996 2422 884.996C2411 913.996 2405 943.996 2377 950.996C2352 957.995 2358 989.995 2337 988.995C2333 988.995 2330 987.995 2326 987.995C2319 987.995 2311 990.995 2303 990.995C2296 990.995 2282 987.995 2282 977.995C2284 963.995 2282 947.996 2290 934.996C2306 909.996 2322 868.996 2345 860.997C2366 848.997 2384 819.997 2415 805.997C2448 790.997 2454 752.998 2493 752.998C2494 767.998 2499 794.997 2513 794.997C2541 794.997 2557 777.997 2557 752.998C2557 744.998 2554 738.998 2548 733.998Z" fill="#ffffff" fill-rule="nonzero" opacity="1" stroke="none"/>
<path d="M3349 731.998C3349 731.998 3349 731.998 3349 730.998C3349 730.998 3349 730.998 3349 731.998ZM3361 705.998C3361 704.998 3361 704.998 3360 704.998C3361 704.998 3361 704.998 3361 705.998ZM3323 771.998L3322 772.998C3322 772.998 3323 772.998 3323 771.998ZM3597 530C3580 525 3560 519 3547 519C3517 519 3480 530 3449 530C3420 530 3425 499.001 3397 497.001C3387 497.001 3386 482.001 3375 480.001C3361 477.001 3348 466.001 3336 466.001C3324 465.001 3313 464.001 3301 464.001C3217 464.001 3133 508 3057 523C3049 523 3042 503.001 3042 494.001C3042 485.001 3056 477.001 3056 467.001C3056 449.001 3077 446.001 3077 435.001C3077 431.001 3075 427.001 3074 423.001C3078 418.001 3083 412.002 3087 406.002C3088 406.002 3090 407.002 3091 407.002L3090 406.002C3102 376.002 3134 366.002 3154 340.002C3166 324.003 3209 293.003 3209 292.003C3226 286.003 3238 274.003 3253 263.003C3285 239.003 3331 213.004 3371 213.004C3377 213.004 3383 216.004 3390 216.004C3398 216.004 3408 216.004 3408 205.004C3408 185.004 3360 150.004 3332 140.005C3321 146.004 3304 153.004 3297 160.004C3285 169.004 3276 181.004 3259 182.004C3250 182.004 3221 212.004 3204 221.004C3166 241.003 3131 288.003 3087 313.003C3083 315.003 3081 321.003 3079 325.003C3080 328.002 3081 330.002 3081 332.002C3081 344.002 3054 353.002 3047 370.002C3044 377.002 3040 383.002 3034 387.002C3011 405.002 2995 426.001 2995 456.001C2993 476.001 2972 480.001 2972 502.001C2972 515 2977 524 2977 535C2977 538 2976 542 2976 545C2976 591 3068 593 3068 593C3110 593 3176 561 3223 534C3239 522 3262 529 3280 519C3284 520 3287 520 3291 520C3301 520 3311 518 3321 518C3339 518 3345 539 3345 552C3345 578 3328 583 3308 594C3299 610.999 3267 610.999 3254 624.999C3238 641.999 3213 653.999 3193 666.999C3160 687.998 3120 727.998 3108 754.998C3099 775.997 3055 799.997 3055 827.997C3055 867.996 3080 893.996 3112 893.996C3183 893.996 3218 850.997 3240 844.997C3246 844.997 3251 852.997 3259 852.997C3258 852.997 3336 808.997 3336 793.997C3335 791.997 3334 790.997 3332 790.997C3327 790.997 3321 793.997 3316 794.997C3313 794.997 3311 791.997 3311 788.997C3311 784.997 3319 777.997 3323 772.998C3323 772.998 3323 772.998 3322 772.998C3343 747.998 3352 726.998 3360 704.998C3358 703.998 3358 700.998 3358 699.998C3358 681.999 3399 649.999 3403 649.999C3406 649.999 3411 651.999 3414 651.999C3425 651.999 3436 609.999 3440 601.999C3488 569 3511 556 3551 556C3558 556 3565 559 3572 559C3580 559 3599 543 3599 536C3599 533 3598 530 3597 530ZM3271 800.997C3271 801.997 3271 802.997 3270 802.997L3269 801.997C3269 801.997 3269 800.997 3270 800.997C3270 800.997 3270 800.997 3269 800.997L3270 800.997L3271 799.997C3271 799.997 3272 799.997 3272 800.997L3271 800.997ZM3300 717.998C3288 727.998 3268 742.998 3268 757.998C3268 764.998 3232 789.997 3227 807.997C3223 822.997 3166 839.997 3167 843.997C3167 843.997 3167 843.997 3169 843.997C3167 843.997 3163 841.997 3160 841.997C3150 841.997 3141 847.997 3132 850.997C3130 845.997 3129 840.997 3129 835.997C3129 792.997 3216 725.998 3225 721.998C3237 714.998 3258 693.998 3258 693.998C3272 688.998 3294 665.999 3308 665.999C3316 665.999 3316 673.999 3316 679.999C3316 693.998 3312 706.998 3300 717.998ZM3322 748.998L3321 749.998C3318 749.998 3319 747.998 3318 745.998C3319 744.998 3321 744.998 3321 744.998C3322 744.998 3324 746.998 3324 746.998C3324 747.998 3323 748.998 3322 748.998ZM3404 629.999C3404 629.999 3404 629.999 3404 628.999C3404 628.999 3404 628.999 3405 628.999L3407 628.999L3406 628.999C3406 629.999 3406 630.999 3405 630.999L3404 629.999Z" fill="#ffffff" fill-rule="nonzero" opacity="1" stroke="none"/>
<path d="M3544 480.001C3546 482.001 3558 536 3559 540C3559 557 3549 576 3549 587C3549 594 3558 601.999 3558 606.999C3558 615.999 3538 621.999 3538 651.999C3538 659.999 3543 667.999 3543 675.999C3543 683.999 3535 688.998 3535 694.998C3535 701.998 3542 705.998 3542 713.998C3542 738.998 3529 763.998 3529 789.997C3529 807.997 3537 825.997 3537 843.997C3537 851.997 3536 859.997 3536 866.996C3536 871.996 3536 876.996 3538 880.996C3536 888.996 3533 895.996 3533 903.996C3533 913.996 3541 920.996 3541 933.996C3541 946.996 3554 954.995 3554 963.995C3554 970.995 3547 978.995 3547 986.995C3547 989.995 3548 992.995 3548 995.995C3548 999.995 3547 1004.99 3547 1008.99C3547 1027.99 3558 1045.99 3558 1064.99C3558 1079.99 3574 1098.99 3591 1098.99C3634 1098.99 3630 1073.99 3630 1057.99C3630 1043.99 3619 1030.99 3619 1017.99C3619 996.995 3618 968.995 3606 952.996C3600 945.996 3599 930.996 3599 919.996C3599 912.996 3601 904.996 3601 897.996C3601 889.996 3597 882.996 3597 874.996C3597 837.997 3609 785.997 3623 785.997C3630 785.997 3643 791.997 3653 791.997C3677 791.997 3777 762.998 3777 739.998C3777 726.998 3808 728.998 3814 708.998C3817 683.999 3859 662.999 3870 631.999C3877 609.999 3893 590 3907 571C3915 560 3911 542 3920 533C3930 516 3933 479.001 3933 460.001C3933 452.001 3930 445.001 3928 438.001L3906 409.002C3894 408.002 3888 393.002 3882 393.002C3871 388.002 3859 384.002 3846 384.002C3775 384.002 3700 458.001 3675 492.001C3662 510 3643 550 3626 550C3620 550 3614 548 3608 545C3609 548 3609 552 3610 555C3610 559 3607 559 3607 559C3606 559 3606 559 3606 558C3606 544 3619 535 3619 526C3619 523 3615 518 3615 514C3615 491.001 3628 467.001 3628 451.001C3628 403.002 3657 372.002 3657 337.002C3657 298.003 3623 279.003 3597 279.003C3572 279.003 3567 318.003 3567 339.002C3567 350.002 3569 363.002 3571 376.002C3562 390.002 3555 395.002 3555 409.002C3555 423.001 3559 436.001 3559 450.001C3559 464.001 3558 478.001 3544 480.001ZM3718 515C3758 502.001 3799 438.001 3843 438.001C3854 438.001 3860 438.001 3860 460.001C3860 482.001 3851 504.001 3849 525C3842 596.999 3791 660.999 3768 683.999C3734 705.998 3690 736.998 3648 736.998C3639 736.998 3634 731.998 3634 721.998C3634 625.999 3680 596.999 3696 559C3697 555 3699 551 3702 550C3715 543 3718 531 3718 515ZM3603 586C3602 594 3595 603.999 3590 603.999C3589 603.999 3588 601.999 3588 600.999C3589 594.999 3593 583 3601 583C3602 584 3602 585 3603 586ZM3574 625.999C3573 627.999 3572 629.999 3571 631.999C3570 629.999 3568 627.999 3568 625.999C3568 623.999 3570 621.999 3571 619.999C3572 621.999 3573 623.999 3574 625.999ZM3573 871.996C3572 872.996 3571 874.996 3570 875.996C3569 874.996 3568 873.996 3568 872.996C3569 870.996 3570 869.996 3570 867.996C3571 868.996 3572 870.996 3573 871.996Z" fill="#ffffff" fill-rule="nonzero" opacity="1" stroke="none"/>
<path d="M4040 501.001C4041 505 4042 509 4042 513C4042 517 4040 516 4039 517C4038 516 4037 514 4037 512C4037 508 4039 504.001 4041 501.001C4026 522 4030 554 4016 571C4003 587 4004 632.999 4004 652.999C4004 660.999 4011 668.999 4011 675.999C4011 680.999 4006 686.998 4006 691.998C4006 698.998 4010 704.998 4010 710.998C4010 714.998 4007 718.998 4007 721.998C4007 729.998 4018 737.998 4018 746.998C4018 751.998 4016 756.998 4016 760.998C4016 763.998 4028 798.997 4045 807.997C4049 809.997 4052 814.997 4054 819.997C4075 850.997 4102 849.997 4141 853.997C4147 849.997 4153 845.997 4160 841.997C4163 843.997 4167 844.997 4170 844.997C4187 844.997 4253 763.998 4269 757.998C4286 751.998 4301 706.998 4329 692.998C4340 692.998 4345 676.999 4345 668.999C4345 658.999 4399 613.999 4399 613.999C4409 606.999 4439 594.999 4439 582C4439 574 4429 571 4423 571C4392 571 4350 618.999 4339 628.999C4287 674.999 4234 716.998 4180 760.998C4169 769.998 4151 781.997 4136 781.997C4100 781.997 4097 697.998 4097 652.999C4097 636.999 4098 608.999 4117 608.999C4131 608.999 4145 612.999 4159 612.999C4215 612.999 4272 561 4283 540C4288 530 4295 524 4302 517C4310 508 4314 492.001 4324 487.001C4334 480.001 4338 470.001 4338 458.001C4338 452.001 4337 446.001 4337 439.001C4337 436.001 4338 432.001 4338 429.001C4338 375.002 4253 337.002 4201 337.002C4185 337.002 4178 352.002 4165 357.002C4143 366.002 4130 386.002 4115 401.002C4108 423.001 4074 432.001 4065 460.001C4060 476.001 4050 489.001 4040 501.001ZM4135 551C4119 549 4114 549 4114 542C4114 515 4167 409.002 4233 409.002C4253 409.002 4257 437.001 4257 454.001C4257 518 4171 545 4135 551Z" fill="#ffffff" fill-rule="nonzero" opacity="1" stroke="none"/>
<path d="M4379 724.998C4398 726.998 4391 736.998 4394 743.998C4394 785.997 4431 807.997 4464 807.997C4511 807.997 4509 806.997 4559 715.998C4579 673.999 4614 596.999 4621 594.999C4646 588 4642 572 4648 547C4650 538 4686 506 4688 506C4701 499.001 4704 490.001 4711 474.001C4736 474.001 4724 449.001 4740 446.001C4748 445.001 4755 443.001 4764 441.001C4765 452.001 4770 462.001 4770 474.001C4760 493.001 4755 480.001 4755 550C4755 555 4755 561 4756 566C4756 577 4741 594.999 4740 614.999C4735 699.998 4726 798.997 4726 876.996C4726 890.996 4741 895.996 4741 912.996C4741 922.996 4740 932.996 4740 942.996C4741 959.995 4739 977.995 4754 990.995C4759 993.995 4755 1005.99 4765 1014.99C4782 1030.99 4794 1046.99 4819 1046.99C4834 1046.99 4858 1046.99 4866 1028.99C4873 1012.99 4887 1000.99 4890 979.995C4890 958.995 4890 924.996 4898 909.996C4908 896.996 4902 880.996 4909 870.996C4922 845.997 4927 808.997 4934 780.997C4941 751.998 4957 724.998 4961 694.998C4961 663.999 5014 599.999 5021 589C5022 588 5023 586 5023 584C5023 574 5008 569 5001 569C4980 569 4951 601.999 4944 627.999C4943 631.999 4941 637.999 4937 640.999C4909 666.999 4914 691.998 4904 729.998C4901 742.998 4891 743.998 4890 753.998C4877 789.997 4867 825.997 4856 864.996C4856 886.996 4833 961.995 4818 961.995C4815 961.995 4804 926.996 4804 922.996C4804 918.996 4805 913.996 4806 909.996C4800 903.996 4798 896.996 4798 889.996C4798 883.996 4799 875.996 4799 868.996C4799 853.997 4798 838.997 4798 822.997C4798 776.997 4808 725.998 4808 679.999C4808 658.999 4824 637.999 4824 622.999C4824 548 4853 472.001 4853 407.002C4853 360.002 4822 349.002 4800 349.002C4775 349.002 4765 366.002 4748 373.002C4717 385.002 4700 417.001 4674 430.001C4651 400.002 4628 379.002 4582 379.002C4513 379.002 4501 429.001 4473 469.001C4438 519 4431 552 4419 583C4407 613.999 4394 646.999 4394 679.999C4393 688.998 4387 692.998 4379 694.998L4379 724.998ZM4651 450.001C4651 453.001 4652 455.001 4652 457.001C4652 467.001 4637 487.001 4637 487.001C4615 504.001 4603 530 4582 547C4571 556 4563 568 4556 579C4542 601.999 4490 671.999 4486 671.999C4481 671.999 4480 668.999 4480 664.999C4495 589 4542 492.001 4605 450.001C4612 446.001 4618 444.001 4626 444.001C4633 444.001 4644 447.001 4651 450.001Z" fill="#ffffff" fill-rule="nonzero" opacity="1" stroke="none"/>
<path d="M5020 900.996C5019 900.996 5018 899.996 5017 898.996C5018 899.996 5018 899.996 5019 900.996C5017 904.996 5016 908.996 5016 911.996C5016 925.996 5027 940.996 5041 940.996C5072 940.996 5079 893.996 5079 880.996C5079 862.997 5056 808.997 5054 807.997C5050 805.997 5048 804.997 5048 803.997C5048 800.997 5058 792.997 5058 787.997C5058 779.997 5042 724.998 5035 723.998C5032 722.998 5031 719.998 5031 716.998C5031 710.998 5047 694.998 5047 692.998C5052 692.998 5075 698.998 5087 717.998C5106 747.998 5136 768.998 5160 792.997C5168 799.997 5181 800.997 5185 813.997C5196 834.997 5291 851.997 5295 851.997C5320 851.997 5339 837.997 5350 816.997C5322 771.998 5285 787.997 5256 757.998C5238 734.998 5212 723.998 5194 703.998C5165 671.999 5123 627.999 5114 592C5116 588 5119 584 5122 581C5154 554 5185 509 5201 476.001C5214 448.001 5235 411.002 5235 385.002C5235 371.002 5221 351.002 5204 351.002C5140 351.002 5061 475.001 5051 475.001C5049 475.001 5047 473.001 5047 471.001C5049 464.001 5050 456.001 5052 449.001C5049 446.001 5048 443.001 5048 439.001C5048 431.001 5059 425.001 5059 412.002C5059 383.002 5060 351.002 5071 324.003C5073 320.003 5075 316.003 5075 312.003C5075 308.003 5074 304.003 5069 301.003C5069 275.003 5081 252.003 5081 240.003C5081 187.004 5098 131.005 5098 83.0052C5098 39.0057 5091 25.0058 5057 25.0058C5042 25.0058 5012 30.0058 5012 39.0057C5012 45.0056 5015 52.0055 5015 58.0055C5015 83.0052 5006 110.005 5006 135.005C5006 144.005 5011 153.004 5011 163.004C5011 189.004 4993 203.004 4993 211.004C4993 219.004 5001 229.004 5001 239.003C5001 253.003 4991 260.003 4991 267.003C4991 272.003 4995 277.003 4995 283.003C4995 289.003 4988 293.003 4988 299.003C4988 307.003 4992 315.003 4992 323.003C4992 352.002 4980 384.002 4980 414.002C4980 425.001 4990 434.001 4990 444.001C4990 457.001 4977 480.001 4977 498.001C4977 508 4981 519 4981 529C4981 533 4979 538 4979 542C4979 552 4990 558 4990 567C4990 576 4977 584 4977 595.999C4975 617.999 4973 640.999 4973 662.999C4973 679.999 4987 688.998 4987 704.998C4988 715.998 4988 726.998 4990 737.998C4990 749.998 4981 756.998 4981 763.998C4981 774.997 4990 788.997 4990 801.997C4990 819.997 4995 870.996 4997 871.996C5008 878.996 5007 895.996 5020 900.996ZM5031 472.001C5030 473.001 5029 474.001 5027 474.001C5026 474.001 5025 474.001 5024 473.001C5024 473.001 5025 471.001 5026 471.001C5028 471.001 5030 471.001 5031 472.001ZM5196 385.002C5196 426.001 5167 464.001 5164 469.001C5140 499.001 5128 529 5086 552C5084 553 5082 553 5080 553C5069 553 5060 549 5060 542C5060 525 5087 489.001 5097 470.001C5116 435.001 5166 382.002 5192 382.002C5193 382.002 5195 383.002 5196 385.002ZM5021 667.999C5021 671.999 5023 684.998 5009 687.998C5007 687.998 5003 682.999 5003 679.999C5003 678.999 5019 651.999 5019 651.999C5021 651.999 5021 654.999 5021 658.999C5021 660.999 5021 664.999 5021 667.999ZM5019 770.998C5014 761.998 5015 751.998 5014 742.998C5014 741.998 5016 739.998 5017 739.998C5022 744.998 5022 750.998 5022 758.998C5022 762.998 5021 766.998 5019 770.998ZM5031 818.997C5032 817.997 5032 812.997 5033 812.997C5035 812.997 5037 816.997 5037 820.997C5037 824.997 5036 825.997 5033 828.997C5032 826.997 5030 823.997 5030 821.997C5030 820.997 5031 819.997 5031 818.997ZM5022 715.998C5021 718.998 5018 720.998 5017 720.998C5015 720.998 5013 718.998 5013 715.998C5013 712.998 5016 711.998 5019 710.998C5020 711.998 5021 713.998 5022 715.998ZM5020 538C5016 534 5017 535 5017 532C5017 529 5017 526 5020 525C5022 527 5023 529 5023 530C5023 534 5020 537 5020 538ZM5005 637.999C5003 635.999 5002 635.999 5002 632.999C5002 630.999 5002 625.999 5005 625.999C5006 628.999 5007 631.999 5007 634.999C5007 635.999 5006 636.999 5005 637.999ZM5034 670.999L5035 673.999L5032 673.999L5034 670.999Z" fill="#ffffff" fill-rule="nonzero" opacity="1" stroke="none"/>
<path d="M5967 496.001C5970 481.001 5982 482.001 5986 472.001C5998 423.001 6015 433.001 6015 402.002C6015 367.002 6045 383.002 6047 362.002C6048 352.002 6047 334.002 6055 331.002C6072 326.002 6065 300.003 6086 287.003C6089 286.003 6104 246.003 6104 240.003C6104 233.004 6089 230.004 6083 230.004C6069 230.004 6041 258.003 6039 263.003C6018 309.003 5989 363.002 5965 398.002C5957 410.002 5960 427.001 5952 437.001C5936 459.001 5956 520 5910 520C5910 531 5910 540 5910 551C5910 568 5883 569 5876 591C5863 627.999 5832 736.998 5809 736.998C5799 736.998 5800 714.998 5800 713.998C5800 674.999 5778 666.999 5778 653.999C5778 636.999 5776 619.999 5776 601.999C5761 591 5762 586 5762 573C5762 563 5765 554 5765 544C5765 532 5755 522 5755 509C5755 502.001 5757 494.001 5757 487.001C5757 474.001 5750 463.001 5750 449.001C5750 423.001 5750 391.002 5738 369.002C5737 368.002 5736 366.002 5736 364.002C5736 358.002 5742 351.002 5742 345.002C5742 342.002 5741 339.002 5740 337.002C5726 306.003 5735 272.003 5725 241.003C5709 194.004 5716 123.005 5661 117.005C5648 117.005 5620 122.005 5620 134.005C5620 197.004 5629 277.003 5638 325.003C5645 334.002 5643 346.002 5643 350.002C5643 359.002 5656 364.002 5656 373.002C5656 385.002 5650 401.002 5650 423.001C5650 435.001 5652 446.001 5661 456.001C5665 460.001 5668 504.001 5669 519C5671 548 5669 576 5684 602.999C5700 632.999 5698 636.999 5703 666.999C5706 690.998 5718 722.998 5718 738.998C5718 777.997 5750 800.997 5750 839.997C5750 890.996 5810 893.996 5810 893.996C5814 893.996 5817 890.996 5821 890.996C5826 890.996 5829 893.996 5834 893.996C5842 893.996 5849 881.996 5861 879.996C5888 874.996 5890 865.996 5894 835.997C5894 817.997 5913 814.997 5915 797.997C5915 784.997 5925 770.998 5925 755.998C5925 752.998 5925 749.998 5924 746.998C5924 733.998 5936 721.998 5936 691.998C5936 666.999 5954 646.999 5954 626.999C5954 609.999 5936 623.999 5936 594C5936 585 5936 577 5940 577C5946 577 5944 604.999 5951 604.999C5952 604.999 5955 603.999 5955 601.999C5953 596.999 5952 592 5952 587C5952 571 5968 558 5968 523C5968 516 5954 517 5954 513C5954 511 5963 501.001 5967 496.001ZM6025 331.002C6025 332.002 6024 333.002 6024 334.002C6023 332.002 6022 330.002 6021 329.002C6021 328.002 6022 327.002 6023 326.002C6026 326.002 6024 332.002 6025 331.002ZM5942 530C5943 532 5945 536 5945 537C5945 538 5943 539 5942 539C5940 539 5940 534 5940 532C5940 531 5942 530 5942 530ZM5986 424.001C5984 426.001 5984 427.001 5981 427.001C5979 427.001 5977 425.001 5977 422.001C5977 420.001 5977 419.001 5979 417.001C5984 417.001 5987 425.001 5986 424.001Z" fill="#ffffff" fill-rule="nonzero" opacity="1" stroke="none"/>
<path d="M6642 460.001C6589 463.001 6541 484.001 6491 501.001C6488 502.001 6485 503.001 6482 503.001C6465 503.001 6462 482.001 6458 466.001C6447 429.001 6410 388.002 6382 378.002C6358 370.002 6336 349.002 6309 349.002C6292 349.002 6276 349.002 6261 349.002C6195 349.002 6155 358.002 6155 462.001C6155 491.001 6183 532 6183 553C6183 576 6162 625.999 6162 638.999C6162 657.999 6154 675.999 6154 695.998C6154 798.997 6225 851.997 6225 851.997C6245 865.996 6269 869.996 6290 875.996C6303 867.996 6339 846.997 6346 846.997C6347 846.997 6347 847.997 6347 847.997C6418 776.997 6422 752.998 6436 734.998C6451 715.998 6434 684.998 6456 672.999C6460 668.999 6476 589 6476 583C6480 554 6487 548 6525 529C6554 515 6586 499.001 6620 496.001C6652 493.001 6662 484.001 6662 476.001C6662 467.001 6649 458.001 6644 458.001C6643 458.001 6642 459.001 6642 460.001ZM6421 607.999C6418 625.999 6420 653.999 6409 660.999C6391 672.999 6352 792.997 6303 792.997C6277 792.997 6264 751.998 6264 731.998C6264 719.998 6271 703.998 6271 690.998C6271 685.998 6270 680.999 6270 675.999C6270 644.999 6277 614.999 6297 609.999C6336 609.999 6372 594.999 6408 582C6423 582 6419 594.999 6421 607.999ZM6276 383.002C6345 383.002 6387 449.001 6412 503.001C6415 509 6415 515 6415 521C6415 544 6357 555 6331 558C6326 558 6318 557 6318 549C6318 540 6332 522 6332 513C6332 490.001 6271 475.001 6265 473.001C6258 470.001 6253 469.001 6250 469.001C6243 469.001 6240 475.001 6226 489.001C6226 490.001 6225 490.001 6224 490.001C6211 490.001 6211 469.001 6211 460.001C6211 431.001 6229 390.002 6260 386.002C6266 385.002 6272 384.002 6276 383.002Z" fill="#ffffff" fill-rule="nonzero" opacity="1" stroke="none"/>
<path d="M6700 594C6700 594.999 6700 595.999 6700 595.999C6703 577 6706 569 6709 544C6709 534 6700 529 6700 521C6700 513 6709 505 6709 497.001C6709 491.001 6705 485.001 6705 479.001C6705 464.001 6713 446.001 6713 428.001C6713 420.001 6709 412.002 6709 404.002C6709 396.002 6713 384.002 6713 376.002C6713 371.002 6710 367.002 6710 362.002C6710 359.002 6713 355.002 6713 351.002C6713 345.002 6709 341.002 6709 335.002C6711 321.003 6708 307.003 6715 294.003C6715 294.003 6716 293.003 6716 292.003C6716 286.003 6712 281.003 6712 276.003C6712 233.004 6724 162.004 6724 110.005C6724 83.0052 6721 76.0053 6688 76.0053C6670 76.0053 6642 77.0053 6642 99.005C6642 110.005 6648 120.005 6648 134.005C6648 149.004 6647 164.004 6647 180.004C6647 187.004 6648 195.004 6648 203.004C6648 223.004 6641 252.003 6641 274.003C6641 282.003 6643 289.003 6643 296.003C6643 305.003 6637 313.003 6637 322.003C6637 332.002 6640 341.002 6640 350.002C6640 354.002 6639 357.002 6638 359.002C6632 393.002 6624 423.001 6624 459.001C6624 481.001 6635 501.001 6635 525C6635 545 6634 565 6633 585C6633 591 6634 596.999 6634 602.999C6634 614.999 6617 601.999 6617 620.999C6618 630.999 6618 639.999 6618 649.999C6618 672.999 6612 695.998 6612 718.998C6612 734.998 6618 748.998 6618 765.998C6618 778.997 6617 797.997 6617 814.997C6617 873.996 6633 860.997 6633 907.996C6633 916.996 6634 923.996 6637 926.996C6659 947.996 6659 1029.99 6703 1034.99C6710 1034.99 6718 1029.99 6725 1029.99C6731 1029.99 6735 1036.99 6740 1036.99C6741 1036.99 6760 1020.99 6763 1011.99C6768 997.995 6792 997.995 6800 971.995C6809 940.996 6825 914.996 6826 879.996C6826 875.996 6825 871.996 6825 868.996C6825 863.996 6826 858.997 6826 853.997C6826 847.997 6823 842.997 6823 837.997C6823 835.997 6824 833.997 6825 831.997C6830 831.997 6835 832.997 6839 832.997C6847 795.997 6842 757.998 6845 720.998C6850 717.998 6854 715.998 6858 712.998C6861 675.999 6859 585 6868 585C6873 585 6874 592 6878 592C6888 592 6904 526 6927 509C6943 493.001 6967 469.001 6967 446.001C6967 441.001 6957 438.001 6951 438.001C6935 438.001 6901 466.001 6899 475.001C6894 492.001 6881 505 6878 522C6875 535 6873 563 6865 567C6841 580 6833 616.999 6833 642.999C6833 650.999 6835 659.999 6835 667.999C6835 685.998 6835 712.998 6828 719.998C6821 719.998 6823 681.999 6818 681.999C6811 681.999 6818 704.998 6808 704.998C6806 704.998 6804 704.998 6801 703.998C6776 751.998 6743 893.996 6728 893.996C6722 892.996 6723 871.996 6722 856.997C6721 857.997 6720 857.997 6719 857.997C6695 857.997 6691 838.997 6691 819.997C6691 806.997 6692 798.997 6692 786.997C6692 757.998 6708 751.998 6708 717.998C6708 701.998 6707 677.999 6704 677.999C6701 677.999 6699 680.999 6698 680.999C6695 680.999 6694 672.999 6694 668.999C6694 651.999 6708 649.999 6708 624.999C6708 609.999 6707 600.999 6700 594ZM6629 706.998C6627 702.998 6626 698.998 6626 695.998C6626 687.998 6628 682.999 6633 682.999C6638 682.999 6646 687.998 6646 693.998C6646 702.998 6635 703.998 6629 706.998ZM6789 767.998C6789 771.998 6789 777.997 6789 782.997C6789 791.997 6789 798.997 6787 798.997C6786 797.997 6785 796.997 6785 796.997C6785 786.997 6785 776.997 6786 766.998L6789 767.998ZM6848 672.999C6848 682.999 6849 685.998 6849 689.998C6849 690.998 6848 691.998 6848 692.998C6847 691.998 6846 689.998 6846 687.998C6846 684.998 6847 681.999 6848 672.999ZM6713 897.996C6714 898.996 6716 901.996 6716 902.996C6715 906.996 6713 908.996 6712 912.996C6710 910.996 6709 908.996 6709 905.996C6709 902.996 6709 897.996 6713 897.996ZM6829 754.998C6827 754.998 6825 753.998 6825 751.998C6826 748.998 6827 746.998 6830 746.998C6832 746.998 6833 747.998 6833 749.998C6833 751.998 6831 752.998 6829 754.998ZM6684 752.998C6683 753.998 6682 755.998 6681 756.998C6680 755.998 6680 754.998 6680 753.998C6680 751.998 6681 749.998 6682 747.998C6684 749.998 6684 749.998 6684 752.998ZM6887 541C6886 542 6885 542 6884 542C6884 541 6883 540 6883 539C6883 538 6884 537 6885 537C6886 537 6887 540 6887 541ZM6681 651.999L6683 652.999L6682 654.999L6681 651.999Z" fill="#ffffff" fill-rule="nonzero" opacity="1" stroke="none"/>
<path d="M7232 474.001C7233 478.001 7233 483.001 7233 487.001C7233 502.001 7229 517 7229 532C7229 536 7230 541 7230 545C7230 581 7220 619.999 7220 656.999C7220 671.999 7223 686.998 7223 701.998C7223 714.998 7222 729.998 7222 742.998C7222 750.998 7225 757.998 7225 764.998C7225 772.998 7223 779.997 7222 786.997C7222 838.997 7242 851.997 7244 871.996C7246 885.996 7274 903.996 7295 903.996C7355 903.996 7365 806.997 7392 773.997C7401 762.998 7396 744.998 7405 731.998C7421 708.998 7430 683.999 7443 658.999C7461 632.999 7488 603.999 7497 579C7497 569 7487 569 7480 569C7452 569 7436 604.999 7425 627.999C7403 656.999 7386 688.998 7370 720.998C7357 746.998 7319 828.997 7305 828.997C7295 828.997 7293 801.997 7293 788.997C7293 779.997 7295 770.998 7299 761.998C7308 740.998 7309 718.998 7310 695.998C7310 691.998 7309 686.998 7309 682.999C7309 657.999 7324 637.999 7324 615.999C7324 603.999 7323 593 7323 581C7323 544 7339 525 7339 475.001C7339 406.002 7324 397.002 7263 397.002C7241 397.002 7228 415.001 7212 426.001C7147 472.001 7094 534 7047 598.999C7037 612.999 7027 633.999 7012 641.999C7001 641.999 6999 611.999 6999 581C6999 501.001 7007 471.001 7007 402.002C7007 361.002 6955 360.002 6927 360.002C6913 360.002 6905 498.001 6902 530C6900 551 6897 573 6897 594C6897 620.999 6911 642.999 6911 670.999C6911 728.998 6961 758.998 6998 758.998C7068 758.998 7084 701.998 7103 641.999C7107 629.999 7109 616.999 7120 609.999C7121 597.999 7135 594 7137 582C7139 570 7196 474.001 7232 474.001Z" fill="#ffffff" fill-rule="nonzero" opacity="1" stroke="none"/>
<path d="M7850 553C7851 553 7852 553 7852 554C7852 553 7851 553 7851 553C7851 553 7851 553 7851 554C7884 531 7884 467.001 7916 454.001C7928 449.001 7927 439.001 7930 424.001C7932 425.001 7933 425.001 7935 425.001C7942 425.001 7946 417.001 7953 417.001C7956 417.001 7958 420.001 7958 422.001C7958 426.001 7957 430.001 7957 434.001C7957 448.001 7960 462.001 7960 476.001C7960 494.001 7959 513 7959 529C7959 549 7930 600.999 7930 645.999C7930 652.999 7935 663.999 7937 669.999C7930 676.999 7922 679.999 7922 687.998C7922 693.998 7927 699.998 7927 706.998C7927 723.998 7912 746.998 7912 769.998C7912 791.997 7913 820.997 7909 840.997C7906 849.997 7901 857.997 7901 867.996C7901 884.996 7922 898.996 7922 921.996C7922 923.996 7922 925.996 7921 927.996C7934 954.995 7943 981.995 7974 981.995C7991 981.995 8027 974.995 8032 959.995C8040 937.996 8060 925.996 8063 900.996C8066 874.996 8079 852.997 8079 824.997C8079 822.997 8078 820.997 8078 818.997C8078 803.997 8107 780.997 8110 764.998C8117 723.998 8146 698.998 8168 666.999C8168 665.999 8169 664.999 8169 663.999C8169 655.999 8159 647.999 8152 647.999C8106 647.999 8099 673.999 8099 696.998C8099 705.998 8085 713.998 8080 723.998C8067 761.998 8035 811.997 8016 833.997C7999 819.997 7996 810.997 7996 798.997C7996 758.998 8005 722.998 8005 679.999C8015 666.999 8017 665.999 8017 647.999C8017 642.999 8024 638.999 8026 632.999C8029 617.999 8032 601.999 8035 586C8034 583 8033 579 8033 576C8033 566 8043 556 8043 548C8043 541 8034 539 8034 530C8034 516 8046 509 8046 499.001C8049 464.001 8046 421.001 8058 395.002C8059 393.002 8060 389.002 8060 386.002C8060 342.002 8040 323.003 8016 323.003C7948 323.003 7926 392.002 7904 407.002C7888 418.001 7893 442.001 7874 447.001C7856 452.001 7827 511 7828 509C7803 558 7770 583 7765 599.999C7761 610.999 7742 646.999 7732 646.999C7730 646.999 7728 644.999 7728 643.999C7729 616.999 7733 589 7733 563C7733 546 7722 531 7706 531C7693 531 7681 532 7669 533C7626 572 7592 610.999 7560 661.999C7556 667.999 7548 679.999 7539 679.999C7535 679.999 7533 671.999 7533 670.999C7533 663.999 7540 656.999 7540 649.999C7540 642.999 7531 621.999 7531 607.999C7541 593 7536 575 7542 559C7555 522 7553 483.001 7570 436.001C7571 433.001 7571 431.001 7571 428.001C7571 401.002 7527 388.002 7505 383.002C7497 383.002 7485 386.002 7484 396.002C7480 429.001 7473 462.001 7465 495.001C7465 501.001 7469 510 7469 517C7469 549 7451 565 7449 587C7448 603.999 7447 620.999 7447 637.999C7447 659.999 7448 682.999 7448 702.998C7448 732.998 7477 777.997 7481 780.997C7486 785.997 7492 788.997 7498 788.997C7553 788.997 7555 749.998 7582 720.998C7588 714.998 7589 700.998 7594 693.998C7610 671.999 7634 610.999 7648 610.999C7664 610.999 7653 745.998 7700 760.998C7714 765.998 7728 772.998 7739 771.998C7765 771.998 7781 733.998 7781 722.998C7781 707.998 7791 703.998 7796 686.998C7804 661.999 7811 629.999 7825 610.999C7831 600.999 7853 574 7853 562C7853 560 7851 557 7850 553ZM8024 681.999C8023 680.999 8022 678.999 8022 678.999C8018 680.999 8015 680.999 8015 687.998C8022 687.998 8021 685.998 8024 681.999Z" fill="#ffffff" fill-rule="nonzero" opacity="1" stroke="none"/>
<path d="M8156 501.001C8157 505 8158 509 8158 513C8158 517 8156 516 8155 517C8154 516 8153 514 8153 512C8153 508 8155 504.001 8157 501.001C8142 522 8146 554 8132 571C8119 587 8120 632.999 8120 652.999C8120 660.999 8127 668.999 8127 675.999C8127 680.999 8122 686.998 8122 691.998C8122 698.998 8126 704.998 8126 710.998C8126 714.998 8123 718.998 8123 721.998C8123 729.998 8134 737.998 8134 746.998C8134 751.998 8132 756.998 8132 760.998C8132 763.998 8144 798.997 8161 807.997C8165 809.997 8168 814.997 8170 819.997C8191 850.997 8218 849.997 8257 853.997C8263 849.997 8269 845.997 8276 841.997C8279 843.997 8283 844.997 8286 844.997C8303 844.997 8369 763.998 8385 757.998C8402 751.998 8417 706.998 8445 692.998C8456 692.998 8461 676.999 8461 668.999C8461 658.999 8515 613.999 8515 613.999C8525 606.999 8555 594.999 8555 582C8555 574 8545 571 8539 571C8508 571 8466 618.999 8455 628.999C8403 674.999 8350 716.998 8296 760.998C8285 769.998 8267 781.997 8252 781.997C8216 781.997 8213 697.998 8213 652.999C8213 636.999 8214 608.999 8233 608.999C8247 608.999 8261 612.999 8275 612.999C8331 612.999 8388 561 8399 540C8404 530 8411 524 8418 517C8426 508 8430 492.001 8440 487.001C8450 480.001 8454 470.001 8454 458.001C8454 452.001 8453 446.001 8453 439.001C8453 436.001 8454 432.001 8454 429.001C8454 375.002 8369 337.002 8317 337.002C8301 337.002 8294 352.002 8281 357.002C8259 366.002 8246 386.002 8231 401.002C8224 423.001 8190 432.001 8181 460.001C8176 476.001 8166 489.001 8156 501.001ZM8251 551C8235 549 8230 549 8230 542C8230 515 8283 409.002 8349 409.002C8369 409.002 8373 437.001 8373 454.001C8373 518 8287 545 8251 551Z" fill="#ffffff" fill-rule="nonzero" opacity="1" stroke="none"/>
<path d="M8849 733.998C8849 738.998 8850 742.998 8850 747.998C8848 764.998 8849 773.997 8831 773.997C8833 769.998 8833 766.998 8838 766.998C8841 766.998 8844 769.998 8848 770.998C8844 763.998 8843 756.998 8843 748.998C8843 736.998 8850 729.998 8859 729.998C8862 729.998 8866 730.998 8870 730.998C8874 730.998 8876 729.998 8876 725.998C8876 722.998 8875 719.998 8875 716.998C8875 699.998 8904 675.999 8914 675.999C8917 675.999 8921 676.999 8924 676.999C8929 676.999 8933 674.999 8935 670.999C8947 640.999 9014 627.999 9035 627.999C9040 627.999 9045 629.999 9051 629.999C9063 629.999 9083 615.999 9083 601.999C9083 584 9049 584 9035 580C9017 587 8998 581 8980 590C8974 593 8968 594 8961 594C8933 594 8946 574 8929 571C8927 561 8927 536 8919 536C8916 536 8910 541 8906 544C8895 533 8901 518 8896 505C8875 484.001 8859 474.001 8821 474.001C8744 474.001 8675 498.001 8626 511C8624 512 8622 512 8620 512C8614 512 8611 509 8611 505C8611 497.001 8625 481.001 8629 472.001C8636 448.001 8663 440.001 8667 425.001C8680 377.002 8715 373.002 8733 352.002C8747 331.002 8772 306.003 8800 302.003C8804 301.003 8807 294.003 8807 289.003C8803 254.003 8745 253.003 8724 249.003C8706 267.003 8689 276.003 8674 300.003C8663 318.003 8635 325.003 8631 337.002C8622 364.002 8591 354.002 8584 381.002C8584 382.002 8551 417.001 8541 427.001C8527 440.001 8514 456.001 8513 478.001C8513 489.001 8505 499.001 8505 509C8505 516 8508 522 8508 529C8508 532 8506 535 8506 538C8506 567 8530 584 8562 595.999C8569 599.999 8570 613.999 8576 613.999C8617 613.999 8649 586 8649 586C8653 586 8658 590 8665 593C8686 579 8691 574 8713 567C8744 558 8764 540 8777 540C8784 540 8790 545 8796 545C8800 545 8805 543 8810 543C8825 543 8834 558 8834 571C8826 621.999 8830 662.999 8790 672.999C8764 678.999 8758 713.998 8736 713.998C8716 713.998 8715 734.998 8695 737.998C8685 737.998 8672 772.998 8642 780.997C8619 786.997 8617 807.997 8600 817.997C8550 847.997 8532 929.996 8531 937.996C8526 952.996 8514 973.995 8514 976.995C8514 994.995 8544 1046.99 8569 1046.99C8581 1046.99 8582 1028.99 8604 1028.99C8628 1028.99 8642 1027.99 8666 1008.99C8672 1003.99 8678 999.995 8685 997.995C8695 994.995 8697 975.995 8710 975.995C8736 975.995 8721 946.996 8740 938.996C8753 933.996 8748 911.996 8760 909.996C8778 903.996 8777 882.996 8777 861.997C8773 860.997 8769 859.997 8766 858.997L8767 861.997L8765 859.997C8769 860.997 8772 861.997 8776 861.997C8801 847.997 8819 831.997 8819 815.997C8819 811.997 8815 809.997 8812 809.997C8806 809.997 8803 810.997 8800 810.997C8793 810.997 8799 785.997 8784 785.997C8781 785.997 8763 817.997 8760 817.997C8760 817.997 8760 817.997 8760 816.997C8760 835.997 8733 868.996 8723 884.996C8712 913.996 8706 943.996 8678 950.996C8653 957.995 8659 989.995 8638 988.995C8634 988.995 8631 987.995 8627 987.995C8620 987.995 8612 990.995 8604 990.995C8597 990.995 8583 987.995 8583 977.995C8585 963.995 8583 947.996 8591 934.996C8607 909.996 8623 868.996 8646 860.997C8667 848.997 8685 819.997 8716 805.997C8749 790.997 8755 752.998 8794 752.998C8795 767.998 8800 794.997 8814 794.997C8842 794.997 8858 777.997 8858 752.998C8858 744.998 8855 738.998 8849 733.998Z" fill="#ffffff" fill-rule="nonzero" opacity="1" stroke="none"/>
</g>
</g>
</svg>
