<?xml version="1.0" encoding="UTF-8" standalone="no"?>
<!DOCTYPE svg PUBLIC "-//W3C//DTD SVG 1.1//EN" "http://www.w3.org/Graphics/SVG/1.1/DTD/svg11.dtd">
<!-- Created with Vectornator (http://vectornator.io/) -->
<svg height="100%" stroke-miterlimit="10" style="fill-rule:nonzero;clip-rule:evenodd;stroke-linecap:round;stroke-linejoin:round;" version="1.1" viewBox="0 0 3512.41 573" width="100%" xml:space="preserve" xmlns="http://www.w3.org/2000/svg" xmlns:vectornator="http://vectornator.io" xmlns:xlink="http://www.w3.org/1999/xlink">
<defs>
<clipPath id="TextBounds">
<rect height="573" width="3512.41" x="0" y="0"/>
</clipPath>
</defs>
<clipPath id="ArtboardFrame">
<rect height="573" width="3512.41" x="0" y="0"/>
</clipPath>
<g clip-path="url(#ArtboardFrame)" id="Layer-1" vectornator:layerName="Layer 1">
<g fill="#c51d34" opacity="1" stroke="none">
<path clip-path="url(#TextBounds)" d="M289.134 372.08C289.902 364.016 290.67 356.336 290.67 348.656C290.67 344.816 288.366 340.208 288.366 336.368C288.366 333.68 291.822 328.688 294.51 328.688C295.278 329.072 296.046 329.456 296.814 329.456C297.582 329.456 297.966 328.688 297.966 327.152C297.582 325.232 297.198 323.312 297.198 321.392C297.198 309.488 306.03 298.352 306.03 283.76C306.03 278.768 304.11 274.16 304.11 268.784C304.11 263.024 306.414 251.504 306.414 245.744C306.414 241.136 301.806 231.92 301.806 224.624C301.806 222.704 302.574 221.168 302.574 219.248C302.574 216.176 301.806 213.488 301.806 210.8C301.806 202.352 307.566 201.2 307.566 188.144C307.566 183.152 307.182 176.24 302.574 176.24C294.51 176.24 286.062 184.688 286.062 191.6C286.062 199.28 287.214 207.344 287.214 214.64C287.214 222.32 284.526 231.92 284.526 237.296C284.526 239.216 286.062 241.52 286.062 243.824C286.062 245.36 285.294 247.664 284.91 249.584C286.83 252.656 287.214 255.728 287.214 259.184C287.214 261.872 286.83 264.944 286.83 267.632C286.83 269.936 287.214 272.24 287.214 274.16C287.214 278.768 283.374 282.608 283.374 286.832C282.99 291.824 281.454 296.048 281.454 301.04C281.454 302.576 281.838 303.728 281.838 305.264C281.838 307.568 280.686 310.256 280.686 312.56C280.686 314.096 281.838 315.632 281.838 317.168C281.838 317.936 280.302 319.088 278.766 319.088C278.382 319.088 277.998 318.704 277.614 318.704C273.006 318.704 273.774 321.776 273.774 324.464C273.774 337.904 267.63 350.96 267.63 365.552C267.63 371.312 267.246 377.456 261.486 380.528C252.27 385.52 248.814 413.552 243.822 415.472C238.83 422.384 230.766 440.816 223.086 440.816C212.718 440.816 205.806 417.008 205.422 416.624C199.278 407.792 200.814 396.272 195.054 387.056C193.134 383.984 189.294 372.848 189.294 373.616C189.294 372.464 189.678 370.928 189.678 369.776C189.678 363.632 188.142 357.488 187.374 351.344C184.302 323.696 186.99 260.336 167.79 260.336C140.91 260.336 126.318 295.28 116.718 311.024C107.502 326 98.67 341.36 93.294 358.64C91.758 362.864 87.918 371.312 84.078 371.312C77.166 371.312 79.854 354.032 76.014 350.96C72.174 345.2 71.406 317.552 71.406 316.016C71.406 312.56 70.254 309.104 70.254 305.648C70.254 304.112 70.638 302.576 70.638 301.424C66.798 298.352 66.414 286.064 66.414 284.912C66.414 277.232 70.254 269.168 70.254 261.104C70.254 259.184 70.254 257.648 69.87 255.728C70.254 254.576 70.638 253.424 70.638 252.272C70.638 249.968 69.87 247.664 69.87 245.36C69.87 242.672 71.022 239.984 71.022 236.912C71.022 234.224 70.638 231.536 70.638 228.848C72.558 205.04 80.622 177.392 80.622 158.576C80.622 147.44 79.086 139.76 63.342 139.76C52.59 139.76 52.974 172.016 51.438 180.848C51.054 182.384 50.67 183.536 50.67 185.072C50.67 186.224 51.054 187.76 51.054 188.912C51.054 192.368 48.75 195.44 48.75 198.896C48.75 226.16 41.07 248.432 41.07 265.328C41.07 276.464 42.99 286.832 42.99 297.968C42.99 303.728 42.606 309.488 42.606 315.248C42.606 329.456 46.83 345.2 49.902 358.64C53.742 361.712 53.742 366.32 54.126 370.16C54.126 387.44 67.182 402.416 77.934 402.416C79.854 402.416 82.158 400.112 83.694 400.112C85.998 400.112 87.534 402.032 89.838 402.032C97.518 402.032 108.27 386.288 109.038 382.832C111.342 376.304 112.878 369.008 115.95 362.48C118.638 356.336 119.022 347.888 122.862 342.512C122.094 343.28 133.614 310.64 142.062 310.64C141.678 310.64 150.126 333.296 151.278 337.136C152.814 341.36 154.734 349.424 154.734 351.344C154.734 352.88 154.35 354.416 154.35 355.952C154.35 360.944 160.878 366.704 160.878 370.928C161.646 383.6 163.182 412.4 168.174 417.392C173.934 423.536 175.854 441.968 179.694 443.12C186.222 446.96 185.838 457.712 195.054 463.088C203.886 468.464 203.886 471.92 218.478 471.92C226.542 471.92 233.838 463.856 238.446 462.704C249.198 459.632 255.726 451.184 261.102 442.352C264.558 436.592 269.934 431.984 272.238 425.456C277.614 415.088 281.838 398.96 281.838 388.208C281.838 387.44 281.454 387.056 281.454 386.288C281.454 380.912 285.678 375.536 289.134 372.08ZM280.302 335.984C279.534 335.984 279.534 335.6 279.534 334.064C279.534 333.68 279.534 333.68 280.302 333.68L280.302 335.984ZM284.142 267.632C284.142 268.016 284.142 268.016 284.142 268.016C284.142 268.016 284.142 268.016 284.142 267.632C284.142 267.248 284.142 266.48 283.374 265.712C282.222 266.864 281.454 267.632 281.454 269.936C281.454 271.472 282.222 272.24 282.99 273.008C284.142 271.856 283.758 271.088 284.142 267.632ZM292.206 336.752C292.206 336.368 291.822 335.984 291.438 335.984C291.054 335.984 290.286 337.136 290.286 337.52C290.286 337.52 290.67 338.672 291.438 338.672C292.206 338.672 292.206 337.904 292.206 336.752Z"/>
<path clip-path="url(#TextBounds)" d="M537.198 270.704C516.846 271.856 498.414 279.92 479.214 286.448C478.062 286.832 476.91 287.216 475.758 287.216C469.23 287.216 468.078 279.152 466.542 273.008C462.318 258.8 448.11 243.056 437.358 239.216C428.142 236.144 419.694 228.08 409.326 228.08C402.798 228.08 396.654 228.08 390.894 228.08C365.55 228.08 350.19 231.536 350.19 271.472C350.19 282.608 360.942 298.352 360.942 306.416C360.942 315.248 352.878 334.448 352.878 339.44C352.878 346.736 349.806 353.648 349.806 361.328C349.806 400.88 377.07 421.232 377.07 421.232C384.75 426.608 393.966 428.144 402.03 430.448C407.022 427.376 420.846 419.312 423.534 419.312C423.918 419.312 423.918 419.696 423.918 419.696C451.182 392.432 452.718 383.216 458.094 376.304C463.854 369.008 457.326 357.104 465.774 352.496C467.31 350.96 473.454 320.24 473.454 317.936C474.99 306.8 477.678 304.496 492.27 297.2C503.406 291.824 515.694 285.68 528.75 284.528C541.038 283.376 544.878 279.92 544.878 276.848C544.878 273.392 539.886 269.936 537.966 269.936C537.582 269.936 537.198 270.32 537.198 270.704ZM452.334 327.536C451.182 334.448 451.95 345.2 447.726 347.888C440.814 352.496 425.838 398.576 407.022 398.576C397.038 398.576 392.046 382.832 392.046 375.152C392.046 370.544 394.734 364.4 394.734 359.408C394.734 357.488 394.35 355.568 394.35 353.648C394.35 341.744 397.038 330.224 404.718 328.304C419.694 328.304 433.518 322.544 447.342 317.552C453.102 317.552 451.566 322.544 452.334 327.536ZM396.654 241.136C423.15 241.136 439.278 266.48 448.878 287.216C450.03 289.52 450.03 291.824 450.03 294.128C450.03 302.96 427.758 307.184 417.774 308.336C415.854 308.336 412.782 307.952 412.782 304.88C412.782 301.424 418.158 294.512 418.158 291.056C418.158 282.224 394.734 276.464 392.43 275.696C389.742 274.544 387.822 274.16 386.67 274.16C383.982 274.16 382.83 276.464 377.454 281.84C377.454 282.224 377.07 282.224 376.686 282.224C371.694 282.224 371.694 274.16 371.694 270.704C371.694 259.568 378.606 243.824 390.51 242.288C392.814 241.904 395.118 241.52 396.654 241.136Z"/>
<path clip-path="url(#TextBounds)" d="M521.454 336.752C520.686 339.824 519.15 344.816 519.15 348.272C519.15 350.192 521.07 352.496 521.07 354.8C521.07 355.568 520.686 355.952 520.686 356.336C515.694 362.48 514.158 375.536 514.158 382.832C514.158 389.36 515.694 394.736 515.694 400.112C515.694 403.952 514.926 407.024 514.926 410.48C514.926 423.152 518.382 436.208 527.982 436.208C542.574 436.208 549.486 402.8 549.102 403.568C556.014 391.28 555.63 377.072 561.006 364.016C572.142 337.52 569.454 329.072 575.982 319.472C579.822 313.712 581.742 307.184 584.43 301.04C591.726 282.992 611.31 253.04 626.67 243.824C627.054 243.824 627.054 243.44 627.438 243.44C633.198 243.44 628.59 289.904 644.718 289.904C650.478 289.904 648.558 278.384 655.47 273.392C666.606 265.328 669.678 259.568 669.678 244.976C669.678 231.152 663.918 210.416 643.182 210.416C630.126 210.416 613.23 226.16 611.694 232.304C610.542 237.296 599.79 246.896 593.262 255.728C593.646 252.272 594.414 250.352 594.414 248.048C592.11 239.6 590.958 225.776 579.054 225.776C574.83 225.776 570.99 227.312 566.766 227.312C565.998 227.312 564.846 226.928 564.078 226.928C561.006 226.928 551.022 246.128 549.102 250.736C542.958 264.176 532.974 279.152 532.206 293.36C532.206 297.584 527.982 304.88 527.982 311.408C527.982 313.328 527.982 314.864 528.366 316.784C525.294 319.856 522.99 333.68 518.382 334.448L521.454 336.752ZM570.606 304.496L569.454 304.496L570.222 303.344L570.606 304.496Z"/>
<path clip-path="url(#TextBounds)" d="M816.75 213.872C815.982 213.872 814.83 212.72 814.83 211.952C814.83 209.264 819.054 208.112 820.974 208.112C825.966 208.112 829.038 208.496 829.038 216.176C829.038 227.696 823.278 238.448 823.278 249.968C823.278 251.12 823.662 251.504 824.43 251.504C824.814 251.504 826.35 250.736 827.118 250.736C828.654 250.736 828.654 254.192 828.654 255.344C828.654 261.104 820.59 273.776 819.438 274.928C817.902 277.232 817.518 278.384 817.518 281.456C817.518 283.76 818.67 286.448 818.67 288.752C818.67 294.512 814.83 301.808 814.83 306.8C814.83 309.104 816.75 311.408 816.75 314.096C816.75 319.472 811.758 326.384 811.758 333.296C811.758 334.448 812.142 335.216 813.294 335.216C813.294 324.464 821.742 327.152 824.814 318.704L824.814 307.184C823.662 306.032 820.59 305.264 820.59 302.96C820.59 301.424 827.502 294.512 828.27 294.512C828.27 300.272 827.502 312.176 832.494 312.176C841.71 312.176 835.95 292.592 839.79 289.52C847.086 283.76 847.086 248.432 847.086 248.432C851.31 244.208 854.382 246.128 854.382 241.904C854.382 239.984 852.462 236.528 852.462 234.224C852.462 232.688 854.382 231.152 854.382 229.616C854.382 225.008 849.006 227.696 849.006 224.24C849.006 220.4 860.91 220.016 860.91 210.032C860.91 199.664 861.678 184.688 868.59 173.936C871.278 169.712 872.814 164.336 874.734 159.344C875.886 142.064 887.406 125.936 887.406 106.736C887.406 100.208 878.574 94.064 871.662 94.064C857.454 94.064 845.166 105.584 844.014 116.336C842.862 124.4 836.718 128.24 837.102 136.304C834.798 148.592 819.822 158.96 819.822 172.016C819.822 178.16 808.686 181.232 808.686 192.368C808.686 197.36 806.766 201.968 805.614 206.576C805.614 206.96 799.086 220.784 796.782 221.552C788.718 223.856 787.182 242.288 775.662 242.288C769.902 242.288 762.222 238.448 756.462 238.448C753.006 238.448 741.102 241.52 741.102 242.288C738.414 252.272 724.59 254.576 723.822 258.416C721.518 268.016 713.838 280.688 707.694 287.216C700.782 294.512 693.87 309.872 691.566 315.248C688.878 321.776 685.422 325.616 684.654 332.144C684.654 338.672 678.51 342.128 678.51 347.888C678.51 352.112 677.358 356.336 677.358 360.176C677.358 367.472 677.358 381.296 683.502 388.592C688.494 394.352 681.582 398.96 705.774 407.408C707.31 407.792 709.23 408.176 711.15 408.176C714.606 408.176 718.446 406.64 722.286 406.64C724.59 406.64 738.798 392.816 740.718 388.208C747.246 370.544 757.614 357.104 763.758 337.136C764.526 334.448 772.59 315.632 772.59 312.944C772.59 312.56 772.59 312.56 772.59 312.56C780.654 310.64 779.502 295.28 780.654 286.832C782.574 286.064 786.03 279.92 789.102 279.92C794.094 279.92 789.102 263.792 794.862 261.872C797.55 261.872 797.166 269.936 798.318 269.936C803.31 269.936 804.462 246.896 804.462 244.976C804.462 244.976 804.462 244.976 804.462 245.36C804.462 244.976 805.998 244.592 806.766 244.208C806.766 244.976 807.534 247.28 807.918 247.28C810.606 247.28 810.606 242.288 810.606 239.984C810.606 236.912 809.838 233.84 809.838 230.768C809.838 224.624 817.518 220.784 817.518 216.944C817.518 216.176 817.134 215.024 816.75 213.872ZM772.206 259.184C773.358 260.72 774.126 261.872 774.126 263.024C774.126 266.48 767.598 278.384 763.374 281.072C756.462 294.896 747.63 307.568 740.334 321.008C732.27 335.984 714.222 375.536 709.998 375.536C705.39 375.536 705.006 362.096 705.006 359.408C705.006 351.344 709.998 330.224 716.91 318.704C718.446 316.016 719.598 313.328 720.366 310.64C730.734 283.76 752.238 264.56 772.206 259.184ZM798.702 251.888C798.702 250.736 798.318 248.432 798.318 246.896C799.086 247.664 799.086 248.432 799.086 249.2C799.086 250.352 798.702 250.736 798.702 251.888ZM832.878 271.856C834.798 273.008 834.798 272.624 834.798 274.16C834.798 276.08 834.03 276.464 833.262 278C832.878 277.232 832.11 276.464 832.11 275.696C832.11 274.544 832.494 273.392 832.878 271.856ZM838.638 273.008C837.87 273.008 837.486 271.472 837.486 271.088C837.486 269.936 837.87 269.168 838.638 268.784C840.174 268.784 839.79 271.088 839.79 272.24C839.79 272.624 839.022 272.624 838.638 273.008ZM815.982 437.36C815.982 438.512 815.982 439.664 815.982 440.816C815.982 435.824 820.974 436.592 820.974 431.6C820.59 430.832 820.59 429.296 820.59 428.144C820.59 422.384 819.822 411.248 825.582 405.872C826.734 405.488 827.886 403.952 827.886 402.8C827.886 400.88 824.814 400.112 824.814 398.192C824.814 396.656 828.27 394.352 828.27 392.048C828.27 389.744 825.582 387.824 825.582 385.904C825.582 383.216 829.806 380.144 829.806 374.384C829.806 369.776 830.574 365.168 830.574 360.56C830.574 357.104 829.038 354.032 829.038 350.576C829.038 339.056 837.102 336.752 837.102 331.376C837.102 329.072 834.798 319.472 830.958 319.472C828.27 319.472 829.806 329.456 824.046 329.456C823.278 329.456 822.51 329.072 821.742 329.072C820.974 329.072 806.766 352.112 805.23 354.032C803.31 358.256 802.158 363.248 801.39 367.472C801.39 368.624 802.926 369.776 804.078 369.776C806.766 369.776 809.838 353.648 813.294 353.648C813.678 353.648 814.062 354.416 814.062 354.8C814.062 359.792 810.99 371.312 805.23 376.688C805.998 376.688 807.534 376.688 807.534 377.84C807.534 378.224 807.15 378.608 806.766 378.608C805.614 378.608 805.998 377.072 805.614 376.304C803.31 377.84 802.542 379.76 802.542 381.68C802.542 382.832 802.926 383.984 802.926 385.136C802.926 390.512 796.782 390.896 796.782 396.272C796.782 397.808 797.166 398.96 797.166 400.496C797.166 405.104 793.326 409.712 793.326 413.552C793.326 416.624 796.014 418.544 796.014 423.152C796.014 430.448 794.478 439.28 793.326 446.96C794.478 448.88 795.63 450.416 795.63 452.336C795.63 454.64 792.942 457.712 792.942 461.168C792.942 466.928 799.086 483.056 805.23 483.056C817.134 483.056 819.822 462.32 819.822 461.168C819.822 455.024 820.206 449.264 823.278 443.12C823.278 440.432 818.67 439.664 815.982 437.36ZM823.278 342.128C823.278 341.744 822.894 339.056 824.046 338.288C824.814 338.288 825.198 339.056 825.198 339.824C825.198 340.208 822.51 348.272 821.742 355.568C820.59 352.88 820.206 350.576 820.206 348.272C820.206 345.968 820.206 343.664 823.278 342.128ZM801.774 431.6C801.39 430.832 800.238 430.064 800.238 429.68C800.238 428.912 801.39 428.144 801.774 427.376C802.158 428.144 803.31 428.912 803.31 429.68C803.31 430.064 802.158 430.832 801.774 431.6ZM821.742 366.32L821.742 367.472L820.974 367.472L821.742 366.32ZM807.534 389.744C807.15 388.976 805.998 388.592 805.998 388.208C805.998 387.44 806.766 386.672 806.766 386.288C807.918 387.056 808.302 387.056 808.302 387.824C808.302 388.592 807.918 389.36 807.534 389.744ZM816.75 214.256L816.75 213.872C817.134 214.256 817.518 214.256 818.286 214.256C818.67 214.256 819.054 214.256 819.054 213.104C818.286 213.488 817.518 213.872 816.75 214.256Z"/>
<path clip-path="url(#TextBounds)" d="M1019.5 375.92C1019.5 377.84 1019.89 379.376 1019.89 381.296C1019.12 387.824 1019.5 391.28 1012.59 391.28C1013.36 389.744 1013.36 388.592 1015.28 388.592C1016.43 388.592 1017.58 389.744 1019.12 390.128C1017.58 387.44 1017.2 384.752 1017.2 381.68C1017.2 377.072 1019.89 374.384 1023.34 374.384C1024.49 374.384 1026.03 374.768 1027.57 374.768C1029.1 374.768 1029.87 374.384 1029.87 372.848C1029.87 371.696 1029.49 370.544 1029.49 369.392C1029.49 362.864 1040.62 353.648 1044.46 353.648C1045.61 353.648 1047.15 354.032 1048.3 354.032C1050.22 354.032 1051.76 353.264 1052.53 351.728C1057.13 340.208 1082.86 335.216 1090.93 335.216C1092.85 335.216 1094.77 335.984 1097.07 335.984C1101.68 335.984 1109.36 330.608 1109.36 325.232C1109.36 318.32 1096.3 318.32 1090.93 316.784C1084.01 319.472 1076.72 317.168 1069.81 320.624C1067.5 321.776 1065.2 322.16 1062.51 322.16C1051.76 322.16 1056.75 314.48 1050.22 313.328C1049.45 309.488 1049.45 299.888 1046.38 299.888C1045.23 299.888 1042.93 301.808 1041.39 302.96C1037.17 298.736 1039.47 292.976 1037.55 287.984C1029.49 279.92 1023.34 276.08 1008.75 276.08C979.182 276.08 952.686 285.296 933.87 290.288C933.102 290.672 932.334 290.672 931.566 290.672C929.262 290.672 928.11 289.52 928.11 287.984C928.11 284.912 933.486 278.768 935.022 275.312C937.71 266.096 948.078 263.024 949.614 257.264C954.606 238.832 968.046 237.296 974.958 229.232C980.334 221.168 989.934 211.568 1000.69 210.032C1002.22 209.648 1003.37 206.96 1003.37 205.04C1001.84 191.6 979.566 191.216 971.502 189.68C964.59 196.592 958.062 200.048 952.302 209.264C948.078 216.176 937.326 218.864 935.79 223.472C932.334 233.84 920.43 230 917.742 240.368C917.742 240.752 905.07 254.192 901.23 258.032C895.854 263.024 890.862 269.168 890.478 277.616C890.478 281.84 887.406 285.68 887.406 289.52C887.406 292.208 888.558 294.512 888.558 297.2C888.558 298.352 887.79 299.504 887.79 300.656C887.79 311.792 897.006 318.32 909.294 322.928C911.982 324.464 912.366 329.84 914.67 329.84C930.414 329.84 942.702 319.088 942.702 319.088C944.238 319.088 946.158 320.624 948.846 321.776C956.91 316.4 958.83 314.48 967.278 311.792C979.182 308.336 986.862 301.424 991.854 301.424C994.542 301.424 996.846 303.344 999.15 303.344C1000.69 303.344 1002.61 302.576 1004.53 302.576C1010.29 302.576 1013.74 308.336 1013.74 313.328C1010.67 332.912 1012.21 348.656 996.846 352.496C986.862 354.8 984.558 368.24 976.11 368.24C968.43 368.24 968.046 376.304 960.366 377.456C956.526 377.456 951.534 390.896 940.014 393.968C931.182 396.272 930.414 404.336 923.886 408.176C904.686 419.696 897.774 451.184 897.39 454.256C895.47 460.016 890.862 468.08 890.862 469.232C890.862 476.144 902.382 496.112 911.982 496.112C916.59 496.112 916.974 489.2 925.422 489.2C934.638 489.2 940.014 488.816 949.23 481.52C951.534 479.6 953.838 478.064 956.526 477.296C960.366 476.144 961.134 468.848 966.126 468.848C976.11 468.848 970.35 457.712 977.646 454.64C982.638 452.72 980.718 444.272 985.326 443.504C992.238 441.2 991.854 433.136 991.854 425.072C990.318 424.688 988.782 424.304 987.63 423.92L988.014 425.072L987.246 424.304C988.782 424.688 989.934 425.072 991.47 425.072C1001.07 419.696 1007.98 413.552 1007.98 407.408C1007.98 405.872 1006.45 405.104 1005.29 405.104C1002.99 405.104 1001.84 405.488 1000.69 405.488C997.998 405.488 1000.3 395.888 994.542 395.888C993.39 395.888 986.478 408.176 985.326 408.176C985.326 408.176 985.326 408.176 985.326 407.792C985.326 415.088 974.958 427.76 971.118 433.904C966.894 445.04 964.59 456.56 953.838 459.248C944.238 461.936 946.542 474.224 938.478 473.84C936.942 473.84 935.79 473.456 934.254 473.456C931.566 473.456 928.494 474.608 925.422 474.608C922.734 474.608 917.358 473.456 917.358 469.616C918.126 464.24 917.358 458.096 920.43 453.104C926.574 443.504 932.718 427.76 941.55 424.688C949.614 420.08 956.526 408.944 968.43 403.568C981.102 397.808 983.406 383.216 998.382 383.216C998.766 388.976 1000.69 399.344 1006.06 399.344C1016.81 399.344 1022.96 392.816 1022.96 383.216C1022.96 380.144 1021.81 377.84 1019.5 375.92Z"/>
<path clip-path="url(#TextBounds)" d="M1327.09 375.152C1327.09 375.152 1327.09 375.152 1327.09 374.768C1327.09 374.768 1327.09 374.768 1327.09 375.152ZM1331.69 365.168C1331.69 364.784 1331.69 364.784 1331.31 364.784C1331.69 364.784 1331.69 364.784 1331.69 365.168ZM1317.1 390.512L1316.72 390.896C1316.72 390.896 1317.1 390.896 1317.1 390.512ZM1422.32 297.584C1415.79 295.664 1408.11 293.36 1403.12 293.36C1391.6 293.36 1377.39 297.584 1365.49 297.584C1354.35 297.584 1356.27 285.68 1345.52 284.912C1341.68 284.912 1341.29 279.152 1337.07 278.384C1331.69 277.232 1326.7 273.008 1322.09 273.008C1317.49 272.624 1313.26 272.24 1308.65 272.24C1276.4 272.24 1244.14 289.136 1214.96 294.896C1211.89 294.896 1209.2 287.216 1209.2 283.76C1209.2 280.304 1214.57 277.232 1214.57 273.392C1214.57 266.48 1222.64 265.328 1222.64 261.104C1222.64 259.568 1221.87 258.032 1221.49 256.496C1223.02 254.576 1224.94 252.272 1226.48 249.968C1226.86 249.968 1227.63 250.352 1228.01 250.352L1227.63 249.968C1232.24 238.448 1244.53 234.608 1252.21 224.624C1256.81 218.48 1273.33 206.576 1273.33 206.192C1279.85 203.888 1284.46 199.28 1290.22 195.056C1302.51 185.84 1320.17 175.856 1335.53 175.856C1337.84 175.856 1340.14 177.008 1342.83 177.008C1345.9 177.008 1349.74 177.008 1349.74 172.784C1349.74 165.104 1331.31 151.664 1320.56 147.824C1316.33 150.128 1309.81 152.816 1307.12 155.504C1302.51 158.96 1299.05 163.568 1292.53 163.952C1289.07 163.952 1277.93 175.472 1271.41 178.928C1256.81 186.608 1243.37 204.656 1226.48 214.256C1224.94 215.024 1224.17 217.328 1223.41 218.864C1223.79 220.016 1224.17 220.784 1224.17 221.552C1224.17 226.16 1213.81 229.616 1211.12 236.144C1209.97 238.832 1208.43 241.136 1206.13 242.672C1197.29 249.584 1191.15 257.648 1191.15 269.168C1190.38 276.848 1182.32 278.384 1182.32 286.832C1182.32 291.824 1184.24 295.28 1184.24 299.504C1184.24 300.656 1183.85 302.192 1183.85 303.344C1183.85 321.008 1219.18 321.776 1219.18 321.776C1235.31 321.776 1260.65 309.488 1278.7 299.12C1284.85 294.512 1293.68 297.2 1300.59 293.36C1302.13 293.744 1303.28 293.744 1304.81 293.744C1308.65 293.744 1312.49 292.976 1316.33 292.976C1323.25 292.976 1325.55 301.04 1325.55 306.032C1325.55 316.016 1319.02 317.936 1311.34 322.16C1307.89 328.688 1295.6 328.688 1290.61 334.064C1284.46 340.592 1274.86 345.2 1267.18 350.192C1254.51 358.256 1239.15 373.616 1234.54 383.984C1231.09 392.048 1214.19 401.264 1214.19 412.016C1214.19 427.376 1223.79 437.36 1236.08 437.36C1263.34 437.36 1276.78 420.848 1285.23 418.544C1287.53 418.544 1289.45 421.616 1292.53 421.616C1292.14 421.616 1322.09 404.72 1322.09 398.96C1321.71 398.192 1321.33 397.808 1320.56 397.808C1318.64 397.808 1316.33 398.96 1314.41 399.344C1313.26 399.344 1312.49 398.192 1312.49 397.04C1312.49 395.504 1315.57 392.816 1317.1 390.896C1317.1 390.896 1317.1 390.896 1316.72 390.896C1324.78 381.296 1328.24 373.232 1331.31 364.784C1330.54 364.4 1330.54 363.248 1330.54 362.864C1330.54 355.952 1346.29 343.664 1347.82 343.664C1348.97 343.664 1350.89 344.432 1352.05 344.432C1356.27 344.432 1360.49 328.304 1362.03 325.232C1380.46 312.56 1389.29 307.568 1404.65 307.568C1407.34 307.568 1410.03 308.72 1412.72 308.72C1415.79 308.72 1423.09 302.576 1423.09 299.888C1423.09 298.736 1422.7 297.584 1422.32 297.584ZM1297.13 401.648C1297.13 402.032 1297.13 402.416 1296.75 402.416L1296.37 402.032C1296.37 402.032 1296.37 401.648 1296.75 401.648C1296.75 401.648 1296.75 401.648 1296.37 401.648L1296.75 401.648L1297.13 401.264C1297.13 401.264 1297.52 401.264 1297.52 401.648L1297.13 401.648ZM1308.27 369.776C1303.66 373.616 1295.98 379.376 1295.98 385.136C1295.98 387.824 1282.16 397.424 1280.24 404.336C1278.7 410.096 1256.81 416.624 1257.2 418.16C1257.2 418.16 1257.2 418.16 1257.97 418.16C1257.2 418.16 1255.66 417.392 1254.51 417.392C1250.67 417.392 1247.21 419.696 1243.76 420.848C1242.99 418.928 1242.61 417.008 1242.61 415.088C1242.61 398.576 1276.01 372.848 1279.47 371.312C1284.08 368.624 1292.14 360.56 1292.14 360.56C1297.52 358.64 1305.97 349.808 1311.34 349.808C1314.41 349.808 1314.41 352.88 1314.41 355.184C1314.41 360.56 1312.88 365.552 1308.27 369.776ZM1316.72 381.68L1316.33 382.064C1315.18 382.064 1315.57 381.296 1315.18 380.528C1315.57 380.144 1316.33 380.144 1316.33 380.144C1316.72 380.144 1317.49 380.912 1317.49 380.912C1317.49 381.296 1317.1 381.68 1316.72 381.68ZM1348.21 335.984C1348.21 335.984 1348.21 335.984 1348.21 335.6C1348.21 335.6 1348.21 335.6 1348.59 335.6L1349.36 335.6L1348.97 335.6C1348.97 335.984 1348.97 336.368 1348.59 336.368L1348.21 335.984Z"/>
<path clip-path="url(#TextBounds)" d="M1401.97 278.384C1402.73 279.152 1407.34 299.888 1407.73 301.424C1407.73 307.952 1403.89 315.248 1403.89 319.472C1403.89 322.16 1407.34 325.232 1407.34 327.152C1407.34 330.608 1399.66 332.912 1399.66 344.432C1399.66 347.504 1401.58 350.576 1401.58 353.648C1401.58 356.72 1398.51 358.64 1398.51 360.944C1398.51 363.632 1401.2 365.168 1401.2 368.24C1401.2 377.84 1396.21 387.44 1396.21 397.424C1396.21 404.336 1399.28 411.248 1399.28 418.16C1399.28 421.232 1398.89 424.304 1398.89 426.992C1398.89 428.912 1398.89 430.832 1399.66 432.368C1398.89 435.44 1397.74 438.128 1397.74 441.2C1397.74 445.04 1400.81 447.728 1400.81 452.72C1400.81 457.712 1405.81 460.784 1405.81 464.24C1405.81 466.928 1403.12 470 1403.12 473.072C1403.12 474.224 1403.5 475.376 1403.5 476.528C1403.5 478.064 1403.12 479.984 1403.12 481.52C1403.12 488.816 1407.34 495.728 1407.34 503.024C1407.34 508.784 1413.49 516.08 1420.01 516.08C1436.53 516.08 1434.99 506.48 1434.99 500.336C1434.99 494.96 1430.77 489.968 1430.77 484.976C1430.77 476.912 1430.38 466.16 1425.77 460.016C1423.47 457.328 1423.09 451.568 1423.09 447.344C1423.09 444.656 1423.85 441.584 1423.85 438.896C1423.85 435.824 1422.32 433.136 1422.32 430.064C1422.32 415.856 1426.93 395.888 1432.3 395.888C1434.99 395.888 1439.98 398.192 1443.82 398.192C1453.04 398.192 1491.44 387.056 1491.44 378.224C1491.44 373.232 1503.34 374 1505.65 366.32C1506.8 356.72 1522.93 348.656 1527.15 336.752C1529.84 328.304 1535.98 320.624 1541.36 313.328C1544.43 309.104 1542.89 302.192 1546.35 298.736C1550.19 292.208 1551.34 278 1551.34 270.704C1551.34 267.632 1550.19 264.944 1549.42 262.256L1540.97 251.12C1536.37 250.736 1534.06 244.976 1531.76 244.976C1527.53 243.056 1522.93 241.52 1517.93 241.52C1490.67 241.52 1461.87 269.936 1452.27 282.992C1447.28 289.904 1439.98 305.264 1433.45 305.264C1431.15 305.264 1428.85 304.496 1426.54 303.344C1426.93 304.496 1426.93 306.032 1427.31 307.184C1427.31 308.72 1426.16 308.72 1426.16 308.72C1425.77 308.72 1425.77 308.72 1425.77 308.336C1425.77 302.96 1430.77 299.504 1430.77 296.048C1430.77 294.896 1429.23 292.976 1429.23 291.44C1429.23 282.608 1434.22 273.392 1434.22 267.248C1434.22 248.816 1445.36 236.912 1445.36 223.472C1445.36 208.496 1432.3 201.2 1422.32 201.2C1412.72 201.2 1410.8 216.176 1410.8 224.24C1410.8 228.464 1411.57 233.456 1412.33 238.448C1408.88 243.824 1406.19 245.744 1406.19 251.12C1406.19 256.496 1407.73 261.488 1407.73 266.864C1407.73 272.24 1407.34 277.616 1401.97 278.384ZM1468.78 291.824C1484.14 286.832 1499.89 262.256 1516.78 262.256C1521.01 262.256 1523.31 262.256 1523.31 270.704C1523.31 279.152 1519.85 287.6 1519.09 295.664C1516.4 323.312 1496.81 347.888 1487.98 356.72C1474.93 365.168 1458.03 377.072 1441.9 377.072C1438.45 377.072 1436.53 375.152 1436.53 371.312C1436.53 334.448 1454.19 323.312 1460.33 308.72C1460.72 307.184 1461.49 305.648 1462.64 305.264C1467.63 302.576 1468.78 297.968 1468.78 291.824ZM1424.62 319.088C1424.24 322.16 1421.55 326 1419.63 326C1419.25 326 1418.86 325.232 1418.86 324.848C1419.25 322.544 1420.78 317.936 1423.85 317.936C1424.24 318.32 1424.24 318.704 1424.62 319.088ZM1413.49 334.448C1413.1 335.216 1412.72 335.984 1412.33 336.752C1411.95 335.984 1411.18 335.216 1411.18 334.448C1411.18 333.68 1411.95 332.912 1412.33 332.144C1412.72 332.912 1413.1 333.68 1413.49 334.448ZM1413.1 428.912C1412.72 429.296 1412.33 430.064 1411.95 430.448C1411.57 430.064 1411.18 429.68 1411.18 429.296C1411.57 428.528 1411.95 428.144 1411.95 427.376C1412.33 427.76 1412.72 428.528 1413.1 428.912Z"/>
<path clip-path="url(#TextBounds)" d="M1592.43 286.448C1592.81 287.984 1593.2 289.52 1593.2 291.056C1593.2 292.592 1592.43 292.208 1592.05 292.592C1591.66 292.208 1591.28 291.44 1591.28 290.672C1591.28 289.136 1592.05 287.6 1592.81 286.448C1587.05 294.512 1588.59 306.8 1583.21 313.328C1578.22 319.472 1578.61 337.136 1578.61 344.816C1578.61 347.888 1581.29 350.96 1581.29 353.648C1581.29 355.568 1579.37 357.872 1579.37 359.792C1579.37 362.48 1580.91 364.784 1580.91 367.088C1580.91 368.624 1579.76 370.16 1579.76 371.312C1579.76 374.384 1583.98 377.456 1583.98 380.912C1583.98 382.832 1583.21 384.752 1583.21 386.288C1583.21 387.44 1587.82 400.88 1594.35 404.336C1595.89 405.104 1597.04 407.024 1597.81 408.944C1605.87 420.848 1616.24 420.464 1631.21 422C1633.52 420.464 1635.82 418.928 1638.51 417.392C1639.66 418.16 1641.2 418.544 1642.35 418.544C1648.88 418.544 1674.22 387.44 1680.37 385.136C1686.89 382.832 1692.65 365.552 1703.41 360.176C1707.63 360.176 1709.55 354.032 1709.55 350.96C1709.55 347.12 1730.29 329.84 1730.29 329.84C1734.13 327.152 1745.65 322.544 1745.65 317.552C1745.65 314.48 1741.81 313.328 1739.5 313.328C1727.6 313.328 1711.47 331.76 1707.25 335.6C1687.28 353.264 1666.93 369.392 1646.19 386.288C1641.97 389.744 1635.05 394.352 1629.29 394.352C1615.47 394.352 1614.32 362.096 1614.32 344.816C1614.32 338.672 1614.7 327.92 1622 327.92C1627.37 327.92 1632.75 329.456 1638.13 329.456C1659.63 329.456 1681.52 309.488 1685.74 301.424C1687.66 297.584 1690.35 295.28 1693.04 292.592C1696.11 289.136 1697.65 282.992 1701.49 281.072C1705.33 278.384 1706.86 274.544 1706.86 269.936C1706.86 267.632 1706.48 265.328 1706.48 262.64C1706.48 261.488 1706.86 259.952 1706.86 258.8C1706.86 238.064 1674.22 223.472 1654.25 223.472C1648.11 223.472 1645.42 229.232 1640.43 231.152C1631.98 234.608 1626.99 242.288 1621.23 248.048C1618.54 256.496 1605.49 259.952 1602.03 270.704C1600.11 276.848 1596.27 281.84 1592.43 286.448ZM1628.91 305.648C1622.77 304.88 1620.85 304.88 1620.85 302.192C1620.85 291.824 1641.2 251.12 1666.54 251.12C1674.22 251.12 1675.76 261.872 1675.76 268.4C1675.76 292.976 1642.73 303.344 1628.91 305.648Z"/>
<path clip-path="url(#TextBounds)" d="M1722.61 372.464C1729.9 373.232 1727.21 377.072 1728.37 379.76C1728.37 395.888 1742.57 404.336 1755.25 404.336C1773.29 404.336 1772.53 403.952 1791.73 369.008C1799.41 352.88 1812.85 323.312 1815.53 322.544C1825.13 319.856 1823.6 313.712 1825.9 304.112C1826.67 300.656 1840.49 288.368 1841.26 288.368C1846.25 285.68 1847.41 282.224 1850.09 276.08C1859.69 276.08 1855.09 266.48 1861.23 265.328C1864.3 264.944 1866.99 264.176 1870.45 263.408C1870.83 267.632 1872.75 271.472 1872.75 276.08C1868.91 283.376 1866.99 278.384 1866.99 305.264C1866.99 307.184 1866.99 309.488 1867.37 311.408C1867.37 315.632 1861.61 322.544 1861.23 330.224C1859.31 362.864 1855.85 400.88 1855.85 430.832C1855.85 436.208 1861.61 438.128 1861.61 444.656C1861.61 448.496 1861.23 452.336 1861.23 456.176C1861.61 462.704 1860.85 469.616 1866.61 474.608C1868.53 475.76 1866.99 480.368 1870.83 483.824C1877.36 489.968 1881.97 496.112 1891.57 496.112C1897.33 496.112 1906.54 496.112 1909.61 489.2C1912.3 483.056 1917.68 478.448 1918.83 470.384C1918.83 462.32 1918.83 449.264 1921.9 443.504C1925.74 438.512 1923.44 432.368 1926.13 428.528C1931.12 418.928 1933.04 404.72 1935.73 393.968C1938.41 382.832 1944.56 372.464 1946.09 360.944C1946.09 349.04 1966.45 324.464 1969.13 320.24C1969.52 319.856 1969.9 319.088 1969.9 318.32C1969.9 314.48 1964.14 312.56 1961.45 312.56C1953.39 312.56 1942.25 325.232 1939.57 335.216C1939.18 336.752 1938.41 339.056 1936.88 340.208C1926.13 350.192 1928.05 359.792 1924.21 374.384C1923.05 379.376 1919.21 379.76 1918.83 383.6C1913.84 397.424 1910 411.248 1905.77 426.224C1905.77 434.672 1896.94 463.472 1891.18 463.472C1890.03 463.472 1885.81 450.032 1885.81 448.496C1885.81 446.96 1886.19 445.04 1886.57 443.504C1884.27 441.2 1883.5 438.512 1883.5 435.824C1883.5 433.52 1883.89 430.448 1883.89 427.76C1883.89 422 1883.5 416.24 1883.5 410.096C1883.5 392.432 1887.34 372.848 1887.34 355.184C1887.34 347.12 1893.49 339.056 1893.49 333.296C1893.49 304.496 1904.62 275.312 1904.62 250.352C1904.62 232.304 1892.72 228.08 1884.27 228.08C1874.67 228.08 1870.83 234.608 1864.3 237.296C1852.4 241.904 1845.87 254.192 1835.89 259.184C1827.05 247.664 1818.22 239.6 1800.56 239.6C1774.06 239.6 1769.45 258.8 1758.7 274.16C1745.26 293.36 1742.57 306.032 1737.97 317.936C1733.36 329.84 1728.37 342.512 1728.37 355.184C1727.98 358.64 1725.68 360.176 1722.61 360.944L1722.61 372.464ZM1827.05 266.864C1827.05 268.016 1827.44 268.784 1827.44 269.552C1827.44 273.392 1821.68 281.072 1821.68 281.072C1813.23 287.6 1808.62 297.584 1800.56 304.112C1796.33 307.568 1793.26 312.176 1790.57 316.4C1785.2 325.232 1765.23 352.112 1763.69 352.112C1761.77 352.112 1761.39 350.96 1761.39 349.424C1767.15 320.24 1785.2 282.992 1809.39 266.864C1812.08 265.328 1814.38 264.56 1817.45 264.56C1820.14 264.56 1824.37 265.712 1827.05 266.864Z"/>
<path clip-path="url(#TextBounds)" d="M1968.75 440.048C1968.37 440.048 1967.98 439.664 1967.6 439.28C1967.98 439.664 1967.98 439.664 1968.37 440.048C1967.6 441.584 1967.21 443.12 1967.21 444.272C1967.21 449.648 1971.44 455.408 1976.81 455.408C1988.72 455.408 1991.41 437.36 1991.41 432.368C1991.41 425.456 1982.57 404.72 1981.81 404.336C1980.27 403.568 1979.5 403.184 1979.5 402.8C1979.5 401.648 1983.34 398.576 1983.34 396.656C1983.34 393.584 1977.2 372.464 1974.51 372.08C1973.36 371.696 1972.97 370.544 1972.97 369.392C1972.97 367.088 1979.12 360.944 1979.12 360.176C1981.04 360.176 1989.87 362.48 1994.48 369.776C2001.77 381.296 2013.29 389.36 2022.51 398.576C2025.58 401.264 2030.57 401.648 2032.11 406.64C2036.33 414.704 2072.81 421.232 2074.35 421.232C2083.95 421.232 2091.25 415.856 2095.47 407.792C2084.72 390.512 2070.51 396.656 2059.37 385.136C2052.46 376.304 2042.48 372.08 2035.57 364.4C2024.43 352.112 2008.3 335.216 2004.85 321.392C2005.61 319.856 2006.77 318.32 2007.92 317.168C2020.21 306.8 2032.11 289.52 2038.25 276.848C2043.25 266.096 2051.31 251.888 2051.31 241.904C2051.31 236.528 2045.93 228.848 2039.41 228.848C2014.83 228.848 1984.49 276.464 1980.65 276.464C1979.89 276.464 1979.12 275.696 1979.12 274.928C1979.89 272.24 1980.27 269.168 1981.04 266.48C1979.89 265.328 1979.5 264.176 1979.5 262.64C1979.5 259.568 1983.73 257.264 1983.73 252.272C1983.73 241.136 1984.11 228.848 1988.33 218.48C1989.1 216.944 1989.87 215.408 1989.87 213.872C1989.87 212.336 1989.49 210.8 1987.57 209.648C1987.57 199.664 1992.17 190.832 1992.17 186.224C1992.17 165.872 1998.7 144.368 1998.7 125.936C1998.7 109.04 1996.01 103.664 1982.96 103.664C1977.2 103.664 1965.68 105.584 1965.68 109.04C1965.68 111.344 1966.83 114.032 1966.83 116.336C1966.83 125.936 1963.37 136.304 1963.37 145.904C1963.37 149.36 1965.29 152.816 1965.29 156.656C1965.29 166.64 1958.38 172.016 1958.38 175.088C1958.38 178.16 1961.45 182 1961.45 185.84C1961.45 191.216 1957.61 193.904 1957.61 196.592C1957.61 198.512 1959.15 200.432 1959.15 202.736C1959.15 205.04 1956.46 206.576 1956.46 208.88C1956.46 211.952 1958 215.024 1958 218.096C1958 229.232 1953.39 241.52 1953.39 253.04C1953.39 257.264 1957.23 260.72 1957.23 264.56C1957.23 269.552 1952.24 278.384 1952.24 285.296C1952.24 289.136 1953.77 293.36 1953.77 297.2C1953.77 298.736 1953.01 300.656 1953.01 302.192C1953.01 306.032 1957.23 308.336 1957.23 311.792C1957.23 315.248 1952.24 318.32 1952.24 322.928C1951.47 331.376 1950.7 340.208 1950.7 348.656C1950.7 355.184 1956.08 358.64 1956.08 364.784C1956.46 369.008 1956.46 373.232 1957.23 377.456C1957.23 382.064 1953.77 384.752 1953.77 387.44C1953.77 391.664 1957.23 397.04 1957.23 402.032C1957.23 408.944 1959.15 428.528 1959.92 428.912C1964.14 431.6 1963.76 438.128 1968.75 440.048ZM1972.97 275.312C1972.59 275.696 1972.21 276.08 1971.44 276.08C1971.05 276.08 1970.67 276.08 1970.29 275.696C1970.29 275.696 1970.67 274.928 1971.05 274.928C1971.82 274.928 1972.59 274.928 1972.97 275.312ZM2036.33 241.904C2036.33 257.648 2025.2 272.24 2024.05 274.16C2014.83 285.68 2010.22 297.2 1994.09 306.032C1993.33 306.416 1992.56 306.416 1991.79 306.416C1987.57 306.416 1984.11 304.88 1984.11 302.192C1984.11 295.664 1994.48 281.84 1998.32 274.544C2005.61 261.104 2024.81 240.752 2034.8 240.752C2035.18 240.752 2035.95 241.136 2036.33 241.904ZM1969.13 350.576C1969.13 352.112 1969.9 357.104 1964.53 358.256C1963.76 358.256 1962.22 356.336 1962.22 355.184C1962.22 354.8 1968.37 344.432 1968.37 344.432C1969.13 344.432 1969.13 345.584 1969.13 347.12C1969.13 347.888 1969.13 349.424 1969.13 350.576ZM1968.37 390.128C1966.45 386.672 1966.83 382.832 1966.45 379.376C1966.45 378.992 1967.21 378.224 1967.6 378.224C1969.52 380.144 1969.52 382.448 1969.52 385.52C1969.52 387.056 1969.13 388.592 1968.37 390.128ZM1972.97 408.56C1973.36 408.176 1973.36 406.256 1973.74 406.256C1974.51 406.256 1975.28 407.792 1975.28 409.328C1975.28 410.864 1974.89 411.248 1973.74 412.4C1973.36 411.632 1972.59 410.48 1972.59 409.712C1972.59 409.328 1972.97 408.944 1972.97 408.56ZM1969.52 369.008C1969.13 370.16 1967.98 370.928 1967.6 370.928C1966.83 370.928 1966.06 370.16 1966.06 369.008C1966.06 367.856 1967.21 367.472 1968.37 367.088C1968.75 367.472 1969.13 368.24 1969.52 369.008ZM1968.75 300.656C1967.21 299.12 1967.6 299.504 1967.6 298.352C1967.6 297.2 1967.6 296.048 1968.75 295.664C1969.52 296.432 1969.9 297.2 1969.9 297.584C1969.9 299.12 1968.75 300.272 1968.75 300.656ZM1962.99 339.056C1962.22 338.288 1961.84 338.288 1961.84 337.136C1961.84 336.368 1961.84 334.448 1962.99 334.448C1963.37 335.6 1963.76 336.752 1963.76 337.904C1963.76 338.288 1963.37 338.672 1962.99 339.056ZM1974.13 351.728L1974.51 352.88L1973.36 352.88L1974.13 351.728Z"/>
<path clip-path="url(#TextBounds)" d="M2332.4 284.528C2333.55 278.768 2338.16 279.152 2339.69 275.312C2344.3 256.496 2350.83 260.336 2350.83 248.432C2350.83 234.992 2362.35 241.136 2363.12 233.072C2363.5 229.232 2363.12 222.32 2366.19 221.168C2372.72 219.248 2370.03 209.264 2378.09 204.272C2379.25 203.888 2385.01 188.528 2385.01 186.224C2385.01 183.536 2379.25 182.384 2376.94 182.384C2371.57 182.384 2360.81 193.136 2360.05 195.056C2351.98 212.72 2340.85 233.456 2331.63 246.896C2328.56 251.504 2329.71 258.032 2326.64 261.872C2320.49 270.32 2328.17 293.744 2310.51 293.744C2310.51 297.968 2310.51 301.424 2310.51 305.648C2310.51 312.176 2300.14 312.56 2297.45 321.008C2292.46 335.216 2280.56 377.072 2271.73 377.072C2267.89 377.072 2268.27 368.624 2268.27 368.24C2268.27 353.264 2259.82 350.192 2259.82 345.2C2259.82 338.672 2259.05 332.144 2259.05 325.232C2253.29 321.008 2253.68 319.088 2253.68 314.096C2253.68 310.256 2254.83 306.8 2254.83 302.96C2254.83 298.352 2250.99 294.512 2250.99 289.52C2250.99 286.832 2251.76 283.76 2251.76 281.072C2251.76 276.08 2249.07 271.856 2249.07 266.48C2249.07 256.496 2249.07 244.208 2244.46 235.76C2244.08 235.376 2243.69 234.608 2243.69 233.84C2243.69 231.536 2246 228.848 2246 226.544C2246 225.392 2245.61 224.24 2245.23 223.472C2239.85 211.568 2243.31 198.512 2239.47 186.608C2233.33 168.56 2236.01 141.296 2214.89 138.992C2209.9 138.992 2199.15 140.912 2199.15 145.52C2199.15 169.712 2202.61 200.432 2206.06 218.864C2208.75 222.32 2207.98 226.928 2207.98 228.464C2207.98 231.92 2212.97 233.84 2212.97 237.296C2212.97 241.904 2210.67 248.048 2210.67 256.496C2210.67 261.104 2211.44 265.328 2214.89 269.168C2216.43 270.704 2217.58 287.6 2217.97 293.36C2218.73 304.496 2217.97 315.248 2223.73 325.616C2229.87 337.136 2229.1 338.672 2231.02 350.192C2232.17 359.408 2236.78 371.696 2236.78 377.84C2236.78 392.816 2249.07 401.648 2249.07 416.624C2249.07 436.208 2272.11 437.36 2272.11 437.36C2273.65 437.36 2274.8 436.208 2276.33 436.208C2278.25 436.208 2279.41 437.36 2281.33 437.36C2284.4 437.36 2287.09 432.752 2291.69 431.984C2302.06 430.064 2302.83 426.608 2304.37 415.088C2304.37 408.176 2311.66 407.024 2312.43 400.496C2312.43 395.504 2316.27 390.128 2316.27 384.368C2316.27 383.216 2316.27 382.064 2315.89 380.912C2315.89 375.92 2320.49 371.312 2320.49 359.792C2320.49 350.192 2327.41 342.512 2327.41 334.832C2327.41 328.304 2320.49 333.68 2320.49 322.16C2320.49 318.704 2320.49 315.632 2322.03 315.632C2324.33 315.632 2323.57 326.384 2326.25 326.384C2326.64 326.384 2327.79 326 2327.79 325.232C2327.02 323.312 2326.64 321.392 2326.64 319.472C2326.64 313.328 2332.78 308.336 2332.78 294.896C2332.78 292.208 2327.41 292.592 2327.41 291.056C2327.41 290.288 2330.86 286.448 2332.4 284.528ZM2354.67 221.168C2354.67 221.552 2354.29 221.936 2354.29 222.32C2353.9 221.552 2353.52 220.784 2353.13 220.4C2353.13 220.016 2353.52 219.632 2353.9 219.248C2355.05 219.248 2354.29 221.552 2354.67 221.168ZM2322.8 297.584C2323.18 298.352 2323.95 299.888 2323.95 300.272C2323.95 300.656 2323.18 301.04 2322.8 301.04C2322.03 301.04 2322.03 299.12 2322.03 298.352C2322.03 297.968 2322.8 297.584 2322.8 297.584ZM2339.69 256.88C2338.93 257.648 2338.93 258.032 2337.77 258.032C2337.01 258.032 2336.24 257.264 2336.24 256.112C2336.24 255.344 2336.24 254.96 2337.01 254.192C2338.93 254.192 2340.08 257.264 2339.69 256.88Z"/>
<path clip-path="url(#TextBounds)" d="M2591.6 270.704C2571.25 271.856 2552.81 279.92 2533.61 286.448C2532.46 286.832 2531.31 287.216 2530.16 287.216C2523.63 287.216 2522.48 279.152 2520.94 273.008C2516.72 258.8 2502.51 243.056 2491.76 239.216C2482.54 236.144 2474.09 228.08 2463.73 228.08C2457.2 228.08 2451.05 228.08 2445.29 228.08C2419.95 228.08 2404.59 231.536 2404.59 271.472C2404.59 282.608 2415.34 298.352 2415.34 306.416C2415.34 315.248 2407.28 334.448 2407.28 339.44C2407.28 346.736 2404.21 353.648 2404.21 361.328C2404.21 400.88 2431.47 421.232 2431.47 421.232C2439.15 426.608 2448.37 428.144 2456.43 430.448C2461.42 427.376 2475.25 419.312 2477.93 419.312C2478.32 419.312 2478.32 419.696 2478.32 419.696C2505.58 392.432 2507.12 383.216 2512.49 376.304C2518.25 369.008 2511.73 357.104 2520.17 352.496C2521.71 350.96 2527.85 320.24 2527.85 317.936C2529.39 306.8 2532.08 304.496 2546.67 297.2C2557.81 291.824 2570.09 285.68 2583.15 284.528C2595.44 283.376 2599.28 279.92 2599.28 276.848C2599.28 273.392 2594.29 269.936 2592.37 269.936C2591.98 269.936 2591.6 270.32 2591.6 270.704ZM2506.73 327.536C2505.58 334.448 2506.35 345.2 2502.13 347.888C2495.21 352.496 2480.24 398.576 2461.42 398.576C2451.44 398.576 2446.45 382.832 2446.45 375.152C2446.45 370.544 2449.13 364.4 2449.13 359.408C2449.13 357.488 2448.75 355.568 2448.75 353.648C2448.75 341.744 2451.44 330.224 2459.12 328.304C2474.09 328.304 2487.92 322.544 2501.74 317.552C2507.5 317.552 2505.97 322.544 2506.73 327.536ZM2451.05 241.136C2477.55 241.136 2493.68 266.48 2503.28 287.216C2504.43 289.52 2504.43 291.824 2504.43 294.128C2504.43 302.96 2482.16 307.184 2472.17 308.336C2470.25 308.336 2467.18 307.952 2467.18 304.88C2467.18 301.424 2472.56 294.512 2472.56 291.056C2472.56 282.224 2449.13 276.464 2446.83 275.696C2444.14 274.544 2442.22 274.16 2441.07 274.16C2438.38 274.16 2437.23 276.464 2431.85 281.84C2431.85 282.224 2431.47 282.224 2431.09 282.224C2426.09 282.224 2426.09 274.16 2426.09 270.704C2426.09 259.568 2433.01 243.824 2444.91 242.288C2447.21 241.904 2449.52 241.52 2451.05 241.136Z"/>
<path clip-path="url(#TextBounds)" d="M2613.87 322.16C2613.87 322.544 2613.87 322.928 2613.87 322.928C2615.02 315.632 2616.17 312.56 2617.33 302.96C2617.33 299.12 2613.87 297.2 2613.87 294.128C2613.87 291.056 2617.33 287.984 2617.33 284.912C2617.33 282.608 2615.79 280.304 2615.79 278C2615.79 272.24 2618.86 265.328 2618.86 258.416C2618.86 255.344 2617.33 252.272 2617.33 249.2C2617.33 246.128 2618.86 241.52 2618.86 238.448C2618.86 236.528 2617.71 234.992 2617.71 233.072C2617.71 231.92 2618.86 230.384 2618.86 228.848C2618.86 226.544 2617.33 225.008 2617.33 222.704C2618.09 217.328 2616.94 211.952 2619.63 206.96C2619.63 206.96 2620.01 206.576 2620.01 206.192C2620.01 203.888 2618.48 201.968 2618.48 200.048C2618.48 183.536 2623.09 156.272 2623.09 136.304C2623.09 125.936 2621.93 123.248 2609.26 123.248C2602.35 123.248 2591.6 123.632 2591.6 132.08C2591.6 136.304 2593.9 140.144 2593.9 145.52C2593.9 151.28 2593.52 157.04 2593.52 163.184C2593.52 165.872 2593.9 168.944 2593.9 172.016C2593.9 179.696 2591.21 190.832 2591.21 199.28C2591.21 202.352 2591.98 205.04 2591.98 207.728C2591.98 211.184 2589.68 214.256 2589.68 217.712C2589.68 221.552 2590.83 225.008 2590.83 228.464C2590.83 230 2590.45 231.152 2590.06 231.92C2587.76 244.976 2584.69 256.496 2584.69 270.32C2584.69 278.768 2588.91 286.448 2588.91 295.664C2588.91 303.344 2588.53 311.024 2588.14 318.704C2588.14 321.008 2588.53 323.312 2588.53 325.616C2588.53 330.224 2582 325.232 2582 332.528C2582.38 336.368 2582.38 339.824 2582.38 343.664C2582.38 352.496 2580.08 361.328 2580.08 370.16C2580.08 376.304 2582.38 381.68 2582.38 388.208C2582.38 393.2 2582 400.496 2582 407.024C2582 429.68 2588.14 424.688 2588.14 442.736C2588.14 446.192 2588.53 448.88 2589.68 450.032C2598.13 458.096 2598.13 489.584 2615.02 491.504C2617.71 491.504 2620.78 489.584 2623.47 489.584C2625.77 489.584 2627.31 492.272 2629.23 492.272C2629.61 492.272 2636.91 486.128 2638.06 482.672C2639.98 477.296 2649.2 477.296 2652.27 467.312C2655.73 455.408 2661.87 445.424 2662.25 431.984C2662.25 430.448 2661.87 428.912 2661.87 427.76C2661.87 425.84 2662.25 423.92 2662.25 422C2662.25 419.696 2661.1 417.776 2661.1 415.856C2661.1 415.088 2661.49 414.32 2661.87 413.552C2663.79 413.552 2665.71 413.936 2667.25 413.936C2670.32 399.728 2668.4 385.136 2669.55 370.928C2671.47 369.776 2673.01 369.008 2674.54 367.856C2675.69 353.648 2674.93 318.704 2678.38 318.704C2680.3 318.704 2680.69 321.392 2682.22 321.392C2686.06 321.392 2692.21 296.048 2701.04 289.52C2707.18 283.376 2716.4 274.16 2716.4 265.328C2716.4 263.408 2712.56 262.256 2710.25 262.256C2704.11 262.256 2691.05 273.008 2690.29 276.464C2688.37 282.992 2683.37 287.984 2682.22 294.512C2681.07 299.504 2680.3 310.256 2677.23 311.792C2668.01 316.784 2664.94 330.992 2664.94 340.976C2664.94 344.048 2665.71 347.504 2665.71 350.576C2665.71 357.488 2665.71 367.856 2663.02 370.544C2660.33 370.544 2661.1 355.952 2659.18 355.952C2656.49 355.952 2659.18 364.784 2655.34 364.784C2654.57 364.784 2653.81 364.784 2652.65 364.4C2643.05 382.832 2630.38 437.36 2624.62 437.36C2622.32 436.976 2622.7 428.912 2622.32 423.152C2621.93 423.536 2621.55 423.536 2621.17 423.536C2611.95 423.536 2610.41 416.24 2610.41 408.944C2610.41 403.952 2610.8 400.88 2610.8 396.272C2610.8 385.136 2616.94 382.832 2616.94 369.776C2616.94 363.632 2616.56 354.416 2615.41 354.416C2614.25 354.416 2613.49 355.568 2613.1 355.568C2611.95 355.568 2611.57 352.496 2611.57 350.96C2611.57 344.432 2616.94 343.664 2616.94 334.064C2616.94 328.304 2616.56 324.848 2613.87 322.16ZM2586.61 365.552C2585.84 364.016 2585.45 362.48 2585.45 361.328C2585.45 358.256 2586.22 356.336 2588.14 356.336C2590.06 356.336 2593.13 358.256 2593.13 360.56C2593.13 364.016 2588.91 364.4 2586.61 365.552ZM2648.05 388.976C2648.05 390.512 2648.05 392.816 2648.05 394.736C2648.05 398.192 2648.05 400.88 2647.28 400.88C2646.89 400.496 2646.51 400.112 2646.51 400.112C2646.51 396.272 2646.51 392.432 2646.89 388.592L2648.05 388.976ZM2670.7 352.496C2670.7 356.336 2671.09 357.488 2671.09 359.024C2671.09 359.408 2670.7 359.792 2670.7 360.176C2670.32 359.792 2669.93 359.024 2669.93 358.256C2669.93 357.104 2670.32 355.952 2670.7 352.496ZM2618.86 438.896C2619.25 439.28 2620.01 440.432 2620.01 440.816C2619.63 442.352 2618.86 443.12 2618.48 444.656C2617.71 443.888 2617.33 443.12 2617.33 441.968C2617.33 440.816 2617.33 438.896 2618.86 438.896ZM2663.41 383.984C2662.64 383.984 2661.87 383.6 2661.87 382.832C2662.25 381.68 2662.64 380.912 2663.79 380.912C2664.56 380.912 2664.94 381.296 2664.94 382.064C2664.94 382.832 2664.17 383.216 2663.41 383.984ZM2607.73 383.216C2607.34 383.6 2606.96 384.368 2606.57 384.752C2606.19 384.368 2606.19 383.984 2606.19 383.6C2606.19 382.832 2606.57 382.064 2606.96 381.296C2607.73 382.064 2607.73 382.064 2607.73 383.216ZM2685.68 301.808C2685.29 302.192 2684.91 302.192 2684.53 302.192C2684.53 301.808 2684.14 301.424 2684.14 301.04C2684.14 300.656 2684.53 300.272 2684.91 300.272C2685.29 300.272 2685.68 301.424 2685.68 301.808ZM2606.57 344.432L2607.34 344.816L2606.96 345.584L2606.57 344.432Z"/>
<path clip-path="url(#TextBounds)" d="M2818.16 276.08C2818.54 277.616 2818.54 279.536 2818.54 281.072C2818.54 286.832 2817.01 292.592 2817.01 298.352C2817.01 299.888 2817.39 301.808 2817.39 303.344C2817.39 317.168 2813.55 332.144 2813.55 346.352C2813.55 352.112 2814.7 357.872 2814.7 363.632C2814.7 368.624 2814.32 374.384 2814.32 379.376C2814.32 382.448 2815.47 385.136 2815.47 387.824C2815.47 390.896 2814.7 393.584 2814.32 396.272C2814.32 416.24 2822 421.232 2822.77 428.912C2823.53 434.288 2834.29 441.2 2842.35 441.2C2865.39 441.2 2869.23 403.952 2879.6 391.28C2883.05 387.056 2881.13 380.144 2884.59 375.152C2890.73 366.32 2894.19 356.72 2899.18 347.12C2906.09 337.136 2916.46 326 2919.92 316.4C2919.92 312.56 2916.08 312.56 2913.39 312.56C2902.64 312.56 2896.49 326.384 2892.27 335.216C2883.82 346.352 2877.29 358.64 2871.15 370.928C2866.16 380.912 2851.57 412.4 2846.19 412.4C2842.35 412.4 2841.58 402.032 2841.58 397.04C2841.58 393.584 2842.35 390.128 2843.89 386.672C2847.34 378.608 2847.73 370.16 2848.11 361.328C2848.11 359.792 2847.73 357.872 2847.73 356.336C2847.73 346.736 2853.49 339.056 2853.49 330.608C2853.49 326 2853.1 321.776 2853.1 317.168C2853.1 302.96 2859.25 295.664 2859.25 276.464C2859.25 249.968 2853.49 246.512 2830.06 246.512C2821.61 246.512 2816.62 253.424 2810.48 257.648C2785.52 275.312 2765.17 299.12 2747.12 324.08C2743.28 329.456 2739.44 337.52 2733.68 340.592C2729.45 340.592 2728.69 329.072 2728.69 317.168C2728.69 286.448 2731.76 274.928 2731.76 248.432C2731.76 232.688 2711.79 232.304 2701.04 232.304C2695.66 232.304 2692.59 285.296 2691.44 297.584C2690.67 305.648 2689.52 314.096 2689.52 322.16C2689.52 332.528 2694.89 340.976 2694.89 351.728C2694.89 374 2714.09 385.52 2728.3 385.52C2755.18 385.52 2761.33 363.632 2768.62 340.592C2770.16 335.984 2770.93 330.992 2775.15 328.304C2775.53 323.696 2780.91 322.16 2781.68 317.552C2782.45 312.944 2804.33 276.08 2818.16 276.08Z"/>
<path clip-path="url(#TextBounds)" d="M3055.47 306.416C3055.85 306.416 3056.24 306.416 3056.24 306.8C3056.24 306.416 3055.85 306.416 3055.85 306.416C3055.85 306.416 3055.85 306.416 3055.85 306.8C3068.53 297.968 3068.53 273.392 3080.81 268.4C3085.42 266.48 3085.04 262.64 3086.19 256.88C3086.96 257.264 3087.34 257.264 3088.11 257.264C3090.8 257.264 3092.33 254.192 3095.02 254.192C3096.17 254.192 3096.94 255.344 3096.94 256.112C3096.94 257.648 3096.56 259.184 3096.56 260.72C3096.56 266.096 3097.71 271.472 3097.71 276.848C3097.71 283.76 3097.33 291.056 3097.33 297.2C3097.33 304.88 3086.19 324.848 3086.19 342.128C3086.19 344.816 3088.11 349.04 3088.88 351.344C3086.19 354.032 3083.12 355.184 3083.12 358.256C3083.12 360.56 3085.04 362.864 3085.04 365.552C3085.04 372.08 3079.28 380.912 3079.28 389.744C3079.28 398.192 3079.66 409.328 3078.13 417.008C3076.97 420.464 3075.05 423.536 3075.05 427.376C3075.05 433.904 3083.12 439.28 3083.12 448.112C3083.12 448.88 3083.12 449.648 3082.73 450.416C3087.73 460.784 3091.18 471.152 3103.09 471.152C3109.61 471.152 3123.44 468.464 3125.36 462.704C3128.43 454.256 3136.11 449.648 3137.26 440.048C3138.41 430.064 3143.41 421.616 3143.41 410.864C3143.41 410.096 3143.02 409.328 3143.02 408.56C3143.02 402.8 3154.16 393.968 3155.31 387.824C3158 372.08 3169.13 362.48 3177.58 350.192C3177.58 349.808 3177.97 349.424 3177.97 349.04C3177.97 345.968 3174.13 342.896 3171.44 342.896C3153.77 342.896 3151.09 352.88 3151.09 361.712C3151.09 365.168 3145.71 368.24 3143.79 372.08C3138.8 386.672 3126.51 405.872 3119.21 414.32C3112.69 408.944 3111.53 405.488 3111.53 400.88C3111.53 385.52 3114.99 371.696 3114.99 355.184C3118.83 350.192 3119.6 349.808 3119.6 342.896C3119.6 340.976 3122.29 339.44 3123.05 337.136C3124.21 331.376 3125.36 325.232 3126.51 319.088C3126.13 317.936 3125.74 316.4 3125.74 315.248C3125.74 311.408 3129.58 307.568 3129.58 304.496C3129.58 301.808 3126.13 301.04 3126.13 297.584C3126.13 292.208 3130.73 289.52 3130.73 285.68C3131.89 272.24 3130.73 255.728 3135.34 245.744C3135.73 244.976 3136.11 243.44 3136.11 242.288C3136.11 225.392 3128.43 218.096 3119.21 218.096C3093.1 218.096 3084.65 244.592 3076.21 250.352C3070.06 254.576 3071.98 263.792 3064.69 265.712C3057.77 267.632 3046.64 290.288 3047.02 289.52C3037.42 308.336 3024.75 317.936 3022.83 324.464C3021.29 328.688 3014 342.512 3010.16 342.512C3009.39 342.512 3008.62 341.744 3008.62 341.36C3009.01 330.992 3010.54 320.24 3010.54 310.256C3010.54 303.728 3006.32 297.968 3000.17 297.968C2995.18 297.968 2990.57 298.352 2985.97 298.736C2969.45 313.712 2956.4 328.688 2944.11 348.272C2942.57 350.576 2939.5 355.184 2936.05 355.184C2934.51 355.184 2933.74 352.112 2933.74 351.728C2933.74 349.04 2936.43 346.352 2936.43 343.664C2936.43 340.976 2932.97 332.912 2932.97 327.536C2936.81 321.776 2934.89 314.864 2937.2 308.72C2942.19 294.512 2941.42 279.536 2947.95 261.488C2948.33 260.336 2948.33 259.568 2948.33 258.416C2948.33 248.048 2931.44 243.056 2922.99 241.136C2919.92 241.136 2915.31 242.288 2914.93 246.128C2913.39 258.8 2910.7 271.472 2907.63 284.144C2907.63 286.448 2909.17 289.904 2909.17 292.592C2909.17 304.88 2902.25 311.024 2901.49 319.472C2901.1 326 2900.72 332.528 2900.72 339.056C2900.72 347.504 2901.1 356.336 2901.1 364.016C2901.1 375.536 2912.24 392.816 2913.77 393.968C2915.69 395.888 2918 397.04 2920.3 397.04C2941.42 397.04 2942.19 382.064 2952.56 370.928C2954.86 368.624 2955.25 363.248 2957.17 360.56C2963.31 352.112 2972.53 328.688 2977.9 328.688C2984.05 328.688 2979.82 380.528 2997.87 386.288C3003.25 388.208 3008.62 390.896 3012.85 390.512C3022.83 390.512 3028.97 375.92 3028.97 371.696C3028.97 365.936 3032.81 364.4 3034.73 357.872C3037.81 348.272 3040.49 335.984 3045.87 328.688C3048.17 324.848 3056.62 314.48 3056.62 309.872C3056.62 309.104 3055.85 307.952 3055.47 306.416ZM3122.29 355.952C3121.9 355.568 3121.52 354.8 3121.52 354.8C3119.98 355.568 3118.83 355.568 3118.83 358.256C3121.52 358.256 3121.13 357.488 3122.29 355.952Z"/>
<path clip-path="url(#TextBounds)" d="M3172.97 286.448C3173.36 287.984 3173.74 289.52 3173.74 291.056C3173.74 292.592 3172.97 292.208 3172.59 292.592C3172.21 292.208 3171.82 291.44 3171.82 290.672C3171.82 289.136 3172.59 287.6 3173.36 286.448C3167.6 294.512 3169.13 306.8 3163.76 313.328C3158.77 319.472 3159.15 337.136 3159.15 344.816C3159.15 347.888 3161.84 350.96 3161.84 353.648C3161.84 355.568 3159.92 357.872 3159.92 359.792C3159.92 362.48 3161.45 364.784 3161.45 367.088C3161.45 368.624 3160.3 370.16 3160.3 371.312C3160.3 374.384 3164.53 377.456 3164.53 380.912C3164.53 382.832 3163.76 384.752 3163.76 386.288C3163.76 387.44 3168.37 400.88 3174.89 404.336C3176.43 405.104 3177.58 407.024 3178.35 408.944C3186.41 420.848 3196.78 420.464 3211.76 422C3214.06 420.464 3216.37 418.928 3219.05 417.392C3220.21 418.16 3221.74 418.544 3222.89 418.544C3229.42 418.544 3254.77 387.44 3260.91 385.136C3267.44 382.832 3273.2 365.552 3283.95 360.176C3288.17 360.176 3290.09 354.032 3290.09 350.96C3290.09 347.12 3310.83 329.84 3310.83 329.84C3314.67 327.152 3326.19 322.544 3326.19 317.552C3326.19 314.48 3322.35 313.328 3320.05 313.328C3308.14 313.328 3292.01 331.76 3287.79 335.6C3267.82 353.264 3247.47 369.392 3226.73 386.288C3222.51 389.744 3215.6 394.352 3209.84 394.352C3196.01 394.352 3194.86 362.096 3194.86 344.816C3194.86 338.672 3195.25 327.92 3202.54 327.92C3207.92 327.92 3213.29 329.456 3218.67 329.456C3240.17 329.456 3262.06 309.488 3266.29 301.424C3268.21 297.584 3270.89 295.28 3273.58 292.592C3276.65 289.136 3278.19 282.992 3282.03 281.072C3285.87 278.384 3287.41 274.544 3287.41 269.936C3287.41 267.632 3287.02 265.328 3287.02 262.64C3287.02 261.488 3287.41 259.952 3287.41 258.8C3287.41 238.064 3254.77 223.472 3234.8 223.472C3228.65 223.472 3225.97 229.232 3220.97 231.152C3212.53 234.608 3207.53 242.288 3201.77 248.048C3199.09 256.496 3186.03 259.952 3182.57 270.704C3180.65 276.848 3176.81 281.84 3172.97 286.448ZM3209.45 305.648C3203.31 304.88 3201.39 304.88 3201.39 302.192C3201.39 291.824 3221.74 251.12 3247.09 251.12C3254.77 251.12 3256.3 261.872 3256.3 268.4C3256.3 292.976 3223.28 303.344 3209.45 305.648Z"/>
<path clip-path="url(#TextBounds)" d="M3439.09 375.92C3439.09 377.84 3439.47 379.376 3439.47 381.296C3438.7 387.824 3439.09 391.28 3432.17 391.28C3432.94 389.744 3432.94 388.592 3434.86 388.592C3436.01 388.592 3437.17 389.744 3438.7 390.128C3437.17 387.44 3436.78 384.752 3436.78 381.68C3436.78 377.072 3439.47 374.384 3442.93 374.384C3444.08 374.384 3445.61 374.768 3447.15 374.768C3448.69 374.768 3449.45 374.384 3449.45 372.848C3449.45 371.696 3449.07 370.544 3449.07 369.392C3449.07 362.864 3460.21 353.648 3464.05 353.648C3465.2 353.648 3466.73 354.032 3467.89 354.032C3469.81 354.032 3471.34 353.264 3472.11 351.728C3476.72 340.208 3502.45 335.216 3510.51 335.216C3512.43 335.216 3514.35 335.984 3516.65 335.984C3521.26 335.984 3528.94 330.608 3528.94 325.232C3528.94 318.32 3515.89 318.32 3510.51 316.784C3503.6 319.472 3496.3 317.168 3489.39 320.624C3487.09 321.776 3484.78 322.16 3482.09 322.16C3471.34 322.16 3476.33 314.48 3469.81 313.328C3469.04 309.488 3469.04 299.888 3465.97 299.888C3464.81 299.888 3462.51 301.808 3460.97 302.96C3456.75 298.736 3459.05 292.976 3457.13 287.984C3449.07 279.92 3442.93 276.08 3428.33 276.08C3398.77 276.08 3372.27 285.296 3353.45 290.288C3352.69 290.672 3351.92 290.672 3351.15 290.672C3348.85 290.672 3347.69 289.52 3347.69 287.984C3347.69 284.912 3353.07 278.768 3354.61 275.312C3357.29 266.096 3367.66 263.024 3369.2 257.264C3374.19 238.832 3387.63 237.296 3394.54 229.232C3399.92 221.168 3409.52 211.568 3420.27 210.032C3421.81 209.648 3422.96 206.96 3422.96 205.04C3421.42 191.6 3399.15 191.216 3391.09 189.68C3384.17 196.592 3377.65 200.048 3371.89 209.264C3367.66 216.176 3356.91 218.864 3355.37 223.472C3351.92 233.84 3340.01 230 3337.33 240.368C3337.33 240.752 3324.65 254.192 3320.81 258.032C3315.44 263.024 3310.45 269.168 3310.06 277.616C3310.06 281.84 3306.99 285.68 3306.99 289.52C3306.99 292.208 3308.14 294.512 3308.14 297.2C3308.14 298.352 3307.37 299.504 3307.37 300.656C3307.37 311.792 3316.59 318.32 3328.88 322.928C3331.57 324.464 3331.95 329.84 3334.25 329.84C3350 329.84 3362.29 319.088 3362.29 319.088C3363.82 319.088 3365.74 320.624 3368.43 321.776C3376.49 316.4 3378.41 314.48 3386.86 311.792C3398.77 308.336 3406.45 301.424 3411.44 301.424C3414.13 301.424 3416.43 303.344 3418.73 303.344C3420.27 303.344 3422.19 302.576 3424.11 302.576C3429.87 302.576 3433.33 308.336 3433.33 313.328C3430.25 332.912 3431.79 348.656 3416.43 352.496C3406.45 354.8 3404.14 368.24 3395.69 368.24C3388.01 368.24 3387.63 376.304 3379.95 377.456C3376.11 377.456 3371.12 390.896 3359.6 393.968C3350.77 396.272 3350 404.336 3343.47 408.176C3324.27 419.696 3317.36 451.184 3316.97 454.256C3315.05 460.016 3310.45 468.08 3310.45 469.232C3310.45 476.144 3321.97 496.112 3331.57 496.112C3336.17 496.112 3336.56 489.2 3345.01 489.2C3354.22 489.2 3359.6 488.816 3368.81 481.52C3371.12 479.6 3373.42 478.064 3376.11 477.296C3379.95 476.144 3380.72 468.848 3385.71 468.848C3395.69 468.848 3389.93 457.712 3397.23 454.64C3402.22 452.72 3400.3 444.272 3404.91 443.504C3411.82 441.2 3411.44 433.136 3411.44 425.072C3409.9 424.688 3408.37 424.304 3407.21 423.92L3407.6 425.072L3406.83 424.304C3408.37 424.688 3409.52 425.072 3411.05 425.072C3420.65 419.696 3427.57 413.552 3427.57 407.408C3427.57 405.872 3426.03 405.104 3424.88 405.104C3422.57 405.104 3421.42 405.488 3420.27 405.488C3417.58 405.488 3419.89 395.888 3414.13 395.888C3412.97 395.888 3406.06 408.176 3404.91 408.176C3404.91 408.176 3404.91 408.176 3404.91 407.792C3404.91 415.088 3394.54 427.76 3390.7 433.904C3386.48 445.04 3384.17 456.56 3373.42 459.248C3363.82 461.936 3366.13 474.224 3358.06 473.84C3356.53 473.84 3355.37 473.456 3353.84 473.456C3351.15 473.456 3348.08 474.608 3345.01 474.608C3342.32 474.608 3336.94 473.456 3336.94 469.616C3337.71 464.24 3336.94 458.096 3340.01 453.104C3346.16 443.504 3352.3 427.76 3361.13 424.688C3369.2 420.08 3376.11 408.944 3388.01 403.568C3400.69 397.808 3402.99 383.216 3417.97 383.216C3418.35 388.976 3420.27 399.344 3425.65 399.344C3436.4 399.344 3442.54 392.816 3442.54 383.216C3442.54 380.144 3441.39 377.84 3439.09 375.92Z"/>
</g>
</g>
</svg>
